<?xml version="1.0" encoding="UTF-8"?>
<svg version="1.1" xmlns="http://www.w3.org/2000/svg" width="428" height="395">
<path d="M0 0 C5.696436 -0.89943726 8.92524301 1.52064317 13.5234375 4.47265625 C15.68027075 5.80281682 17.71543402 6.8179347 20.0625 7.75 C23 9 23 9 24 11 C25.76247883 11.95197435 27.56151519 12.83670057 29.375 13.6875 C34.4543347 16.16449636 39.14607116 18.91579105 43.87109375 22.00390625 C47.77593843 24.49501191 51.7543519 26.84568403 55.75 29.1875 C56.81383911 29.81156738 56.81383911 29.81156738 57.89916992 30.44824219 C63.79619097 33.89766464 69.71783144 37.30256328 75.6875 40.625 C76.41324219 41.02976563 77.13898438 41.43453125 77.88671875 41.8515625 C79.90373757 42.94768733 81.9404308 43.98648739 84 45 C84 45.66 84 46.32 84 47 C84.680625 47.0825 85.36125 47.165 86.0625 47.25 C89.8746907 48.22332528 92.64070329 49.95807455 96 52 C96 52.66 96 53.32 96 54 C96.72832031 54.10957031 97.45664062 54.21914062 98.20703125 54.33203125 C101.1727294 55.04131011 103.1161626 56.06819496 105.6875 57.6875 C106.54859375 58.22117188 107.4096875 58.75484375 108.296875 59.3046875 C109.18890625 59.86414063 110.0809375 60.42359375 111 61 C112.80943893 62.10917584 114.6218353 63.21354505 116.4375 64.3125 C117.24058594 64.80363281 118.04367187 65.29476562 118.87109375 65.80078125 C121.07286228 67.12989008 121.07286228 67.12989008 124 68 C124 68.66 124 69.32 124 70 C125.65 70.33 127.3 70.66 129 71 C129 71.66 129 72.32 129 73 C130.1446875 73.185625 130.1446875 73.185625 131.3125 73.375 C134 74 134 74 137 76 C137.34896392 78.75506129 137.48965714 81.28998732 137.51171875 84.0546875 C137.53030441 84.93462372 137.54889008 85.81455994 137.56803894 86.72116089 C137.62596976 89.77244326 137.65887695 92.82330677 137.6875 95.875 C137.6993634 96.9427063 137.71122681 98.0104126 137.72344971 99.11047363 C137.77723526 104.04251039 137.82655212 108.97452286 137.86035156 113.90673828 C137.93216877 123.73620368 138.10418157 133.56118258 138.31253529 143.38867378 C138.50009344 152.41049625 138.63410485 161.43237078 138.73792553 170.45553398 C138.80551498 176.17679324 138.89588981 181.89574469 139.03866577 187.61566162 C139.17425395 193.09997559 139.24640189 198.58171156 139.27303505 204.06760025 C139.29394446 206.11826512 139.33746981 208.16883836 139.40486717 210.21850204 C139.89149167 225.615895 139.89149167 225.615895 136.72489166 229.60719299 C133.22073502 232.62250268 129.25865252 234.24935514 125 236 C124.26433807 236.55451843 123.52867615 237.10903687 122.77072144 237.68035889 C121 239 121 239 118 239 C118 239.66 118 240.32 118 241 C115.35261084 242.4606285 114.10551666 243 111 243 C111 243.66 111 244.32 111 245 C110.27554688 245.38671875 109.55109375 245.7734375 108.8046875 246.171875 C102.50363796 249.52763163 102.50363796 249.52763163 96.5 253.375 C94 255 94 255 91 255 C91 255.66 91 256.32 91 257 C90.31035156 257.36351562 89.62070312 257.72703125 88.91015625 258.1015625 C82.69294616 261.42764197 76.81737254 265.02401352 71 269 C66.4 272 66.4 272 63 272 C63 272.66 63 273.32 63 274 C60.35261084 275.4606285 59.10551666 276 56 276 C56 276.66 56 277.32 56 278 C55.48953125 278.27972656 54.9790625 278.55945313 54.453125 278.84765625 C44.88848053 284.12177758 35.47821917 289.57546763 26.375 295.6171875 C24.19064487 296.88899953 22.46902905 297.55420309 20 298 C20 298.66 20 299.32 20 300 C18.02 300 16.04 300 14 300 C14 299.34 14 298.68 14 298 C12.35 297.67 10.7 297.34 9 297 C9 296.34 9 295.68 9 295 C8.42765625 294.87753906 7.8553125 294.75507813 7.265625 294.62890625 C4.90046809 293.97237132 2.92793203 293.06276488 0.75 291.9375 C0.04359375 291.57527344 -0.6628125 291.21304687 -1.390625 290.83984375 C-1.92171875 290.56269531 -2.4528125 290.28554688 -3 290 C-3 289.34 -3 288.68 -3 288 C-3.598125 287.855625 -4.19625 287.71125 -4.8125 287.5625 C-6.56150404 287.1127561 -8.28677023 286.57107659 -10 286 C-10 285.34 -10 284.68 -10 284 C-11.65 283.67 -13.3 283.34 -15 283 C-15 282.34 -15 281.68 -15 281 C-15.57564697 280.88084229 -16.15129395 280.76168457 -16.74438477 280.63891602 C-19.13474822 279.96183179 -20.94768129 279.02953531 -23.08984375 277.77734375 C-23.86779297 277.32512451 -24.64574219 276.87290527 -25.44726562 276.40698242 C-26.67993164 275.67958862 -26.67993164 275.67958862 -27.9375 274.9375 C-28.78634766 274.44161377 -29.63519531 273.94572754 -30.50976562 273.43481445 C-36.42194133 269.96795669 -42.25809592 266.39249111 -48.078125 262.7734375 C-52.62822806 260.01174393 -57.30904989 257.51174554 -62 255 C-63.73102972 254.045036 -65.46033289 253.08693238 -67.1875 252.125 C-67.92355469 251.71507812 -68.65960938 251.30515625 -69.41796875 250.8828125 C-70.20107422 250.44582031 -70.20107422 250.44582031 -71 250 C-71 249.34 -71 248.68 -71 248 C-71.99 248 -72.98 248 -74 248 C-74.04936158 242.90968245 -74.08570105 237.81950357 -74.10986328 232.72900391 C-74.11993376 230.99655735 -74.13359089 229.26412784 -74.15087891 227.53173828 C-74.17508162 225.04455361 -74.18647239 222.55759325 -74.1953125 220.0703125 C-74.21079636 218.90461227 -74.21079636 218.90461227 -74.22659302 217.71536255 C-74.22699271 215.80874507 -74.1223214 213.90268964 -74 212 C-73.34 211.34 -72.68 210.68 -72 210 C-71.01 210 -70.02 210 -69 210 C-69 209.34 -69 208.68 -69 208 C-66.35261084 206.5393715 -65.10551666 206 -62 206 C-62 205.34 -62 204.68 -62 204 C-60.35 203.67 -58.7 203.34 -57 203 C-57 202.34 -57 201.68 -57 201 C-54.36 200.01 -51.72 199.02 -49 198 C-48.25265639 202.65214935 -47.88063908 207.09867942 -47.90234375 211.80859375 C-47.90717773 213.66967773 -47.90717773 213.66967773 -47.91210938 215.56835938 C-47.92467773 217.48358398 -47.92467773 217.48358398 -47.9375 219.4375 C-47.94201172 220.74138672 -47.94652344 222.04527344 -47.95117188 223.38867188 C-47.96290749 226.59249552 -47.97932637 229.79622363 -48 233 C-40.3590445 237.38023481 -32.71661601 241.75381976 -25 246 C-25 246.66 -25 247.32 -25 248 C-23.35 248.33 -21.7 248.66 -20 249 C-20 249.66 -20 250.32 -20 251 C-19.1028125 251.2165625 -19.1028125 251.2165625 -18.1875 251.4375 C-16.43849596 251.8872439 -14.71322977 252.42892341 -13 253 C-13 253.66 -13 254.32 -13 255 C-12.42765625 255.12246094 -11.8553125 255.24492187 -11.265625 255.37109375 C-8.90046809 256.02762868 -6.92793203 256.93723512 -4.75 258.0625 C-4.04359375 258.42472656 -3.3371875 258.78695313 -2.609375 259.16015625 C-2.07828125 259.43730469 -1.5471875 259.71445312 -1 260 C-1 260.66 -1 261.32 -1 262 C0.65 262.33 2.3 262.66 4 263 C4 263.66 4 264.32 4 265 C6.31 265.66 8.62 266.32 11 267 C11 267.66 11 268.32 11 269 C14.66305234 269.74926071 17.42355152 270.2380014 21 269 C21 268.34 21 267.68 21 267 C23.64738916 265.5393715 24.89448334 265 28 265 C28 264.34 28 263.68 28 263 C28.77085937 262.59007812 29.54171875 262.18015625 30.3359375 261.7578125 C31.33882812 261.21898437 32.34171875 260.68015625 33.375 260.125 C34.37273437 259.59132813 35.37046875 259.05765625 36.3984375 258.5078125 C39.05348395 257.1179862 39.05348395 257.1179862 41 255 C41.99 255 42.98 255 44 255 C44 254.34 44 253.68 44 253 C45.7015625 252.195625 45.7015625 252.195625 47.4375 251.375 C51.57211251 249.32976463 55.27183769 246.85164172 59.01953125 244.171875 C61 243 61 243 64 243 C64 242.34 64 241.68 64 241 C66.64738916 239.5393715 67.89448334 239 71 239 C71 238.34 71 237.68 71 237 C72.45537568 236.16151196 73.91440373 235.32936066 75.375 234.5 C76.18710937 234.0359375 76.99921875 233.571875 77.8359375 233.09375 C80 232 80 232 82 232 C82 231.34 82 230.68 82 230 C84.475 229.01 84.475 229.01 87 228 C86.34 227.67 85.68 227.34 85 227 C85 226.34 85 225.68 85 225 C83.35 224.67 81.7 224.34 80 224 C80 223.34 80 222.68 80 222 C79.27941406 221.90074219 78.55882812 221.80148437 77.81640625 221.69921875 C74.6254725 220.90701744 72.646174 219.66322296 69.9375 217.8125 C64.1888161 214.0218147 58.21006239 210.95872082 52 208 C52 207.34 52 206.68 52 206 C50.35 205.67 48.7 205.34 47 205 C47 204.34 47 203.68 47 203 C46.319375 202.9175 45.63875 202.835 44.9375 202.75 C41.1253093 201.77667472 38.35929671 200.04192545 35 198 C35 197.34 35 196.68 35 196 C34.30261719 195.91234375 33.60523438 195.8246875 32.88671875 195.734375 C29.33768759 194.83150916 26.88349881 193.23997731 23.8125 191.25 C18.37426244 187.78399045 12.83739285 184.74080748 7 182 C7 181.34 7 180.68 7 180 C6.34 180 5.68 180 5 180 C3.76152401 176.16527494 3.85623647 172.34332704 3.8671875 168.359375 C3.86564163 167.60790695 3.86409576 166.8564389 3.86250305 166.0821991 C3.86003813 163.63807519 3.86626582 161.1941084 3.875 158.75 C3.87882187 157.50695602 3.87882187 157.50695602 3.88272095 156.23880005 C3.90076052 151.25330047 3.93495425 146.2680972 3.98040771 141.28277588 C3.99845606 139.1798906 4.01095909 137.07705267 4.02197266 134.97412109 C4.04861745 131.62726414 4.10955041 128.28349939 4.1875 124.9375 C4.19313965 123.97102539 4.1987793 123.00455078 4.20458984 122.00878906 C4.41604261 115.62314916 4.41604261 115.62314916 7.328125 112.515625 C8.20984375 112.01546875 9.0915625 111.5153125 10 111 C10.62003906 110.59394531 11.24007812 110.18789062 11.87890625 109.76953125 C14.86388505 108.07273356 17.58418122 106.546531 21 106 C21 105.34 21 104.68 21 104 C22.43294498 103.15885829 23.87154405 102.32734313 25.3125 101.5 C26.51326172 100.80390625 26.51326172 100.80390625 27.73828125 100.09375 C30 99 30 99 33 99 C33 98.34 33 97.68 33 97 C33.64324219 96.6596875 34.28648437 96.319375 34.94921875 95.96875 C41.5292508 92.43937475 47.86133446 88.64981702 54.15234375 84.63671875 C56.54827513 83.25963336 58.30693898 82.44776195 61 82 C61 81.34 61 80.68 61 80 C63.64738916 78.5393715 64.89448334 78 68 78 C68 77.34 68 76.68 68 76 C70.31 74.68 72.62 73.36 75 72 C72.70369582 69.45925054 70.40648128 68.00955299 67.375 66.4375 C62.33255478 63.75577515 57.40958393 60.91462487 52.5 58 C47.79095239 55.2082885 43.07787884 52.45833868 38.25 49.875 C34.17326211 47.69081166 30.23374761 45.32444609 26.3125 42.875 C21.63986334 39.96435998 16.97911038 37.34311077 12 35 C12 34.34 12 33.68 12 33 C11.21625 32.855625 10.4325 32.71125 9.625 32.5625 C7 32 7 32 5 31 C0.59701851 31.38286796 -1.56428111 32.36825189 -5 35 C-6.75475032 36.00770501 -8.52697457 36.98538814 -10.3125 37.9375 C-13.59713891 39.69838262 -16.85320915 41.48043964 -20.0625 43.375 C-23 45 -23 45 -25 45 C-25 45.66 -25 46.32 -25 47 C-25.68707031 47.33773437 -26.37414062 47.67546875 -27.08203125 48.0234375 C-27.98308594 48.46945313 -28.88414062 48.91546875 -29.8125 49.375 C-30.70582031 49.81585938 -31.59914063 50.25671875 -32.51953125 50.7109375 C-35.14556381 52.01866905 -35.14556381 52.01866905 -38 54 C-38.99 54 -39.98 54 -41 54 C-41 54.66 -41 55.32 -41 56 C-41.64324219 56.3403125 -42.28648437 56.680625 -42.94921875 57.03125 C-49.38224958 60.48177724 -55.59741043 64.19233746 -61.79296875 68.05078125 C-65.62104031 70.37746543 -69.5332346 72.50485106 -73.484375 74.61328125 C-76.56439371 76.31111765 -79.50857506 78.17822634 -82.44140625 80.1171875 C-84 81 -84 81 -86 81 C-86.33 81.66 -86.66 82.32 -87 83 C-87.33 83.33 -87.66 83.66 -88 84 C-85.69 84.99 -83.38 85.98 -81 87 C-81 87.66 -81 88.32 -81 89 C-79.35 89.33 -77.7 89.66 -76 90 C-76 90.66 -76 91.32 -76 92 C-74.9790625 92.0928125 -74.9790625 92.0928125 -73.9375 92.1875 C-70.7295469 93.07480618 -68.68222479 94.58035657 -66.046875 96.5625 C-62.95097078 98.73672281 -59.62387946 100.42156839 -56.2890625 102.19921875 C-52.30622921 104.37984363 -48.40474558 106.68329033 -44.5 109 C-39.64671821 111.87774207 -34.78346821 114.70301981 -29.8125 117.375 C-28.54212891 118.07689453 -28.54212891 118.07689453 -27.24609375 118.79296875 C-25.32409407 119.82583467 -23.35311444 120.76665362 -21.375 121.6875 C-18.12230557 124.85459721 -18.1792279 127.20659045 -18.0234375 131.640625 C-18.01183594 133.30351562 -18.01183594 133.30351562 -18 135 C-17.95239199 136.39069032 -17.90280702 137.78131393 -17.8515625 139.171875 C-17.81486322 140.61451376 -17.78099579 142.05722743 -17.75 143.5 C-17.72824707 144.19448242 -17.70649414 144.88896484 -17.68408203 145.60449219 C-17.65373276 150.55020956 -17.65373276 150.55020956 -19.515625 152.96875 C-20.00546875 153.3090625 -20.4953125 153.649375 -21 154 C-21.33 153.34 -21.66 152.68 -22 152 C-23.98888201 150.89855315 -26.0162536 149.86581405 -28.0625 148.875 C-29.16722656 148.33617187 -30.27195312 147.79734375 -31.41015625 147.2421875 C-32.26480469 146.83226562 -33.11945313 146.42234375 -34 146 C-34 145.34 -34 144.68 -34 144 C-34.5465625 143.89945313 -35.093125 143.79890625 -35.65625 143.6953125 C-38.58528895 142.82636428 -40.87906019 141.44615478 -43.5 139.875 C-44.55960937 139.24464844 -45.61921875 138.61429688 -46.7109375 137.96484375 C-47.79632813 137.31644531 -48.88171875 136.66804687 -50 136 C-52.04034346 134.81022793 -54.08197679 133.62266463 -56.125 132.4375 C-59.79064528 130.30198754 -63.43543397 128.13780546 -67.0625 125.9375 C-72.2831394 122.78813867 -77.62735304 119.88039248 -83 117 C-83 116.34 -83 115.68 -83 115 C-83.57234375 114.87753906 -84.1446875 114.75507813 -84.734375 114.62890625 C-87.09953191 113.97237132 -89.07206797 113.06276488 -91.25 111.9375 C-91.95640625 111.57527344 -92.6628125 111.21304688 -93.390625 110.83984375 C-93.92171875 110.56269531 -94.4528125 110.28554687 -95 110 C-95 109.34 -95 108.68 -95 108 C-95.53625 107.896875 -96.0725 107.79375 -96.625 107.6875 C-99.62502044 106.81907303 -102.2379535 105.44379704 -105 104 C-104.83766876 105.29504959 -104.67533752 106.59009918 -104.50808716 107.9243927 C-103.97981338 112.70243707 -103.85849265 117.40644011 -103.87060547 122.2097168 C-103.86885315 123.08277466 -103.86710083 123.95583252 -103.86529541 124.85534668 C-103.86092328 127.71999143 -103.86380185 130.58457345 -103.8671875 133.44921875 C-103.86651234 135.46873486 -103.86554056 137.48825089 -103.86428833 139.50776672 C-103.86281694 143.73996759 -103.86494501 147.97214731 -103.86962891 152.2043457 C-103.87527818 157.5636934 -103.87207437 162.92299047 -103.86605644 168.28233624 C-103.86239472 172.45830141 -103.86361557 176.63425515 -103.86618423 180.81022072 C-103.86684061 182.7820823 -103.86607154 184.75394501 -103.86370468 186.72580528 C-103.85856082 192.22275612 -103.89748036 197.71664174 -103.97902679 203.21297836 C-104.00123541 206.16416735 -103.95787474 209.11101096 -103.9151001 212.06192017 C-103.92329328 214.0449517 -103.93346669 216.02797623 -103.94580078 218.01098633 C-103.91749113 218.92450458 -103.88918148 219.83802282 -103.86001396 220.77922344 C-103.93208007 224.76894568 -104.05866845 227.06646346 -106.96865463 229.95235252 C-112.80237321 234 -112.80237321 234 -117 234 C-117 234.66 -117 235.32 -117 236 C-117.51949219 236.25394531 -118.03898437 236.50789062 -118.57421875 236.76953125 C-119.27160156 237.11371094 -119.96898438 237.45789063 -120.6875 237.8125 C-121.37199219 238.14894531 -122.05648437 238.48539063 -122.76171875 238.83203125 C-125.23841623 240.12440917 -127.60986436 241.55484196 -130 243 C-130.20311445 227.12517386 -130.38990104 211.25018762 -130.5625 195.375 C-130.57523327 194.2047163 -130.58796654 193.0344326 -130.60108566 191.82868576 C-131.00897924 153.86472658 -131.02145896 115.95440175 -130 78 C-128.02 77.505 -128.02 77.505 -126 77 C-126 76.34 -126 75.68 -126 75 C-125.32195312 74.63648437 -124.64390625 74.27296875 -123.9453125 73.8984375 C-117.52268688 70.42915219 -111.23402176 66.79591468 -105 63 C-98.64831427 59.16444098 -92.26071535 55.398339 -85.83984375 51.6796875 C-82.70469605 49.82533604 -79.64849392 47.87243357 -76.62109375 45.84765625 C-75 45 -75 45 -72 45 C-72 44.34 -72 43.68 -72 43 C-69.525 42.505 -69.525 42.505 -67 42 C-67 41.34 -67 40.68 -67 40 C-66.071875 39.54625 -65.14375 39.0925 -64.1875 38.625 C-60.96078611 37.0578367 -60.96078611 37.0578367 -58 35 C-57.01 35 -56.02 35 -55 35 C-55 34.34 -55 33.68 -55 33 C-53.56705502 32.15885829 -52.12845595 31.32734313 -50.6875 30.5 C-49.88699219 30.0359375 -49.08648437 29.571875 -48.26171875 29.09375 C-46 28 -46 28 -43 28 C-43 27.34 -43 26.68 -43 26 C-42.43796875 25.70609375 -41.8759375 25.4121875 -41.296875 25.109375 C-33.66098613 21.03377787 -26.27567163 16.59098013 -18.90722656 12.05175781 C-18.07288086 11.54354492 -17.23853516 11.03533203 -16.37890625 10.51171875 C-15.6319751 10.05240967 -14.88504395 9.59310059 -14.11547852 9.11987305 C-12.06519917 8.03451455 -10.26630301 7.45031194 -8 7 C-8 6.34 -8 5.68 -8 5 C-5.09451118 2.95830515 -3.59857954 2 0 2 C0 1.34 0 0.68 0 0 Z M96.0625 88.5625 C95.48709473 88.92093994 94.91168945 89.27937988 94.31884766 89.64868164 C89.59434733 92.59938345 84.90962985 95.61227373 80.2421875 98.65234375 C78 100 78 100 75 101 C75 101.66 75 102.32 75 103 C73.35 103.33 71.7 103.66 70 104 C70 104.66 70 105.32 70 106 C67.69 106.66 65.38 107.32 63 108 C63 108.66 63 109.32 63 110 C62.319375 110.268125 61.63875 110.53625 60.9375 110.8125 C57.60289191 112.16053306 54.30256763 113.57536298 51 115 C51 115.66 51 116.32 51 117 C50.34515625 117.24105469 49.6903125 117.48210937 49.015625 117.73046875 C45.1267823 119.36761108 41.45408167 121.29723974 37.75 123.3125 C36.65171875 123.88000977 36.65171875 123.88000977 35.53125 124.45898438 C34.83515625 124.83990234 34.1390625 125.22082031 33.421875 125.61328125 C32.78862305 125.95141846 32.15537109 126.28955566 31.50292969 126.63793945 C28.81719069 129.07194495 29.04060431 132.17534943 28.87060547 135.62792969 C28.86947754 136.54993164 28.86834961 137.47193359 28.8671875 138.421875 C28.86589844 139.44796875 28.86460937 140.4740625 28.86328125 141.53125 C28.86714844 142.5934375 28.87101563 143.655625 28.875 144.75 C28.87113281 145.79671875 28.86726562 146.8434375 28.86328125 147.921875 C28.87091771 154.03104643 29.20166118 159.94276259 30 166 C30.66 166 31.32 166 32 166 C32 166.66 32 167.32 32 168 C33.09054688 168.52787109 33.09054688 168.52787109 34.203125 169.06640625 C41.67299667 172.73430477 48.85083823 176.74634306 56 181 C57.79073181 182.04327296 59.58242571 183.08489601 61.375 184.125 C65.38500242 186.45973615 69.3798304 188.81817657 73.3671875 191.19140625 C74.33350098 191.76552246 75.29981445 192.33963867 76.29541016 192.93115234 C78.2261621 194.07888243 80.15558435 195.22885311 82.08349609 196.38134766 C86.75934433 199.15890632 91.44263644 201.78348451 96.33349609 204.16186523 C98.38791202 205.19509258 100.28343815 206.40053282 102.1875 207.6875 C105.13933771 209.59341096 107.49560869 210.46903162 111 211 C111.33 211.66 111.66 212.32 112 213 C112.02333814 197.12771946 112.04098369 181.25544353 112.05181217 165.3831501 C112.05697318 158.01372835 112.06401217 150.64431726 112.07543945 143.27490234 C112.08539224 136.853334 112.09185485 130.43177336 112.09408849 124.01019752 C112.09539459 120.60857621 112.09847406 117.20697696 112.10573006 113.8053627 C112.11294482 110.01231811 112.11399075 106.21931984 112.11352539 102.42626953 C112.1189183 100.72587021 112.1189183 100.72587021 112.12442017 98.99111938 C112.12235817 97.4472052 112.12235817 97.4472052 112.12025452 95.87210083 C112.12117631 94.97427446 112.1220981 94.0764481 112.12304783 93.15141487 C112.13933892 90.94916817 112.13933892 90.94916817 111 89 C109.42015993 87.88064284 109.42015993 87.88064284 107.5625 86.875 C106.63630859 86.34519531 106.63630859 86.34519531 105.69140625 85.8046875 C101.77669679 83.94226221 99.44500897 86.44290164 96.0625 88.5625 Z " fill="#FDFCFC" transform="translate(214,47)"/>
<path d="M0 0 C-0.97340332 0.53069092 -1.94680664 1.06138184 -2.94970703 1.6081543 C-5.35795339 3.63702908 -5.95289029 4.76307411 -6.57513428 7.89248657 C-6.79237354 11.69042015 -6.83198653 15.46763231 -6.8046875 19.26953125 C-6.81594335 20.67488376 -6.82982651 22.08021747 -6.84622192 23.48551941 C-6.88221744 27.17315425 -6.88263926 30.85995935 -6.87554932 34.54772949 C-6.87463553 38.3151732 -6.90750719 42.08230737 -6.9375 45.84960938 C-6.99132182 53.233183 -7.00754916 60.61620696 -7 68 C-9.16029747 64.08849627 -9.27433565 60.74969519 -9.23046875 56.359375 C-9.23059967 55.60790695 -9.23073059 54.8564389 -9.23086548 54.0821991 C-9.22769387 51.6379422 -9.20887385 49.19416122 -9.1875 46.75 C-9.1772857 45.07234726 -9.16711335 43.39469426 -9.15698242 41.71704102 C-9.12728043 37.57207218 -9.07999641 33.42750141 -9.0267334 29.28277588 C-9.00210642 27.17986839 -8.98589988 25.0771315 -8.97363281 22.97412109 C-8.94744033 19.62735376 -8.88806259 16.28346451 -8.8125 12.9375 C-8.80694092 11.97102539 -8.80138184 11.00455078 -8.7956543 10.00878906 C-8.58498283 3.66426976 -8.58498283 3.66426976 -5.63671875 0.31640625 C-3 -1 -3 -1 0 0 Z " fill="#E7E3E4" transform="translate(227,159)"/>
<path d="M0 0 C0.99 0.33 1.98 0.66 3 1 C2.5155542 1.33555908 2.0311084 1.67111816 1.53198242 2.0168457 C-0.77285784 5.00046602 -0.47991601 8.10608358 -0.51171875 11.73046875 C-0.52966995 12.48088943 -0.54762115 13.23131012 -0.56611633 14.00447083 C-0.62025187 16.3987569 -0.65412416 18.79284331 -0.6875 21.1875 C-0.72067036 22.81187677 -0.75515976 24.43622717 -0.79101562 26.06054688 C-0.8759797 30.04022056 -0.94277465 34.0198347 -1 38 C-1.33 38 -1.66 38 -2 38 C-2.04936158 32.90968245 -2.08570105 27.81950357 -2.10986328 22.72900391 C-2.11993376 20.99655735 -2.13359089 19.26412784 -2.15087891 17.53173828 C-2.17508162 15.04455361 -2.18647239 12.55759325 -2.1953125 10.0703125 C-2.20563507 9.29317902 -2.21595764 8.51604553 -2.22659302 7.71536255 C-2.22699271 5.80874507 -2.1223214 3.90268964 -2 2 C-1.34 1.34 -0.68 0.68 0 0 Z " fill="#DFDEDB" transform="translate(142,257)"/>
</svg>
