<?xml version="1.0" encoding="UTF-8"?>
<svg version="1.1" xmlns="http://www.w3.org/2000/svg" width="1024" height="1024">
<path d="M0 0 C337.92 0 675.84 0 1024 0 C1024 337.92 1024 675.84 1024 1024 C686.08 1024 348.16 1024 0 1024 C0 686.08 0 348.16 0 0 Z " fill="#000000" transform="translate(0,0)"/>
<path d="M0 0 C1.64422579 0.84794274 3.26231535 1.74832842 4.8515625 2.6953125 C5.7703418 3.23784668 6.68912109 3.78038086 7.63574219 4.33935547 C8.62219727 4.92861816 9.60865234 5.51788086 10.625 6.125 C12.78837397 7.40220864 14.95246545 8.67820254 17.1171875 9.953125 C18.24608398 10.61892578 19.37498047 11.28472656 20.53808594 11.97070312 C26.24504457 15.32480343 31.99875438 18.59764833 37.75 21.875 C38.92760296 22.54682006 40.1051744 23.21869537 41.28271484 23.890625 C44.8544702 25.92826487 48.4271485 27.9642829 52 30 C68.40293596 39.34596283 84.77261245 48.74328311 101.06445312 58.28222656 C106.03978539 61.19360695 111.02011615 64.09641425 116 67 C121.95553814 70.47245361 127.91016559 73.94639956 133.859375 77.4296875 C135.82277334 78.57837002 137.7863153 79.72680708 139.75 80.875 C140.71518555 81.43936768 141.68037109 82.00373535 142.67480469 82.58520508 C148.29730496 85.86468997 153.93667875 89.1126837 159.59375 92.33203125 C160.23242004 92.69570801 160.87109009 93.05938477 161.52911377 93.43408203 C164.65481213 95.21322966 167.7824209 96.98888404 170.91308594 98.75927734 C172.04004883 99.39945801 173.16701172 100.03963867 174.328125 100.69921875 C175.3274707 101.26471436 176.32681641 101.83020996 177.35644531 102.4128418 C178.22881836 102.936604 179.10119141 103.46036621 180 104 C180.70238171 104.35333625 181.40476341 104.7066725 182.12842941 105.0707159 C185.05104703 108.0834581 184.59225695 111.47807172 184.58868408 115.45570374 C184.60339083 116.32917511 184.61809759 117.20264648 184.63325 118.10258669 C184.67744325 121.04122297 184.69277859 123.97929384 184.70800781 126.91821289 C184.73306366 129.02064822 184.75965063 131.12306579 184.78765869 133.22546387 C184.85733279 138.94678777 184.89951569 144.6679779 184.93248081 150.38962102 C184.95307837 153.96456363 184.97738159 157.53946469 185.00252533 161.11437798 C185.07875043 172.30031234 185.1356662 183.48614092 185.16897321 194.67228514 C185.20805117 207.58353854 185.31327648 220.49204642 185.47497678 233.40233237 C185.59566937 243.38125866 185.65485268 253.35939875 185.66809726 263.3390407 C185.67749712 269.29968917 185.71327823 275.25740669 185.81394196 281.2172718 C185.90718723 286.8287715 185.92397048 292.43541892 185.88289642 298.04749298 C185.88091672 300.10269526 185.90615732 302.15813829 185.96112061 304.21260643 C186.34246099 319.31639132 186.34246099 319.31639132 182.44083309 323.78623843 C178.64078083 326.93410768 174.46627308 329.09116823 169.97517633 331.0850848 C167.05311743 332.43860249 164.43904875 334.13373249 161.734375 335.87890625 C159.74009295 337.10759837 157.74529091 338.33544686 155.75 339.5625 C154.65647217 340.23522949 153.56294434 340.90795898 152.4362793 341.60107422 C141.32680638 348.42980278 130.17759098 355.19283385 119.02580261 361.95214844 C111.53153327 366.49517648 104.04736353 371.05478148 96.5625 375.61328125 C92.83462693 377.88364496 89.10537318 380.15171537 85.375 382.41796875 C76.41887962 387.8607359 67.47145789 393.31666107 58.55078125 398.81738281 C56.39860851 400.14334448 54.24496916 401.46692875 52.08984375 402.78808594 C46.79135945 406.03712664 41.50713471 409.30316053 36.2568512 412.62937927 C33.69594927 414.24804576 31.12611187 415.85216156 28.55477905 417.45419312 C27.3177265 418.22984025 26.0847481 419.01202636 24.85610962 419.80093384 C23.1477136 420.89695939 21.42375163 421.96860685 19.69921875 423.0390625 C18.22714966 423.97032959 18.22714966 423.97032959 16.7253418 424.92041016 C14 426 14 426 11.49243164 425.38037109 C10.6699292 424.92484863 9.84742676 424.46932617 9 424 C8.1140918 423.52304687 7.22818359 423.04609375 6.31542969 422.5546875 C5.36055664 422.00039063 4.40568359 421.44609375 3.421875 420.875 C1.81820068 419.9471167 1.81820068 419.9471167 0.18212891 419.00048828 C-1.5167749 418.01024658 -1.5167749 418.01024658 -3.25 417 C-4.4368926 416.31082997 -5.62390536 415.62186684 -6.81103516 414.93310547 C-9.15757644 413.57062483 -11.50277442 412.20587756 -13.84667969 410.83886719 C-16.3987351 409.35062924 -18.9527917 407.86594752 -21.5078125 406.3828125 C-28.45583998 402.33425365 -35.34051665 398.18873027 -42.20344543 393.99746704 C-44.01051802 392.89396063 -45.817699 391.79063228 -47.625 390.6875 C-48.53081314 390.13455261 -48.53081314 390.13455261 -49.45492554 389.57043457 C-58.35525255 384.14393054 -67.34323331 378.91474611 -76.44726562 373.83520508 C-86.93900183 367.96082955 -97.21905498 361.74111773 -107.50244141 355.51123047 C-109.97731296 353.96082531 -109.97731296 353.96082531 -112.62062073 352.73091125 C-115 351 -115 351 -115.60127258 348.62715149 C-115.59016953 347.69227402 -115.57906647 346.75739655 -115.56762695 345.79418945 C-115.5672493 344.73331619 -115.56687164 343.67244293 -115.56648254 342.579422 C-115.5277729 340.86368233 -115.5277729 340.86368233 -115.48828125 339.11328125 C-115.48120651 337.94113571 -115.47413177 336.76899017 -115.46684265 335.56132507 C-115.43881479 331.81107228 -115.37605598 328.06230287 -115.3125 324.3125 C-115.2874282 321.77280799 -115.2646131 319.23309262 -115.24414062 316.69335938 C-115.18896039 310.46173196 -115.10524887 304.23097193 -115 298 C-111.46255395 295.95435472 -107.92452372 293.90972373 -104.38598633 291.8659668 C-103.18628732 291.17287519 -101.98673882 290.479523 -100.78735352 289.78588867 C-99.04744903 288.77972261 -97.30697627 287.77454547 -95.56640625 286.76953125 C-94.52427979 286.16729736 -93.48215332 285.56506348 -92.40844727 284.94458008 C-88.29147914 282.59577619 -84.14338619 280.30188122 -80 278 C-80 295.49 -80 312.98 -80 331 C-78.35 331.66 -76.7 332.32 -75 333 C-72.87966975 334.16571445 -70.77977048 335.36894738 -68.6953125 336.59765625 C-68.09939804 336.94773239 -67.50348358 337.29780853 -66.88951111 337.65849304 C-64.96597046 338.78974386 -63.04544075 339.92599611 -61.125 341.0625 C-59.79498079 341.84626678 -58.46482078 342.62979466 -57.13452148 343.41308594 C-49.63597882 347.83226263 -42.15514174 352.2801383 -34.703125 356.77734375 C-29.92528589 359.65448035 -25.1166468 362.47960312 -20.3125 365.3125 C-9.84254899 371.48788207 0.58663418 377.72975165 11 384 C20.8788255 378.55621059 30.42696446 372.64303693 39.97192383 366.63696289 C45.82792094 362.96000519 51.70845435 359.34819653 57.6875 355.875 C65.61777078 351.26442179 73.41099282 346.44741162 81.19921875 341.6015625 C85.48459712 338.93587243 89.78034403 336.28767953 94.08203125 333.6484375 C94.67866074 333.28221283 95.27529022 332.91598816 95.88999939 332.53866577 C98.26391052 331.08165253 100.63789404 329.62476567 103.01339722 328.17034912 C104.66071591 327.1616531 106.30694621 326.15118026 107.953125 325.140625 C108.90348633 324.55829102 109.85384766 323.97595703 110.83300781 323.37597656 C112.89646191 322.17617102 112.89646191 322.17617102 114 321 C113.33806641 320.6189209 112.67613281 320.2378418 111.99414062 319.84521484 C99.97898219 312.9259555 87.97063936 305.99610222 76 299 C67.72223492 294.16322306 59.43047709 289.35154024 51.125 284.5625 C50.0520166 283.9435083 48.9790332 283.3245166 47.87353516 282.68676758 C42.30040863 279.47336201 36.72315753 276.26735058 31.140625 273.0703125 C30.00737793 272.4198999 28.87413086 271.7694873 27.70654297 271.09936523 C25.58203065 269.88017602 23.45618993 268.66329669 21.32861328 267.44946289 C19.37072728 266.32485241 17.4258651 265.17717826 15.49655151 264.00422668 C13.04599486 262.54588867 10.56683438 261.33499648 7.96337891 260.17398071 C-2.55865153 255.12425048 -2.55865153 255.12425048 -4.95859909 249.92215157 C-6.55111589 243.83999287 -6.39564793 237.59908874 -6.3359375 231.35546875 C-6.36200181 229.33818932 -6.39190499 227.32095621 -6.42544556 225.30378723 C-6.47596049 221.08507485 -6.46599875 216.87174305 -6.41552734 212.65307617 C-6.36941623 208.34217599 -6.41096433 204.04728101 -6.53857422 199.73803711 C-7.55065293 165.40890307 -7.55065293 165.40890307 -1.94650269 156.87179565 C3.06880613 152.15758441 8.75700429 149.86412945 15.2722168 147.88717651 C19.07658669 146.64985398 22.19977344 144.72712023 25.54296875 142.57421875 C27.75766835 141.27839943 29.97251149 139.98282541 32.1875 138.6875 C41.7471678 133.09252254 51.2879469 127.46705795 60.8125 121.8125 C65.20724571 119.20649403 69.60314489 116.60244536 74 114 C74.56984619 113.66256775 75.13969238 113.3251355 75.72680664 112.97747803 C79.66788885 110.64456545 83.61409639 108.32050865 87.5625 106 C88.58641846 105.39389893 89.61033691 104.78779785 90.6652832 104.16333008 C91.60202881 103.61443115 92.53877441 103.06553223 93.50390625 102.5 C94.32705322 102.0153125 95.1502002 101.530625 95.99829102 101.03125 C98 100 98 100 100 100 C100 99.34 100 98.68 100 98 C99.16082031 97.83286499 99.16082031 97.83286499 98.3046875 97.66235352 C95.64481948 96.89792323 93.53509201 95.76465925 91.125 94.40234375 C90.15433594 93.85642578 89.18367188 93.31050781 88.18359375 92.74804688 C87.13300781 92.15056641 86.08242188 91.55308594 85 90.9375 C83.89785156 90.31552734 82.79570313 89.69355469 81.66015625 89.05273438 C72.2393643 83.72770856 62.84826229 78.35026008 53.45825195 72.97119141 C44.71174599 67.96318622 35.93847477 63.00442858 27.12597656 58.11328125 C21.87784726 55.19634094 16.66929215 52.22942555 11.50390625 49.16796875 C10.45372314 48.55268311 9.40354004 47.93739746 8.3215332 47.3034668 C6.32034095 46.12845629 4.32745113 44.93915292 2.34448242 43.73364258 C1.006073 42.95283325 1.006073 42.95283325 -0.359375 42.15625 C-1.13764648 41.69025391 -1.91591797 41.22425781 -2.71777344 40.74414062 C-5.01147517 39.76579778 -5.01147517 39.76579778 -7.42236328 40.65576172 C-10.29094397 42.15172736 -13.09587683 43.70748684 -15.8828125 45.3515625 C-16.44582565 45.68245377 -17.00883881 46.01334503 -17.58891296 46.35426331 C-19.43626957 47.4411633 -21.28063325 48.53303552 -23.125 49.625 C-24.42520853 50.39131331 -25.7255855 51.15734091 -27.02612305 51.9230957 C-31.0205492 54.27677822 -35.0108935 56.63731504 -39 59 C-39.60632263 59.35910461 -40.21264526 59.71820923 -40.83734131 60.0881958 C-45.94633933 63.11471704 -51.05395975 66.1435591 -56.16015625 69.17480469 C-66.5390738 75.33194489 -76.96428175 81.40833289 -87.39306641 87.48046875 C-93.08888825 90.80045331 -98.77129161 94.14298876 -104.44824219 97.49511719 C-107.00455899 99.00268864 -109.5629161 100.50676673 -112.12147522 102.01052856 C-114.6069434 103.47230891 -117.09077668 104.93685227 -119.5743103 106.4019165 C-120.81020492 107.13029938 -122.0467108 107.85764614 -123.28384399 108.58392334 C-125.02293694 109.60518292 -126.759566 110.63063469 -128.49609375 111.65625 C-129.50857178 112.25244141 -130.5210498 112.84863281 -131.56420898 113.46289062 C-134.05922266 114.9121368 -134.05922266 114.9121368 -136 117 C-135.33806641 117.3810791 -134.67613281 117.7621582 -133.99414062 118.15478516 C-118.96156383 126.81170782 -103.95347159 135.50872307 -88.9765625 144.26171875 C-84.95350337 146.61114304 -80.92860643 148.95730913 -76.89697266 151.29199219 C-74.88994826 152.46786397 -72.89453808 153.66379828 -70.91162109 154.87988281 C-65.90061563 157.92313783 -61.14975867 160.40610149 -55.6015625 162.328125 C-43.58353256 166.95044421 -43.58353256 166.95044421 -40 173 C-36.64786952 185.99941823 -38.70572005 200.81192087 -40 214 C-47.48037638 209.97175608 -54.86072126 205.80060753 -62.1875 201.5 C-64.3059648 200.26037431 -66.4244551 199.02079221 -68.54296875 197.78125 C-70.15051025 196.83958984 -70.15051025 196.83958984 -71.79052734 195.87890625 C-76.85671433 192.9130326 -81.92853119 189.95682959 -87 187 C-89.00653402 185.82946754 -91.0130444 184.65889456 -93.01953125 183.48828125 C-96.95393232 181.19316064 -100.88885909 178.89894529 -104.82421875 176.60546875 C-109.77872882 173.71774913 -114.73190028 170.82774578 -119.68408203 167.93603516 C-122.04937123 166.55503505 -124.41493209 165.17450711 -126.78076172 163.79443359 C-130.08249307 161.86815738 -133.38298941 159.9397786 -136.68276978 158.01016235 C-137.96378784 157.26145426 -139.24517243 156.51337289 -140.52694702 155.76596069 C-142.3236727 154.71810477 -144.11901226 153.66791031 -145.9140625 152.6171875 C-146.9448291 152.01503418 -147.9755957 151.41288086 -149.03759766 150.79248047 C-152.08761733 148.9469848 -155.03975229 146.9854909 -158 145 C-157.98026532 145.89746193 -157.96053064 146.79492386 -157.94019794 147.7195816 C-157.46814999 169.61386905 -157.14732251 191.50589633 -156.99222279 213.40480804 C-156.91361036 223.99589767 -156.78492782 234.58184359 -156.53588867 245.17041016 C-156.31879754 254.4061373 -156.19817334 263.63739095 -156.19057769 272.87575102 C-156.18326044 277.76460722 -156.12960124 282.64249539 -155.96009254 287.52864075 C-154.99871808 316.51891214 -154.99871808 316.51891214 -160.22153425 323.67329788 C-166.2841135 330.10056053 -174.49163184 333.71988202 -182.65859509 336.71637726 C-186.58446113 338.2245246 -190.27079591 340.06467723 -194 342 C-194.29667233 312.45372008 -194.52668012 282.90751066 -194.66384928 253.36005366 C-194.68010814 249.87040441 -194.69693436 246.38075812 -194.71411133 242.89111328 C-194.71752136 242.19639852 -194.7209314 241.50168376 -194.72444477 240.78591704 C-194.78098688 229.54233921 -194.88346993 218.29962693 -195.00298635 207.0565623 C-195.12463158 195.51684375 -195.19580599 183.97773361 -195.22315043 172.43738651 C-195.24010368 165.95622432 -195.2799536 159.47702393 -195.37449074 152.99649048 C-195.46276639 146.89572948 -195.48994647 140.79773678 -195.47039986 134.69639778 C-195.47397512 132.45815033 -195.49982327 130.21980995 -195.54967117 127.98211479 C-195.89889265 111.49610393 -195.89889265 111.49610393 -192.73488784 107.33700371 C-189.25749262 104.24727876 -185.32494834 102.66057549 -181 101 C-179.29257363 100.02498015 -177.6000859 99.02231173 -175.9375 97.97265625 C-174.29246117 97.00125743 -172.64660079 96.0312488 -171 95.0625 C-170.08049561 94.52020752 -169.16099121 93.97791504 -168.21362305 93.41918945 C-159.80423128 88.46369228 -151.38027809 83.53299889 -142.95703125 78.60110474 C-134.1219799 73.42750032 -125.30395657 68.22639988 -116.5 63 C-107.22383851 57.49412305 -97.93274339 52.01474508 -88.625 46.5625 C-87.72947418 46.03789185 -87.72947418 46.03789185 -86.81585693 45.50268555 C-81.90500916 42.62621584 -76.99316928 39.75144196 -72.08105469 36.87713623 C-67.59521398 34.25225907 -63.10976118 31.62672124 -58.625 29 C-58.00615936 28.63757202 -57.38731873 28.27514404 -56.74972534 27.9017334 C-50.20972537 24.07039503 -43.67758142 20.22794163 -37.1875 16.3125 C-36.09953125 15.6628125 -35.0115625 15.013125 -33.890625 14.34375 C-31.63513734 12.9939312 -29.39373775 11.62499242 -27.15820312 10.2421875 C-23.92898308 8.24702631 -20.68419312 6.27907255 -17.4375 4.3125 C-15.88228638 3.3376062 -15.88228638 3.3376062 -14.2956543 2.34301758 C-13.30992432 1.75157959 -12.32419434 1.1601416 -11.30859375 0.55078125 C-9.99072876 -0.25879028 -9.99072876 -0.25879028 -8.64624023 -1.0847168 C-5.05572913 -2.32660499 -3.41970278 -1.52820339 0 0 Z " fill="#00A3E4" transform="translate(517,182)"/>
<path d="M0 0 C1.30475564 0.45655189 1.30475564 0.45655189 2.63586998 0.92232704 C5.71341659 2.29453268 7.69432112 3.52212461 10 6 C11.501432 11.53000336 11.26588698 16.96111052 11.13525391 22.65380859 C11.13243185 24.36895583 11.1340191 26.08411515 11.13967896 27.79925537 C11.14254629 32.44857365 11.08379559 37.09530775 11.01393938 41.74402571 C10.95138894 46.60457694 10.94554933 51.46518871 10.9336853 56.32608032 C10.90261423 65.52751977 10.82056882 74.72776988 10.72019041 83.92868578 C10.6083824 94.40487804 10.5534258 104.88112737 10.50323606 115.35776782 C10.39873377 136.90584216 10.22286355 158.45284614 10 180 C6.51140421 178.63099765 3.26603562 177.13260156 -0.0078125 175.3046875 C-0.98049072 174.76199219 -1.95316895 174.21929687 -2.95532227 173.66015625 C-4.00131592 173.07105469 -5.04730957 172.48195313 -6.125 171.875 C-7.22448975 171.25753906 -8.32397949 170.64007813 -9.45678711 170.00390625 C-19.85767765 164.13323039 -30.12774374 158.04850217 -40.38671875 151.93359375 C-46.52853139 148.27352009 -52.69548138 144.65846768 -58.875 141.0625 C-60.82033832 139.92973184 -62.76565035 138.79691853 -64.7109375 137.6640625 C-66.21092285 136.79056152 -66.21092285 136.79056152 -67.74121094 135.89941406 C-73.35419727 132.62783528 -78.96322605 129.34951704 -84.56988525 126.06710815 C-85.83862457 125.32457288 -87.10761944 124.58247407 -88.37689209 123.84085083 C-90.15818093 122.79998797 -91.93856324 121.75759008 -93.71875 120.71484375 C-94.73904297 120.11792725 -95.75933594 119.52101074 -96.81054688 118.90600586 C-97.86306641 118.27702393 -98.91558594 117.64804199 -100 117 C-100.70709106 116.69682358 -101.41418213 116.39364716 -102.1427002 116.08128357 C-104.53708841 114.929986 -106.18183867 113.94669613 -108 112 C-109.11807868 107.96875517 -108.93263945 104.073923 -108.78125 99.91796875 C-108.76427063 98.16399529 -108.76427063 98.16399529 -108.74694824 96.37458801 C-108.70220367 92.64388427 -108.60183043 88.91703967 -108.5 85.1875 C-108.45987117 82.65695659 -108.42336938 80.12635286 -108.390625 77.59570312 C-108.30247416 71.39582122 -108.16865163 65.19818625 -108 59 C-107.43454468 58.67936081 -106.86908936 58.35872162 -106.28649902 58.02836609 C-95.26233178 51.77066736 -84.29668217 45.4564843 -73.5 38.8125 C-62.64285941 32.16767384 -51.70871512 25.66649066 -40.69921875 19.27734375 C-34.67614769 15.77649573 -28.70130267 12.21904696 -22.79296875 8.52734375 C-21.63716186 7.81103953 -20.48115972 7.09505025 -19.32495117 6.37939453 C-17.1580009 5.03234989 -15.00004826 3.67068783 -12.8527832 2.29248047 C-11.89073975 1.69709473 -10.92869629 1.10170898 -9.9375 0.48828125 C-9.10089844 -0.04240967 -8.26429688 -0.57310059 -7.40234375 -1.11987305 C-4.17382381 -2.30267939 -3.09600449 -1.37055412 0 0 Z " fill="#000000" transform="translate(656,303)"/>
<path d="M0 0 C6.6 -0.0825 13.2 -0.165 20 -0.25 C22.06765625 -0.28641602 24.1353125 -0.32283203 26.265625 -0.36035156 C27.92707281 -0.37204745 29.58853219 -0.38223714 31.25 -0.390625 C32.09433594 -0.41108887 32.93867187 -0.43155273 33.80859375 -0.45263672 C40.74388055 -0.45666886 45.88257715 1.37364022 51.20703125 5.859375 C56.70672897 12.33590467 59.61575965 18.14175646 59.2890625 26.76953125 C58.27126646 34.62306556 54.34903042 41.32553361 48.1875 46.25 C41.78756235 51.15881816 34.77557229 51.27630235 27.0625 51.125 C24.071875 51.08375 21.08125 51.0425 18 51 C18 59.25 18 67.5 18 76 C12.06 76 6.12 76 0 76 C0 50.92 0 25.84 0 0 Z " fill="#FCFCFC" transform="translate(599,692)"/>
<path d="M0 0 C7.59 0 15.18 0 23 0 C26.2611792 9.7609869 29.52110194 19.5223909 32.77878571 29.28454494 C34.29134592 33.8169967 35.80446625 38.34925989 37.31884766 42.88110352 C38.77901991 47.25079166 40.23774565 51.62096017 41.69544983 55.99147224 C42.25313829 57.66268333 42.81135664 59.33371768 43.37010193 61.00457573 C44.14981147 63.3364943 44.92767099 65.66902201 45.70507812 68.00170898 C45.93884659 68.6994191 46.17261505 69.39712921 46.41346741 70.11598206 C48 74.88594784 48 74.88594784 48 76 C42.39 76 36.78 76 31 76 C28.84370792 70.6811462 26.81672901 65.45018704 25 60 C12.13 59.505 12.13 59.505 -1 59 C-1.99 63.95 -1.99 63.95 -3 69 C-3.66 71.31 -4.32 73.62 -5 76 C-11.27 76 -17.54 76 -24 76 C-21.66926472 67.13386966 -18.94745671 58.42182702 -16.11328125 49.70703125 C-15.64652289 48.26550831 -15.17998941 46.82391254 -14.71366882 45.38224792 C-13.49774582 41.6251588 -12.27881181 37.86905354 -11.0592041 34.11315918 C-9.81040197 30.26549305 -8.56451077 26.41688464 -7.31835938 22.56835938 C-4.88172127 15.04465785 -2.44162579 7.52208438 0 0 Z " fill="#FCFCFC" transform="translate(748,692)"/>
<path d="M0 0 C6.93 0 13.86 0 21 0 C22.83477385 3.78948424 24.66842994 7.57946789 26.49926758 11.37084961 C27.12231294 12.66022764 27.74600588 13.94929296 28.37036133 15.23803711 C29.26814857 17.09146423 30.16359401 18.94600679 31.05859375 20.80078125 C31.86768188 22.47394409 31.86768188 22.47394409 32.69311523 24.1809082 C34 27 34 27 35 30 C35.63615234 28.63681641 35.63615234 28.63681641 36.28515625 27.24609375 C42.64257812 13.62304688 42.64257812 13.62304688 49 0 C55.6 0 62.2 0 69 0 C67.74813215 3.75560354 66.69929821 6.85074325 64.96875 10.28955078 C64.57494141 11.07701691 64.18113281 11.86448303 63.77539062 12.67581177 C63.35451172 13.50724701 62.93363281 14.33868225 62.5 15.1953125 C62.06365234 16.06517792 61.62730469 16.93504333 61.17773438 17.83126831 C59.7889184 20.5977552 58.39455882 23.36140432 57 26.125 C56.06213047 27.9906997 55.1246266 29.85658327 54.1875 31.72265625 C52.12381944 35.83041203 50.05664481 39.93638708 47.98632812 44.040802 C47.66083984 44.68733734 47.33535156 45.33387268 47 46 C46.6346817 46.68454254 46.2693634 47.36908508 45.89297485 48.07437134 C44.64587294 50.7636466 44.67280421 53.12465675 44.5859375 56.078125 C44.54726563 57.23828125 44.50859375 58.3984375 44.46875 59.59375 C44.42234375 61.40359375 44.42234375 61.40359375 44.375 63.25 C44.33632813 64.47203125 44.29765625 65.6940625 44.2578125 66.953125 C44.16358196 69.96850226 44.08070369 72.9842304 44 76 C38.06 76 32.12 76 26 76 C26.09023438 74.44796875 26.18046875 72.8959375 26.2734375 71.296875 C26.75989683 53.28377964 21.56589691 40.52311302 12.82714844 25.21582031 C10.62273692 21.33600892 8.54878077 17.39764428 6.48999023 13.43920898 C5.27466177 11.10491268 4.03591969 8.78450459 2.79296875 6.46484375 C1 3 1 3 0 0 Z " fill="#FDFDFD" transform="translate(784,692)"/>
<path d="M0 0 C11 0 11 0 13.55078125 2.21875 C14.42283203 3.84296875 14.42283203 3.84296875 15.3125 5.5 C15.65821045 6.11093506 16.0039209 6.72187012 16.36010742 7.35131836 C17.15081224 8.75236804 17.92418305 10.1632871 18.68359375 11.58154297 C20.14699519 14.2700546 21.68980939 16.90165899 23.25 19.53515625 C30.98397707 32.60367874 38.46564924 45.81488616 46 59 C46.33 39.53 46.66 20.06 47 0 C50.3 0 53.6 0 57 0 C57 25.08 57 50.16 57 76 C53.7 76 50.4 76 47 76 C44.51643537 73.44107655 43.25363101 71.73224513 41.625 68.6875 C40.6997693 67.11425942 39.77396749 65.54135461 38.84765625 63.96875 C38.38117676 63.14761719 37.91469727 62.32648437 37.43408203 61.48046875 C35.57365231 58.26256512 33.57462876 55.14547884 31.56323242 52.02050781 C15.60986578 27.21973156 15.60986578 27.21973156 11 18 C10.67 37.14 10.34 56.28 10 76 C6.7 76 3.4 76 0 76 C0 50.92 0 25.84 0 0 Z " fill="#F5F5F5" transform="translate(453,692)"/>
<path d="M0 0 C6.27 0 12.54 0 19 0 C19 20.13 19 40.26 19 61 C29.56 61 40.12 61 51 61 C51 65.95 51 70.9 51 76 C34.17 76 17.34 76 0 76 C0 50.92 0 25.84 0 0 Z " fill="#FBFBFB" transform="translate(666,692)"/>
<path d="M0 0 C9.1946616 5.41379665 12.99585152 12.40827211 16.3125 22.4375 C19.18740899 35.93865486 17.8935325 49.79990499 11 61.875 C6.10303865 68.92365648 -0.31934301 73.41367942 -8.6875 75.4375 C-18.3937561 76.51842398 -25.88590657 75.60409892 -33.8359375 69.89453125 C-42.16959268 63.12537268 -46.78616071 54.43933348 -47.9909668 43.7434082 C-48.12335 40.98819829 -48.15537292 38.25815043 -48.125 35.5 C-48.11742676 34.53433105 -48.10985352 33.56866211 -48.10205078 32.57373047 C-47.85778836 22.02052431 -45.28662542 13.08683991 -37.6875 5.4375 C-26.72940281 -3.25540749 -13.01788322 -6.11742633 0 0 Z M-33.4375 15.57421875 C-39.46931536 24.56539352 -40.05074049 35.92965349 -38.15625 46.36328125 C-36.14933194 53.5511019 -33.04634588 59.24644249 -26.6875 63.4375 C-20.25348887 66.60021011 -14.48615721 67.54724834 -7.5625 65.1875 C-0.70753972 62.29494451 2.08556558 58.54771066 5.296875 51.97265625 C8.95498504 42.8414508 9.18282039 28.3551786 5.34765625 19.2578125 C1.81613524 13.04766612 -2.70664244 8.46807647 -9.6875 6.4375 C-19.74932961 5.01268617 -27.14168421 7.58469165 -33.4375 15.57421875 Z " fill="#FBFBFB" transform="translate(570.6875,693.5625)"/>
<path d="M0 0 C2.97 0 5.94 0 9 0 C9 10.89 9 21.78 9 33 C21.21 33 33.42 33 46 33 C46 22.11 46 11.22 46 0 C49.3 0 52.6 0 56 0 C56 25.08 56 50.16 56 76 C52.7 76 49.4 76 46 76 C46 64.78 46 53.56 46 42 C33.79 42 21.58 42 9 42 C9 53.22 9 64.44 9 76 C6.03 76 3.06 76 0 76 C0 50.92 0 25.84 0 0 Z " fill="#FDFDFD" transform="translate(382,692)"/>
<path d="M0 0 C16.17 0 32.34 0 49 0 C49 2.97 49 5.94 49 9 C35.8 9 22.6 9 9 9 C9 16.92 9 24.84 9 33 C20.88 33 32.76 33 45 33 C45 35.97 45 38.94 45 42 C33.12 42 21.24 42 9 42 C9 50.25 9 58.5 9 67 C22.2 67 35.4 67 49 67 C49 69.97 49 72.94 49 76 C32.83 76 16.66 76 0 76 C0 50.92 0 25.84 0 0 Z " fill="#FCFCFC" transform="translate(246,692)"/>
<path d="M0 0 C0.495 1.485 0.495 1.485 1 3 C-1.97 3.99 -4.94 4.98 -8 6 C-8 6.66 -8 7.32 -8 8 C-8.66 8 -9.32 8 -10 8 C-10 8.66 -10 9.32 -10 10 C-13.2491277 12.3208055 -16.05879291 13.43697042 -20 14 C-20 14.66 -20 15.32 -20 16 C-20.7425 16.2475 -21.485 16.495 -22.25 16.75 C-25.04594436 17.79975436 -25.04594436 17.79975436 -26.6875 19.875 C-29.07552014 22.06939689 -30.55866952 22.67923393 -33.5625 23.75 C-38.90297473 25.7270784 -42.94724559 28.73142722 -47.4453125 32.171875 C-49.65044333 33.74985853 -51.55485285 34.83441356 -54.0625 35.8125 C-57.2642007 36.78583559 -57.2642007 36.78583559 -59 40 C-59.721875 40.12375 -60.44375 40.2475 -61.1875 40.375 C-64.65619526 41.14582117 -66.61011716 42.7519714 -69.3515625 44.94140625 C-71 46 -71 46 -74 46 C-74.495 46.99 -74.495 46.99 -75 48 C-76.7325 48.680625 -76.7325 48.680625 -78.5 49.375 C-82.10642443 50.57589733 -82.10642443 50.57589733 -82.9375 53.1875 C-82.958125 53.785625 -82.97875 54.38375 -83 55 C-84.0725 55.268125 -85.145 55.53625 -86.25 55.8125 C-89.64762895 56.88841583 -91.292862 57.85295952 -94 60 C-95.33333333 60.33333333 -96.66666667 60.66666667 -98 61 C-99.34990354 61.97751635 -100.68036291 62.98199424 -102 64 C-103.7326025 64.99464218 -105.46594465 65.98819681 -107.2109375 66.9609375 C-108.85557386 67.91611932 -110.43275955 68.98502219 -112 70.0625 C-114.30998783 71.55436714 -116.24704146 72.59589101 -118.75 73.625 C-122.01826344 74.76779337 -122.01826344 74.76779337 -124 77 C-125.08244779 81.09845888 -125.08244779 81.09845888 -124 85 C-123.9603287 86.66619446 -123.95615553 88.33391013 -124 90 C-124.66 90 -125.32 90 -126 90 C-125.649375 90.721875 -125.29875 91.44375 -124.9375 92.1875 C-123.84667684 95.45996948 -124.31555965 96.67155721 -125 100 C-125.11552871 102.3938623 -125.17487294 104.79088485 -125.1875 107.1875 C-125.20167969 108.41855469 -125.21585937 109.64960938 -125.23046875 110.91796875 C-125.32908234 114.10585705 -125.32908234 114.10585705 -123 116 C-123.99 116.99 -123.99 116.99 -125 118 C-124.67 118.66 -124.34 119.32 -124 120 C-123.95653201 121.99952758 -123.960008 124.00039988 -124 126 C-124 128.57164128 -123.98917996 131.14331762 -123.96484375 133.71484375 C-123.95559224 135.12239494 -123.94648165 136.52994706 -123.9375 137.9375 C-123.92912109 138.64068359 -123.92074219 139.34386719 -123.91210938 140.06835938 C-123.89841505 142.99072749 -123.94617303 145.73601036 -124.53125 148.60546875 C-125.12773303 151.65250288 -124.84901698 154.28344646 -124.5625 157.375 C-124.03140148 164.34135719 -123.88318299 171.26391284 -123.875 178.25 C-123.87056885 179.26239746 -123.8661377 180.27479492 -123.86157227 181.31787109 C-123.86342529 182.27000488 -123.86527832 183.22213867 -123.8671875 184.203125 C-123.86831543 185.05551758 -123.86944336 185.90791016 -123.87060547 186.78613281 C-124 189 -124 189 -125 192 C-124.747148 193.95960302 -124.49221605 195.9201115 -124.15625 197.8671875 C-124 200 -124 200 -124.4609375 202.2265625 C-125.19444487 206.00040475 -125.1448681 209.66545669 -125.125 213.5 C-125.12886719 214.24636719 -125.13273437 214.99273437 -125.13671875 215.76171875 C-125.12981422 219.66277771 -124.83747629 223.17457862 -124 227 C-124.3062434 228.33981486 -124.63451555 229.67511887 -125 231 C-124.67 231.66 -124.34 232.32 -124 233 C-124.165 233.886875 -124.33 234.77375 -124.5 235.6875 C-125.16693648 238.970225 -125.16693648 238.970225 -124.5 242.125 C-124.07577063 245.4127776 -124.0972996 247.6334523 -124.45703125 250.859375 C-125.24515195 259.61641929 -125.18603607 268.38157574 -125.18530273 277.16699219 C-125.1875209 280.15313331 -125.20582441 283.13892244 -125.22460938 286.125 C-125.22753823 288.02343625 -125.22952642 289.92187423 -125.23046875 291.8203125 C-125.23765427 292.71291779 -125.24483978 293.60552307 -125.25224304 294.525177 C-125.47038726 299.24646989 -125.47038726 299.24646989 -123 303 C-122.67 302.01 -122.34 301.02 -122 300 C-121.01 299.67 -120.02 299.34 -119 299 C-116.56281136 298.06261975 -114.23122119 297.12612065 -111.9375 295.875 C-110 295 -110 295 -106 295 C-105.67 294.01 -105.34 293.02 -105 292 C-103.52005257 291.34825392 -102.01571046 290.75109487 -100.5 290.1875 C-97.96915378 288.97793766 -97.96915378 288.97793766 -96 287 C-94.69530405 282.34928956 -94.8899013 277.80126084 -95 273 C-94.98401398 271.64184078 -94.96185074 270.28374059 -94.93359375 268.92578125 C-94.69486135 262.22715312 -94.69486135 262.22715312 -95.5703125 255.62890625 C-96 253 -96 253 -95.53196716 249.16636658 C-94.80396025 243.01547347 -94.88398019 236.89536959 -94.91821289 230.70922852 C-94.92291962 228.70611766 -94.92762422 226.70300679 -94.932248 224.69989574 C-94.93810462 222.56435499 -94.94642567 220.42883614 -94.95540047 218.29330635 C-94.97379014 213.83518811 -94.98331627 209.37707746 -94.99131775 204.91893005 C-95.01540179 192.24840901 -95.05149707 179.57793599 -95.09594727 166.9074707 C-95.12046726 159.89583991 -95.13784308 152.88422733 -95.14750665 145.87255996 C-95.15405532 141.43820288 -95.16962299 137.00399675 -95.19182408 132.56969178 C-95.20626648 129.1748015 -95.20773046 125.7799286 -95.21118164 122.38500977 C-95.22432404 120.53750626 -95.22432404 120.53750626 -95.23773193 118.65267944 C-95.23642776 117.53543991 -95.2351236 116.41820038 -95.23377991 115.2671051 C-95.23692231 114.29247598 -95.24006472 113.31784685 -95.24330235 112.31368351 C-95 110 -95 110 -93 108 C-90.875 108.375 -90.875 108.375 -89 109 C-89 109.66 -89 110.32 -89 111 C-87.7625 111.0825 -86.525 111.165 -85.25 111.25 C-82.10083039 111.63527075 -81.09925054 111.92308083 -78.5 113.9375 C-77 116 -77 116 -77 118 C-75.35 118.33 -73.7 118.66 -72 119 C-72 119.66 -72 120.32 -72 121 C-70.35 121 -68.7 121 -67 121 C-67 121.66 -67 122.32 -67 123 C-65.02 123 -63.04 123 -61 123 C-60.71125 123.61875 -60.4225 124.2375 -60.125 124.875 C-59.06279958 127.13325765 -59.06279958 127.13325765 -57 129 C-54.89179203 128.6814823 -54.89179203 128.6814823 -53 128 C-53 128.66 -53 129.32 -53 130 C-52.44570313 130.26554688 -51.89140625 130.53109375 -51.3203125 130.8046875 C-50.59585938 131.15789062 -49.87140625 131.51109375 -49.125 131.875 C-48.40570313 132.22304688 -47.68640625 132.57109375 -46.9453125 132.9296875 C-45 134 -45 134 -43 136 C-42.319375 136.165 -41.63875 136.33 -40.9375 136.5 C-40.298125 136.665 -39.65875 136.83 -39 137 C-38.67 137.66 -38.34 138.32 -38 139 C-37.38125 139.309375 -36.7625 139.61875 -36.125 139.9375 C-33.90109984 141.04945008 -32.74367991 142.25632009 -31 144 C-29.35394174 145.03357147 -27.69036558 146.04060332 -26 147 C-25.34 146.34 -24.68 145.68 -24 145 C-23.773125 145.61875 -23.54625 146.2375 -23.3125 146.875 C-20.61538821 151.24175242 -14.69431518 151.71136446 -10 153 C-10.66 153.33 -11.32 153.66 -12 154 C-12 154.66 -12 155.32 -12 156 C-10.35 156.33 -8.7 156.66 -7 157 C-6.67 157.99 -6.34 158.98 -6 160 C-9.76723044 158.58825289 -13.17394666 156.86458812 -16.6640625 154.8671875 C-17.77225342 154.23417725 -18.88044434 153.60116699 -20.0222168 152.94897461 C-21.22328799 152.25789901 -22.42421179 151.56656718 -23.625 150.875 C-24.87864989 150.15565905 -26.13231221 149.43633974 -27.38598633 148.71704102 C-44.70239666 138.76409888 -61.83496174 128.50198242 -78.96020508 118.22485352 C-80.13107231 117.52225464 -81.30194275 116.81966112 -82.47281647 116.11707306 C-85.31524243 114.41143444 -88.15763605 112.70574195 -91 111 C-90.98026532 111.89746193 -90.96053064 112.79492386 -90.94019794 113.7195816 C-90.46814999 135.61386905 -90.14732251 157.50589633 -89.99222279 179.40480804 C-89.91361036 189.99589767 -89.78492782 200.58184359 -89.53588867 211.17041016 C-89.31879754 220.4061373 -89.19817334 229.63739095 -89.19057769 238.87575102 C-89.18326044 243.76460722 -89.12960124 248.64249539 -88.96009254 253.52864075 C-87.99871808 282.51891214 -87.99871808 282.51891214 -93.22153425 289.67329788 C-99.2841135 296.10056053 -107.49163184 299.71988202 -115.65859509 302.71637726 C-119.58446113 304.2245246 -123.27079591 306.06467723 -127 308 C-127.29667233 278.45372008 -127.52668012 248.90751066 -127.66384928 219.36005366 C-127.68010814 215.87040441 -127.69693436 212.38075812 -127.71411133 208.89111328 C-127.71752136 208.19639852 -127.7209314 207.50168376 -127.72444477 206.78591704 C-127.78098688 195.54233921 -127.88346993 184.29962693 -128.00298635 173.0565623 C-128.12463158 161.51684375 -128.19580599 149.97773361 -128.22315043 138.43738651 C-128.24010368 131.95622432 -128.2799536 125.47702393 -128.37449074 118.99649048 C-128.46276639 112.89572948 -128.48994647 106.79773678 -128.47039986 100.69639778 C-128.47397512 98.45815033 -128.49982327 96.21980995 -128.54967117 93.98211479 C-128.89889265 77.49610393 -128.89889265 77.49610393 -125.73488784 73.33700371 C-122.25749262 70.24727876 -118.32494834 68.66057549 -114 67 C-112.29257363 66.02498015 -110.6000859 65.02231173 -108.9375 63.97265625 C-107.29246117 63.00125743 -105.64660079 62.0312488 -104 61.0625 C-103.08049561 60.52020752 -102.16099121 59.97791504 -101.21362305 59.41918945 C-92.80423128 54.46369228 -84.38027809 49.53299889 -75.95703125 44.60110474 C-67.12198006 39.42750042 -58.30393943 34.22642864 -49.5 29 C-39.76621223 23.22212064 -30.0154009 17.47424641 -20.25 11.75 C-19.6314917 11.38729004 -19.0129834 11.02458008 -18.37573242 10.65087891 C-12.26795435 7.06980854 -6.15848354 3.49340879 0 0 Z " fill="#05F7CF" transform="translate(450,216)"/>
<path d="M0 0 C7.21174903 3.37149267 12.18598726 7.49775351 15.8125 14.5859375 C16.4375 16.8984375 16.4375 16.8984375 16.4375 20.8984375 C13.1375 20.8984375 9.8375 20.8984375 6.4375 20.8984375 C5.90125 19.6609375 5.365 18.4234375 4.8125 17.1484375 C2.75712965 13.03040826 0.57830695 11.05510779 -3.5625 8.8984375 C-10.07788498 6.95964885 -15.6949507 7.17392018 -21.875 10.0859375 C-25.71433236 12.21626257 -28.29001988 14.05270191 -30.5625 17.8984375 C-30.93117188 18.44242188 -31.29984375 18.98640625 -31.6796875 19.546875 C-36.63950824 28.20090704 -35.71014331 40.10498678 -33.83203125 49.5859375 C-31.92535654 55.81181409 -29.67116052 61.59228611 -23.74609375 64.91796875 C-16.65417829 67.95736109 -9.83325375 67.59773124 -2.6796875 65.0234375 C1.49845915 62.80331529 4.34461182 59.08421385 6.4375 54.8984375 C9.7375 54.8984375 13.0375 54.8984375 16.4375 54.8984375 C16.13652791 60.91787938 13.47911813 64.6627542 9.4375 68.8984375 C0.60310598 76.17759337 -8.26152731 77.97597211 -19.5625 76.8984375 C-28.13629409 74.80884447 -33.9159484 71.72235814 -38.6875 64.2109375 C-45.49135125 52.33480639 -47.44883349 38.79360406 -44.87890625 25.3125 C-41.95021911 14.88588771 -36.93732565 7.48379057 -27.5625 1.8984375 C-18.96055989 -2.43362391 -9.19842247 -2.84424905 0 0 Z " fill="#FAFAFA" transform="translate(351.5625,692.1015625)"/>
<path d="M0 0 C18.48 0 36.96 0 56 0 C56 2.97 56 5.94 56 9 C48.41 9 40.82 9 33 9 C33 31.11 33 53.22 33 76 C29.7 76 26.4 76 23 76 C23 53.89 23 31.78 23 9 C15.41 9 7.82 9 0 9 C0 6.03 0 3.06 0 0 Z " fill="#F3F3F3" transform="translate(178,692)"/>
<path d="M0 0 C1.65 0.33 3.3 0.66 5 1 C5 1.66 5 2.32 5 3 C6.2375 3.0825 7.475 3.165 8.75 3.25 C11.89916961 3.63527075 12.90074946 3.92308083 15.5 5.9375 C17 8 17 8 17 10 C19.475 10.495 19.475 10.495 22 11 C22 11.66 22 12.32 22 13 C23.65 13 25.3 13 27 13 C27 13.66 27 14.32 27 15 C28.98 15 30.96 15 33 15 C33.28875 15.61875 33.5775 16.2375 33.875 16.875 C34.93720042 19.13325765 34.93720042 19.13325765 37 21 C39.10820797 20.6814823 39.10820797 20.6814823 41 20 C41 20.66 41 21.32 41 22 C41.55429687 22.26554687 42.10859375 22.53109375 42.6796875 22.8046875 C43.40414062 23.15789062 44.12859375 23.51109375 44.875 23.875 C45.59429687 24.22304688 46.31359375 24.57109375 47.0546875 24.9296875 C49 26 49 26 51 28 C51.680625 28.165 52.36125 28.33 53.0625 28.5 C53.701875 28.665 54.34125 28.83 55 29 C55.495 29.99 55.495 29.99 56 31 C56.928125 31.4640625 56.928125 31.4640625 57.875 31.9375 C60.09890016 33.04945008 61.25632009 34.25632009 63 36 C64.64605826 37.03357147 66.30963442 38.04060332 68 39 C68.99 38.01 68.99 38.01 70 37 C70.226875 37.61875 70.45375 38.2375 70.6875 38.875 C73.38461179 43.24175242 79.30568482 43.71136446 84 45 C83.01 45.495 83.01 45.495 82 46 C82 46.66 82 47.32 82 48 C83.65 48.33 85.3 48.66 87 49 C87.33 49.99 87.66 50.98 88 52 C84.23276956 50.58825289 80.82605334 48.86458812 77.3359375 46.8671875 C76.22774658 46.23417725 75.11955566 45.60116699 73.9777832 44.94897461 C72.77671201 44.25789901 71.57578821 43.56656718 70.375 42.875 C69.12135011 42.15565905 67.86768779 41.43633974 66.61401367 40.71704102 C45.23942216 28.43158067 24.13990564 15.68394339 3 3 C2.67 61.41 2.34 119.82 2 180 C1.34 180 0.68 180 0 180 C-0.02505615 179.29504395 -0.0501123 178.59008789 -0.07592773 177.86376953 C-0.19318042 174.61738553 -0.3153115 171.37120183 -0.4375 168.125 C-0.47681641 167.01640625 -0.51613281 165.9078125 -0.55664062 164.765625 C-0.77709623 158.99986301 -1.09352887 153.32136924 -1.89868164 147.60498047 C-2 145 -2 145 -1.51243591 141.16786194 C-0.80733827 135.01785065 -0.87610633 128.89235971 -0.90234375 122.70922852 C-0.90458505 120.70611759 -0.9068261 118.70300667 -0.90905762 116.69989574 C-0.91241139 114.56435675 -0.91825885 112.42883772 -0.92483521 110.29330635 C-0.93842647 105.83518329 -0.9442654 101.37707012 -0.94897461 96.91893005 C-0.96003719 87.46677321 -0.97960535 78.01464061 -1 68.5625 C-1.02203198 58.33252313 -1.04258012 48.10255577 -1.05341816 37.87255996 C-1.05840595 33.4382493 -1.06827196 29.0039841 -1.08184814 24.56969178 C-1.08749904 22.48066863 -1.09088302 20.39165684 -1.0932312 18.30262756 C-1.09611148 15.7526377 -1.10261575 13.2026485 -1.11331177 10.65267944 C-1.11338226 9.53543991 -1.11345276 8.41820038 -1.11352539 7.2671051 C-1.11685631 5.80516141 -1.11685631 5.80516141 -1.12025452 4.31368351 C-1 2 -1 2 0 0 Z " fill="#00CDA6" transform="translate(356,324)"/>
<path d="M0 0 C2.536875 -0.061875 5.07375 -0.12375 7.6875 -0.1875 C8.47729248 -0.21481201 9.26708496 -0.24212402 10.08081055 -0.27026367 C14.61476924 -0.32357739 17.43712454 0.16424198 21 3 C23.19450262 6.29175393 23.32224321 7.5237543 23.375 11.375 C23.40335938 12.31085937 23.43171875 13.24671875 23.4609375 14.2109375 C22.83071959 18.02428992 21.97882287 19.5026485 19 22 C15.72252119 22.60680006 12.56843683 22.47058742 9.25 22.3125 C6.1975 22.209375 3.145 22.10625 0 22 C0 14.74 0 7.48 0 0 Z " fill="#080808" transform="translate(617,706)"/>
<path d="M0 0 C2.36306558 1.1841182 4.61452327 2.38166584 6.78515625 3.89453125 C6.78515625 4.55453125 6.78515625 5.21453125 6.78515625 5.89453125 C7.77515625 5.56453125 8.76515625 5.23453125 9.78515625 4.89453125 C9.78515625 5.55453125 9.78515625 6.21453125 9.78515625 6.89453125 C10.44515625 7.22453125 11.10515625 7.55453125 11.78515625 7.89453125 C11.78515625 55.22786458 11.78515625 102.56119792 11.78515625 149.89453125 C11.79301147 151.40273438 11.79301147 151.40273438 11.80102539 152.94140625 C11.81809492 156.21875647 11.83055176 159.49606013 11.84008789 162.7734375 C11.84513349 164.18750752 11.85196946 165.60157229 11.8605957 167.015625 C11.87272234 169.05860669 11.87839591 171.10152015 11.8828125 173.14453125 C11.89066772 174.97757812 11.89066772 174.97757812 11.89868164 176.84765625 C11.78515625 179.89453125 11.78515625 179.89453125 10.78515625 182.89453125 C9.79515625 182.56453125 8.80515625 182.23453125 7.78515625 181.89453125 C7.79621777 181.00423438 7.80727928 180.11393751 7.81867599 179.19666195 C8.08372692 157.5303975 8.28228109 135.86441254 8.40690231 114.19686794 C8.46877135 103.71846219 8.55311058 93.24113874 8.69042969 82.76342773 C8.81006625 73.63057282 8.88746064 64.49850164 8.91421819 55.36488491 C8.9298599 50.52851369 8.96658738 45.6943844 9.05391693 40.85873222 C9.13548688 36.30503387 9.16047741 31.75449572 9.14244843 27.20013618 C9.14574523 25.53067961 9.16956188 23.86111558 9.21562195 22.19229126 C9.34723456 17.17701963 9.3129853 12.70364874 7.78515625 7.89453125 C3.70769092 3.82915962 -0.95430899 1.12422649 -6.77495193 0.71417904 C-9.17232825 0.91738996 -9.17232825 0.91738996 -12.21484375 1.89453125 C-7.60181185 -1.76408025 -5.52506573 -2.5689796 0 0 Z " fill="#0270E8" transform="translate(657.21484375,301.10546875)"/>
<path d="M0 0 C0.495 1.485 0.495 1.485 1 3 C-1.97 3.99 -4.94 4.98 -8 6 C-8 6.66 -8 7.32 -8 8 C-8.66 8 -9.32 8 -10 8 C-10 8.66 -10 9.32 -10 10 C-13.2491277 12.3208055 -16.05879291 13.43697042 -20 14 C-20 14.66 -20 15.32 -20 16 C-20.7425 16.2475 -21.485 16.495 -22.25 16.75 C-25.04594436 17.79975436 -25.04594436 17.79975436 -26.6875 19.875 C-29.07552014 22.06939689 -30.55866952 22.67923393 -33.5625 23.75 C-38.90297473 25.7270784 -42.94724559 28.73142722 -47.4453125 32.171875 C-49.65044333 33.74985853 -51.55485285 34.83441356 -54.0625 35.8125 C-57.2642007 36.78583559 -57.2642007 36.78583559 -59 40 C-59.721875 40.12375 -60.44375 40.2475 -61.1875 40.375 C-64.65619526 41.14582117 -66.61011716 42.7519714 -69.3515625 44.94140625 C-71 46 -71 46 -74 46 C-74.495 46.99 -74.495 46.99 -75 48 C-76.7325 48.680625 -76.7325 48.680625 -78.5 49.375 C-82.10642443 50.57589733 -82.10642443 50.57589733 -82.9375 53.1875 C-82.958125 53.785625 -82.97875 54.38375 -83 55 C-84.0725 55.268125 -85.145 55.53625 -86.25 55.8125 C-89.64762895 56.88841583 -91.292862 57.85295952 -94 60 C-95.33333333 60.33333333 -96.66666667 60.66666667 -98 61 C-99.34990354 61.97751635 -100.68036291 62.98199424 -102 64 C-103.7326025 64.99464218 -105.46594465 65.98819681 -107.2109375 66.9609375 C-108.85557386 67.91611932 -110.43275955 68.98502219 -112 70.0625 C-114.30998783 71.55436714 -116.24704146 72.59589101 -118.75 73.625 C-122.01826344 74.76779337 -122.01826344 74.76779337 -124 77 C-124.39764263 78.98821313 -124.73775349 80.98944339 -125 83 C-125.33 83 -125.66 83 -126 83 C-126.8724079 79.73591777 -127.02052848 77.24506545 -126 74 C-122.19798558 70.53941086 -117.70612879 68.31640534 -113.1875 65.9375 C-111.85864651 65.20484281 -110.53184454 64.4684534 -109.20703125 63.72851562 C-106.47784595 62.20742139 -103.74094064 60.70186802 -100.99755859 59.20654297 C-95.07305186 55.95921324 -89.29355916 52.47458088 -83.5 49 C-81.27820368 47.67954159 -79.05553913 46.36054303 -76.83203125 45.04296875 C-75.71908691 44.38345215 -74.60614258 43.72393555 -73.45947266 43.04443359 C-66.15630936 38.72416086 -58.82933271 34.44426296 -51.50634766 30.15771484 C-44.11806776 25.83223808 -36.74117198 21.48804538 -29.375 17.125 C-19.6220051 11.34938286 -9.82103942 5.6590054 0 0 Z " fill="#03E9D7" transform="translate(450,216)"/>
<path d="M0 0 C1.65 0.33 3.3 0.66 5 1 C5 1.66 5 2.32 5 3 C6.2375 3.0825 7.475 3.165 8.75 3.25 C11.89916961 3.63527075 12.90074946 3.92308083 15.5 5.9375 C17 8 17 8 17 10 C19.475 10.495 19.475 10.495 22 11 C22 11.66 22 12.32 22 13 C23.65 13 25.3 13 27 13 C27 13.66 27 14.32 27 15 C28.98 15 30.96 15 33 15 C33.28875 15.61875 33.5775 16.2375 33.875 16.875 C34.93720042 19.13325765 34.93720042 19.13325765 37 21 C39.10820797 20.6814823 39.10820797 20.6814823 41 20 C41 20.66 41 21.32 41 22 C41.55429687 22.26554687 42.10859375 22.53109375 42.6796875 22.8046875 C43.40414062 23.15789062 44.12859375 23.51109375 44.875 23.875 C45.59429687 24.22304688 46.31359375 24.57109375 47.0546875 24.9296875 C49 26 49 26 51 28 C51.680625 28.165 52.36125 28.33 53.0625 28.5 C53.701875 28.665 54.34125 28.83 55 29 C55.495 29.99 55.495 29.99 56 31 C56.928125 31.4640625 56.928125 31.4640625 57.875 31.9375 C60.09890016 33.04945008 61.25632009 34.25632009 63 36 C64.64605826 37.03357147 66.30963442 38.04060332 68 39 C68.99 38.01 68.99 38.01 70 37 C70.226875 37.61875 70.45375 38.2375 70.6875 38.875 C73.38461179 43.24175242 79.30568482 43.71136446 84 45 C83.01 45.495 83.01 45.495 82 46 C82 46.66 82 47.32 82 48 C83.65 48.33 85.3 48.66 87 49 C87.33 49.99 87.66 50.98 88 52 C84.23276956 50.58825289 80.82605334 48.86458812 77.3359375 46.8671875 C76.22790771 46.23425781 75.11987793 45.60132813 73.97827148 44.94921875 C72.77704418 44.25805021 71.57595749 43.56663726 70.375 42.875 C69.11988878 42.15492049 67.86476156 41.43486888 66.60961914 40.71484375 C54.83193822 33.94627439 43.14641236 27.02459282 31.47753906 20.0703125 C26.59540705 17.16201597 21.70541533 14.26698339 16.81591797 11.37109375 C11.54338371 8.24834386 6.27178231 5.12401915 1 2 C1 20.81 1 39.62 1 59 C0.67 59 0.34 59 0 59 C-0.88234336 52.19316344 -1.14673674 45.55103392 -1.1328125 38.69140625 C-1.13376923 37.64347397 -1.13472595 36.59554169 -1.13571167 35.51585388 C-1.13638812 33.31826721 -1.13457143 31.12067847 -1.13037109 28.9230957 C-1.1249773 25.54829495 -1.13035352 22.17362499 -1.13671875 18.79882812 C-1.13605861 16.65885387 -1.13477879 14.5188797 -1.1328125 12.37890625 C-1.13483673 11.3675209 -1.13686096 10.35613556 -1.13894653 9.31410217 C-1.13579437 8.38230637 -1.13264221 7.45051056 -1.12939453 6.49047852 C-1.12859894 5.66935074 -1.12780334 4.84822296 -1.12698364 4.00221252 C-1 2 -1 2 0 0 Z " fill="#00F7D6" transform="translate(356,324)"/>
<path d="M0 0 C1.2065625 0.0309375 1.2065625 0.0309375 2.4375 0.0625 C-1.13188801 4.2045171 -5.44009036 6.4005451 -10.1875 8.9375 C-11.80278927 9.81641217 -13.41737732 10.69661436 -15.03125 11.578125 C-15.80855469 12.00158203 -16.58585937 12.42503906 -17.38671875 12.86132812 C-21.51716774 15.14160293 -25.54978545 17.58227945 -29.5625 20.0625 C-26.28152718 22.78785098 -23.00393068 25.09469711 -19.30078125 27.20703125 C-18.27686279 27.79411865 -17.25294434 28.38120605 -16.19799805 28.98608398 C-15.10140869 29.60942627 -14.00481934 30.23276855 -12.875 30.875 C-11.13193491 31.87348105 -9.3888731 32.87196789 -7.64601135 33.87080383 C-5.83413219 34.90841938 -4.02121077 35.9441919 -2.20800781 36.97949219 C3.61849678 40.30720077 9.43548514 43.65138864 15.25 47 C16.33547119 47.62503418 17.42094238 48.25006836 18.53930664 48.89404297 C25.92059606 53.15640541 33.23716793 57.50034628 40.4375 62.0625 C38.9525 62.5575 38.9525 62.5575 37.4375 63.0625 C35.76010138 62.08060813 34.09282623 61.08116229 32.4375 60.0625 C31.4475 60.5575 31.4475 60.5575 30.4375 61.0625 C30.1075 60.0725 29.7775 59.0825 29.4375 58.0625 C27.49146726 57.47179986 27.49146726 57.47179986 25.4375 57.0625 C24.7775 56.4025 24.1175 55.7425 23.4375 55.0625 C22.9425 56.0525 22.9425 56.0525 22.4375 57.0625 C21.963125 56.299375 21.48875 55.53625 21 54.75 C18.00560269 51.60953452 15.74439599 50.879322 11.65625 49.73828125 C9.40028741 49.05116588 7.46371784 48.27008965 5.4375 47.0625 C5.10416667 45.72916667 4.77083333 44.39583333 4.4375 43.0625 C1.1834557 40.8097001 -2.78828924 40.11089188 -6.5625 39.0625 C-8.5625 38.0625 -8.5625 38.0625 -10.5625 35.0625 C-12.62175139 34.33867533 -12.62175139 34.33867533 -14.5625 34.0625 C-14.5625 33.4025 -14.5625 32.7425 -14.5625 32.0625 C-17.44269276 30.59597983 -20.35558515 29.24202126 -23.3125 27.9375 C-24.11171875 27.58429688 -24.9109375 27.23109375 -25.734375 26.8671875 C-26.33765625 26.60164063 -26.9409375 26.33609375 -27.5625 26.0625 C-27.5625 25.4025 -27.5625 24.7425 -27.5625 24.0625 C-28.5525 24.3925 -29.5425 24.7225 -30.5625 25.0625 C-33.5625 20.3125 -33.5625 20.3125 -33.5625 18.0625 C-32.53125 17.670625 -31.5 17.27875 -30.4375 16.875 C-27.62429638 15.6985694 -25.61757951 14.37154359 -23.375 12.3125 C-20.5625 10.0625 -20.5625 10.0625 -18.1875 10.25 C-17.65125 10.518125 -17.115 10.78625 -16.5625 11.0625 C-16.2325 10.0725 -15.9025 9.0825 -15.5625 8.0625 C-14.5725 8.0625 -13.5825 8.0625 -12.5625 8.0625 C-12.5625 6.7425 -12.5625 5.4225 -12.5625 4.0625 C-11.60537109 3.75505859 -11.60537109 3.75505859 -10.62890625 3.44140625 C-9.80261719 3.17199219 -8.97632813 2.90257812 -8.125 2.625 C-7.30128906 2.35816406 -6.47757812 2.09132813 -5.62890625 1.81640625 C-0.69684453 0.01699621 -0.69684453 0.01699621 0 0 Z " fill="#04E2DE" transform="translate(410.5625,277.9375)"/>
<path d="M0 0 C2.27629118 2.27629118 2.85710124 3.92615211 3.9453125 6.9375 C4.29980469 7.91460938 4.65429688 8.89171875 5.01953125 9.8984375 C5.38433594 10.92195312 5.74914062 11.94546875 6.125 13 C6.68380859 14.53527344 6.68380859 14.53527344 7.25390625 16.1015625 C10 23.72624771 10 23.72624771 10 26 C3.73 26 -2.54 26 -9 26 C-7.68930985 22.0410589 -6.37653568 18.08283055 -5.0625 14.125 C-4.50272461 12.43310547 -4.50272461 12.43310547 -3.93164062 10.70703125 C-3.57392578 9.63066406 -3.21621094 8.55429687 -2.84765625 7.4453125 C-2.51773682 6.45031738 -2.18781738 5.45532227 -1.84790039 4.43017578 C-1 2 -1 2 0 0 Z " fill="#040404" transform="translate(760,713)"/>
<path d="M0 0 C8.05771322 0.77478012 8.05771322 0.77478012 11 4 C11.39180494 6.85486268 11.52299331 9.32518825 11.48101807 12.18132019 C11.48443577 13.02509525 11.48785347 13.86887031 11.49137473 14.73821431 C11.49798285 17.57606193 11.47592948 20.41297142 11.45410156 23.25073242 C11.45297372 25.28070554 11.45360571 27.3106803 11.45587158 29.34065247 C11.45702211 34.86110199 11.43345788 40.38120586 11.40557575 45.90157485 C11.38061855 51.66713837 11.37822459 57.43270928 11.37347412 63.19831848 C11.36102762 74.12057955 11.32818332 85.04268101 11.28807616 95.9648717 C11.24341054 108.39757219 11.22138452 120.83028019 11.20129442 133.2630409 C11.1594522 158.84211585 11.0890676 184.42104899 11 210 C10.34 210 9.68 210 9 210 C8.9765413 187.43240805 8.95895754 164.86481813 8.94818783 142.29721642 C8.94305225 131.81646693 8.93606233 121.33572506 8.92456055 110.85498047 C8.91452942 101.70990259 8.90812671 92.56483023 8.90591151 83.41974699 C8.90461858 78.58667226 8.90162411 73.7536133 8.89426994 68.92054367 C8.83763699 30.26518666 8.83763699 30.26518666 10 12 C9.34 12 8.68 12 8 12 C7.67 9.36 7.34 6.72 7 4 C5.68 3.67 4.36 3.34 3 3 C3 2.34 3 1.68 3 1 C2.34 1 1.68 1 1 1 C0.67 1.66 0.34 2.32 0 3 C0 2.01 0 1.02 0 0 Z " fill="#06A8F9" transform="translate(690,285)"/>
<path d="M0 0 C2.79945775 5.59891551 3.19648639 9.774844 2.53125 15.8671875 C1.75650927 24.6214253 1.81396424 33.38532272 1.81469727 42.16699219 C1.8124791 45.15313331 1.79417559 48.13892244 1.77539062 51.125 C1.77246177 53.02343625 1.77047358 54.92187423 1.76953125 56.8203125 C1.76234573 57.71291779 1.75516022 58.60552307 1.74775696 59.525177 C1.52961274 64.24646989 1.52961274 64.24646989 4 68 C4.33 67.01 4.66 66.02 5 65 C6.485 64.505 6.485 64.505 8 64 C10.43718864 63.06261975 12.76877881 62.12612065 15.0625 60.875 C17 60 17 60 21 60 C21.33 59.01 21.66 58.02 22 57 C24.03125 55.96484375 24.03125 55.96484375 26.5 54.9375 C28.99851299 53.76450032 28.99851299 53.76450032 31 52 C32.07907528 48.63369818 32.17059253 45.51420618 32 42 C32.33 42 32.66 42 33 42 C33.75698403 46.20546681 33.98241109 49.81832347 33 54 C29.54635535 57.63637718 25.42652178 59.71518441 21 62 C19.87464844 62.62777344 18.74929688 63.25554688 17.58984375 63.90234375 C11.80442667 67.10293121 5.91574906 70.04212547 0 73 C0 48.91 0 24.82 0 0 Z " fill="#04F3C6" transform="translate(323,451)"/>
<path d="M0 0 C2.83680518 1.41840259 3.62592304 3.18641385 5 6 C4.91907376 8.67056587 4.14785485 9.80071738 2.5625 11.9375 C0.0620225 13.95007945 -2.1684329 15.08749785 -5.0625 16.4375 C-9.05393787 18.33034683 -11.29375115 19.73437788 -13 24 C-13.99 23.67 -14.98 23.34 -16 23 C-18.23607554 23.94339207 -18.23607554 23.94339207 -20.5 25.375 C-23.05193424 26.89765409 -25.16565902 28.05521967 -28 29 C-28 29.66 -28 30.32 -28 31 C-29.423125 31.680625 -29.423125 31.680625 -30.875 32.375 C-34.00313679 33.80238254 -34.00313679 33.80238254 -36 36 C-37.33333333 36.66666667 -38.66666667 37.33333333 -40 38 C-40.61875 38.495 -41.2375 38.99 -41.875 39.5 C-44 41 -44 41 -47.0625 42 C-49.91812383 42.97212726 -51.12664772 43.71034722 -53 46 C-53.33 44.68 -53.66 43.36 -54 42 C-52.84951172 41.35998047 -52.84951172 41.35998047 -51.67578125 40.70703125 C-41.54946723 35.00289385 -31.68587923 28.90844235 -21.82568359 22.75830078 C-18.89472093 20.93448939 -15.95802541 19.12024302 -13.01953125 17.30859375 C-12.05345947 16.71264404 -11.0873877 16.11669434 -10.09204102 15.50268555 C-8.22453848 14.35099749 -6.35655155 13.20009444 -4.48803711 12.05004883 C-3.65151611 11.53337646 -2.81499512 11.0167041 -1.953125 10.484375 C-1.21223633 10.02772461 -0.47134766 9.57107422 0.29199219 9.10058594 C1.95867075 8.11179107 1.95867075 8.11179107 3 7 C1.02 5.35 -0.96 3.7 -3 2 C-2.01 1.34 -1.02 0.68 0 0 Z " fill="#0182F3" transform="translate(628,496)"/>
<path d="M0 0 C4.77691093 2.48258179 9.42256463 5.14278382 14.046875 7.8984375 C16.17958724 9.15642 18.31240299 10.41422701 20.4453125 11.671875 C21.54456055 12.3225293 22.64380859 12.97318359 23.77636719 13.64355469 C29.39431371 16.96067985 35.03395955 20.24038566 40.671875 23.5234375 C42.70322671 24.70815896 44.73448623 25.8930385 46.765625 27.078125 C47.61833984 27.57554199 48.47105469 28.07295898 49.34960938 28.58544922 C49.95095703 28.93623535 50.55230469 29.28702148 51.171875 29.6484375 C50.511875 29.9784375 49.851875 30.3084375 49.171875 30.6484375 C46.82421875 29.72265625 46.82421875 29.72265625 44.109375 28.3359375 C43.21089844 27.88605469 42.31242188 27.43617188 41.38671875 26.97265625 C39.171875 25.6484375 39.171875 25.6484375 38.171875 23.6484375 C36.51938013 22.94737907 34.84819917 22.29043399 33.171875 21.6484375 C30.48495981 20.35473759 27.82715607 19.00572757 25.171875 17.6484375 C25.171875 18.3084375 25.171875 18.9684375 25.171875 19.6484375 C24.181875 19.3184375 23.191875 18.9884375 22.171875 18.6484375 C22.171875 17.3284375 22.171875 16.0084375 22.171875 14.6484375 C14.33548344 11.1736826 14.33548344 11.1736826 6.171875 11.6484375 C6.171875 10.3284375 6.171875 9.0084375 6.171875 7.6484375 C5.841875 6.9884375 5.511875 6.3284375 5.171875 5.6484375 C4.181875 5.3184375 3.191875 4.9884375 2.171875 4.6484375 C2.171875 3.9884375 2.171875 3.3284375 2.171875 2.6484375 C0.37728555 2.87651241 -1.41387949 3.13166053 -3.203125 3.3984375 C-4.20085937 3.53765625 -5.19859375 3.676875 -6.2265625 3.8203125 C-8.97373547 4.39230639 -8.97373547 4.39230639 -10.1796875 6.7265625 C-10.39367187 7.36078125 -10.60765625 7.995 -10.828125 8.6484375 C-11.818125 8.6484375 -12.808125 8.6484375 -13.828125 8.6484375 C-14.818125 10.1334375 -14.818125 10.1334375 -15.828125 11.6484375 C-19.453125 12.3359375 -19.453125 12.3359375 -22.828125 12.6484375 C-19.36919349 8.75937979 -15.41300832 6.34298495 -10.953125 3.7734375 C-9.91091797 3.13148438 -9.91091797 3.13148438 -8.84765625 2.4765625 C-5.6411045 0.62871912 -3.73614506 -0.46443792 0 0 Z " fill="#05CCF2" transform="translate(513.828125,180.3515625)"/>
<path d="M0 0 C0.33 0.66 0.66 1.32 1 2 C-4.53459119 5.77358491 -4.53459119 5.77358491 -7.3125 7.125 C-9.1891646 7.88818611 -9.1891646 7.88818611 -10 10 C-12.64 10.99 -15.28 11.98 -18 13 C-18 30.16 -18 47.32 -18 65 C-18.99 65 -19.98 65 -21 65 C-21 47.51 -21 30.02 -21 12 C-14.07 8.04 -7.14 4.08 0 0 Z " fill="#01C5E0" transform="translate(423,468)"/>
<path d="M0 0 C1.11375 0.4640625 1.11375 0.4640625 2.25 0.9375 C4.87867962 2.03185708 4.87867962 2.03185708 7.25 2.5 C7.8275 2.665 8.405 2.83 9 3 C9.33 3.66 9.66 4.32 10 5 C10.66 5.165 11.32 5.33 12 5.5 C12.66 5.665 13.32 5.83 14 6 C14.33 6.66 14.66 7.32 15 8 C15.61875 8.309375 16.2375 8.61875 16.875 8.9375 C19.09890016 10.04945008 20.25632009 11.25632009 22 13 C23.64605826 14.03357147 25.30963442 15.04060332 27 16 C27.66 15.34 28.32 14.68 29 14 C29.3403125 14.928125 29.3403125 14.928125 29.6875 15.875 C32.38461179 20.24175242 38.30568482 20.71136446 43 22 C42.01 22.495 42.01 22.495 41 23 C41 23.66 41 24.32 41 25 C42.65 25.33 44.3 25.66 46 26 C46.495 27.485 46.495 27.485 47 29 C43.05052737 27.53125568 39.4990938 25.67763105 35.84375 23.5859375 C35.26016724 23.25260406 34.67658447 22.91927063 34.07531738 22.57583618 C32.8406645 21.8696537 31.60691586 21.16188822 30.37402344 20.45263672 C28.53547032 19.39539682 26.69380243 18.34376815 24.8515625 17.29296875 C21.22148102 15.2171575 17.60773447 13.11436897 14 11 C13.37722168 10.63700806 12.75444336 10.27401611 12.11279297 9.90002441 C10.28777109 8.83140427 8.47102355 7.74997593 6.65625 6.6640625 C5.59212891 6.03193848 4.52800781 5.39981445 3.43164062 4.74853516 C1 3 1 3 0 0 Z " fill="#03D9D4" transform="translate(397,347)"/>
<path d="M0 0 C0.495 1.485 0.495 1.485 1 3 C-1.97 3.99 -4.94 4.98 -8 6 C-8 6.66 -8 7.32 -8 8 C-8.66 8 -9.32 8 -10 8 C-10 8.66 -10 9.32 -10 10 C-13.2491277 12.3208055 -16.05879291 13.43697042 -20 14 C-20 14.66 -20 15.32 -20 16 C-20.7425 16.2475 -21.485 16.495 -22.25 16.75 C-25.05215304 17.80759229 -25.05215304 17.80759229 -26.75 19.90625 C-29.54370433 22.50594708 -32.17144556 23.4617204 -35.75 24.75 C-36.92046875 25.17796875 -38.0909375 25.6059375 -39.296875 26.046875 C-40.18890625 26.36140625 -41.0809375 26.6759375 -42 27 C-42.33 26.34 -42.66 25.68 -43 25 C-28.68293271 16.63842096 -14.35567306 8.29514127 0 0 Z " fill="#02E2E5" transform="translate(450,216)"/>
<path d="M0 0 C-3.01552571 2.5967027 -5.14832739 4.13026748 -9 5 C-10.34990354 5.97751635 -11.68036291 6.98199424 -13 8 C-14.7326025 8.99464218 -16.46594465 9.98819681 -18.2109375 10.9609375 C-19.85557386 11.91611932 -21.43275955 12.98502219 -23 14.0625 C-25.30998783 15.55436714 -27.24704146 16.59589101 -29.75 17.625 C-33.01826344 18.76779337 -33.01826344 18.76779337 -35 21 C-35.39764263 22.98821313 -35.73775349 24.98944339 -36 27 C-36.33 27 -36.66 27 -37 27 C-37.99138843 23.69683413 -38.12640606 21.28483011 -37 18 C-32.73640468 14.25327629 -27.85877496 11.73061131 -22.875 9.0625 C-21.52695675 8.30442811 -20.18057877 7.54338682 -18.8359375 6.77929688 C-3.56911407 -1.78455703 -3.56911407 -1.78455703 0 0 Z " fill="#03EEC6" transform="translate(361,272)"/>
<path d="M0 0 C-10.26068041 6.4584309 -20.57994865 12.80186601 -31 19 C-31.66 18.34 -32.32 17.68 -33 17 C-31.95199219 16.29423828 -31.95199219 16.29423828 -30.8828125 15.57421875 C-29.51769531 14.64029297 -29.51769531 14.64029297 -28.125 13.6875 C-27.22007812 13.07261719 -26.31515625 12.45773437 -25.3828125 11.82421875 C-22.80028615 10.05086051 -22.80028615 10.05086051 -21 7 C-21 7.66 -21 8.32 -21 9 C-19.51478323 8.24088921 -18.03696575 7.46728766 -16.5625 6.6875 C-15.73878906 6.25824219 -14.91507813 5.82898438 -14.06640625 5.38671875 C-11.69352356 4.09979113 -11.69352356 4.09979113 -11 1 C-6.90275533 -0.54613006 -4.18142349 -1.29227216 0 0 Z " fill="#038EF3" transform="translate(645,305)"/>
<path d="M0 0 C0.33 0 0.66 0 1 0 C1.77559162 4.21299256 2.00436192 7.81173371 1 12 C-2.52274245 15.6540529 -6.78024231 17.8236178 -11.25 20.125 C-12.42287722 20.77188116 -13.59348551 21.42289427 -14.76171875 22.078125 C-19.12373394 24.48857964 -23.53411129 26.78841076 -28 29 C-28 26 -28 26 -27 23 C-26.01 22.67 -25.02 22.34 -24 22 C-21.56281136 21.06261975 -19.23122119 20.12612065 -16.9375 18.875 C-15 18 -15 18 -11 18 C-10.67 17.01 -10.34 16.02 -10 15 C-7.96875 13.96484375 -7.96875 13.96484375 -5.5 12.9375 C-3.00148701 11.76450032 -3.00148701 11.76450032 -1 10 C0.07907528 6.63369818 0.17059253 3.51420618 0 0 Z " fill="#02E4B7" transform="translate(355,493)"/>
<path d="M0 0 C2.25 -0.25 2.25 -0.25 5 0 C7.3125 1.875 7.3125 1.875 9 4 C9 4.66 9 5.32 9 6 C10.65 6.33 12.3 6.66 14 7 C14 7.66 14 8.32 14 9 C15.65 9 17.3 9 19 9 C19 9.66 19 10.32 19 11 C20.98 11 22.96 11 25 11 C25.28875 11.61875 25.5775 12.2375 25.875 12.875 C26.93720042 15.13325765 26.93720042 15.13325765 29 17 C31.10820797 16.6814823 31.10820797 16.6814823 33 16 C33.495 18.475 33.495 18.475 34 21 C29.19746766 19.60689902 25.15914734 17.49600174 20.9375 14.875 C19.97154907 14.28319946 19.97154907 14.28319946 18.98608398 13.67944336 C17.6531081 12.86222648 16.32148766 12.04279472 14.99121094 11.22119141 C13.04835498 10.02965567 11.09343612 8.8612371 9.1328125 7.69921875 C7.94262716 6.98711482 6.75251938 6.27488124 5.5625 5.5625 C4.49128906 4.92441406 3.42007812 4.28632813 2.31640625 3.62890625 C1.55199219 3.09136719 0.78757812 2.55382812 0 2 C0 1.34 0 0.68 0 0 Z " fill="#04E8D5" transform="translate(364,328)"/>
<path d="M0 0 C0.66 0.33 1.32 0.66 2 1 C-1.81010527 3.39965749 -5.62351325 5.79401736 -9.4375 8.1875 C-10.50677734 8.86103516 -11.57605469 9.53457031 -12.67773438 10.22851562 C-18.69415054 14.000275 -24.74158278 17.6431671 -31 21 C-31 20.01 -31 19.02 -31 18 C-30.030625 17.71125 -29.06125 17.4225 -28.0625 17.125 C-24.89335797 16.35785318 -24.89335797 16.35785318 -24 14 C-21.48562469 11.76499972 -19.40031788 10.15466827 -16.25 8.9375 C-15.5075 8.628125 -14.765 8.31875 -14 8 C-13.67 7.01 -13.34 6.02 -13 5 C-11.68 5.33 -10.36 5.66 -9 6 C-9 5.34 -9 4.68 -9 4 C-7.54618103 3.30300448 -6.08677047 2.61766134 -4.625 1.9375 C-3.81289063 1.55464844 -3.00078125 1.17179688 -2.1640625 0.77734375 C-1.44992187 0.52082031 -0.73578125 0.26429688 0 0 Z " fill="#0378F3" transform="translate(686,511)"/>
<path d="M0 0 C0.66 0.33 1.32 0.66 2 1 C-1.43162541 3.06396252 -4.86385904 5.12690957 -8.29663086 7.18896484 C-9.46150725 7.88888919 -10.62622436 8.58907873 -11.79077148 9.28955078 C-14.55319373 10.9510334 -17.31784875 12.60855339 -20.08642578 14.25976562 C-21.83000925 15.30118199 -23.56948454 16.34959654 -25.30029297 17.41210938 C-26.83208835 18.33507864 -28.41070105 19.1800011 -30 20 C-30.66 19.67 -31.32 19.34 -32 19 C-32 18.01 -32 17.02 -32 16 C-31.154375 15.7525 -30.30875 15.505 -29.4375 15.25 C-24.79653066 13.56237478 -20.53264008 11.53264008 -17 8 C-16.26136719 7.86851562 -15.52273438 7.73703125 -14.76171875 7.6015625 C-10.18472833 6.60459429 -6.58181562 3.85499224 -2.64453125 1.3984375 C-1.33548828 0.70621094 -1.33548828 0.70621094 0 0 Z " fill="#05E1EB" transform="translate(474,241)"/>
<path d="M0 0 C4.95 0.99 4.95 0.99 10 2 C10 2.66 10 3.32 10 4 C12.31 4.66 14.62 5.32 17 6 C17.33 7.32 17.66 8.64 18 10 C18.99 9.67 19.98 9.34 21 9 C23.1875 10.3125 23.1875 10.3125 25 12 C25 12.66 25 13.32 25 14 C25.99 14.33 26.98 14.66 28 15 C27.01 15.495 27.01 15.495 26 16 C23.49389648 14.86010742 23.49389648 14.86010742 20.37109375 13.10546875 C19.25412109 12.47962891 18.13714844 11.85378906 16.98632812 11.20898438 C16.40439697 10.87729248 15.82246582 10.54560059 15.22290039 10.20385742 C13.4465217 9.1926357 11.66252259 8.196056 9.87695312 7.20117188 C1.13297598 2.26595196 1.13297598 2.26595196 0 0 Z " fill="#05AEF5" transform="translate(566,251)"/>
<path d="M0 0 C7.95038168 0.76445978 7.95038168 0.76445978 11 4 C11.45410156 7.1862793 11.45410156 7.1862793 11.390625 11.07421875 C11.38496521 11.7580513 11.37930542 12.44188385 11.37347412 13.1464386 C11.35110816 15.32750899 11.30091765 17.50692753 11.25 19.6875 C11.229935 21.16729395 11.21168422 22.6471137 11.1953125 24.12695312 C11.15124474 27.7518376 11.08221822 31.37575756 11 35 C10.01 35.495 10.01 35.495 9 36 C9.33 28.08 9.66 20.16 10 12 C9.34 12 8.68 12 8 12 C7.67 9.36 7.34 6.72 7 4 C5.68 3.67 4.36 3.34 3 3 C3 2.34 3 1.68 3 1 C2.34 1 1.68 1 1 1 C0.67 1.66 0.34 2.32 0 3 C0 2.01 0 1.02 0 0 Z " fill="#0497FB" transform="translate(690,285)"/>
<path d="M0 0 C1.65 0 3.3 0 5 0 C5 0.99 5 1.98 5 3 C3.28759766 4.3503418 3.28759766 4.3503418 0.9140625 5.69921875 C0.06585937 6.18583984 -0.78234375 6.67246094 -1.65625 7.17382812 C-2.5534375 7.67333984 -3.450625 8.17285156 -4.375 8.6875 C-5.70917969 9.45416992 -5.70917969 9.45416992 -7.0703125 10.23632812 C-13.70321888 14 -13.70321888 14 -16 14 C-16 13.01 -16 12.02 -16 11 C-15.16855469 10.59007812 -14.33710937 10.18015625 -13.48046875 9.7578125 C-12.39378906 9.21898437 -11.30710937 8.68015625 -10.1875 8.125 C-9.10855469 7.59132813 -8.02960937 7.05765625 -6.91796875 6.5078125 C-2.30424984 4.30897855 -2.30424984 4.30897855 0 0 Z " fill="#0394F2" transform="translate(584,336)"/>
<path d="M0 0 C2.5546875 1.3828125 2.5546875 1.3828125 3.5546875 3.3828125 C2.95140625 3.37121094 2.348125 3.35960937 1.7265625 3.34765625 C0.92734375 3.33863281 0.128125 3.32960937 -0.6953125 3.3203125 C-1.48421875 3.30871094 -2.273125 3.29710937 -3.0859375 3.28515625 C-5.38702739 3.38040004 -7.27314794 3.6206495 -9.4453125 4.3828125 C-10.72967984 6.3665892 -10.72967984 6.3665892 -11.4453125 8.3828125 C-12.4353125 8.3828125 -13.4253125 8.3828125 -14.4453125 8.3828125 C-15.4353125 9.8678125 -15.4353125 9.8678125 -16.4453125 11.3828125 C-20.0703125 12.0703125 -20.0703125 12.0703125 -23.4453125 12.3828125 C-19.98638099 8.49375479 -16.03019582 6.07735995 -11.5703125 3.5078125 C-10.52810547 2.86585938 -10.52810547 2.86585938 -9.46484375 2.2109375 C-5.82391559 0.11277551 -4.25942151 -0.76302562 0 0 Z " fill="#06DCF0" transform="translate(514.4453125,180.6171875)"/>
<path d="M0 0 C0.90621094 0.51949219 1.81242188 1.03898437 2.74609375 1.57421875 C9.47339291 5.42684075 16.20778253 9.26248351 23 13 C23 13.66 23 14.32 23 15 C20.525 14.505 20.525 14.505 18 14 C18 13.34 18 12.68 18 12 C16.02 12 14.04 12 12 12 C12 11.34 12 10.68 12 10 C7.93426439 6.80439959 7.93426439 6.80439959 3 6 C0.8125 3.5 0.8125 3.5 -1 1 C-0.67 0.67 -0.34 0.34 0 0 Z " fill="#0285F2" transform="translate(622,458)"/>
<path d="M0 0 C1.485 0.99 1.485 0.99 3 2 C3 2.66 3 3.32 3 4 C6.92438786 5.66489182 10.89100419 6.87204037 15 8 C14.01 8.495 14.01 8.495 13 9 C13 9.66 13 10.32 13 11 C14.65 11.33 16.3 11.66 18 12 C18.33 12.99 18.66 13.98 19 15 C15.03931433 13.52846983 11.46956874 11.67496828 7.8125 9.5625 C6.76707031 8.96566406 5.72164063 8.36882812 4.64453125 7.75390625 C2 6 2 6 0 3 C0 2.01 0 1.02 0 0 Z " fill="#03CDDC" transform="translate(425,361)"/>
<path d="M0 0 C0.33 1.32 0.66 2.64 1 4 C-0.72526042 4.68359375 -2.45052083 5.3671875 -4.17578125 6.05078125 C-6.06925675 6.90389769 -6.06925675 6.90389769 -7.375 8.5 C-9.61220151 10.56510909 -11.75282164 10.96246182 -14.6875 11.6875 C-16.17830078 12.06455078 -16.17830078 12.06455078 -17.69921875 12.44921875 C-18.45847656 12.63097656 -19.21773438 12.81273437 -20 13 C-17.85279954 10.68830812 -15.714762 9.09802011 -12.98828125 7.51953125 C-12.23095703 7.07802734 -11.47363281 6.63652344 -10.69335938 6.18164062 C-9.51483398 5.50391602 -9.51483398 5.50391602 -8.3125 4.8125 C-7.11657227 4.11737305 -7.11657227 4.11737305 -5.89648438 3.40820312 C-3.93336513 2.26794823 -1.96785129 1.13206227 0 0 Z " fill="#04DDEE" transform="translate(472,203)"/>
<path d="M0 0 C2 1.375 2 1.375 4 3 C4 3.66 4 4.32 4 5 C8.455 5.99 8.455 5.99 13 7 C13 7.66 13 8.32 13 9 C14.32 9.33 15.64 9.66 17 10 C17 10.66 17 11.32 17 12 C18.65 12 20.3 12 22 12 C22 13.32 22 14.64 22 16 C17.09148437 14.24906657 12.68929997 11.71362932 8.1875 9.125 C7.39923828 8.69058594 6.61097656 8.25617188 5.79882812 7.80859375 C4.68217773 7.16470703 4.68217773 7.16470703 3.54296875 6.5078125 C2.5223938 5.92990967 2.5223938 5.92990967 1.48120117 5.34033203 C0.99240479 4.89802246 0.5036084 4.45571289 0 4 C0 2.68 0 1.36 0 0 Z " fill="#0285F2" transform="translate(602,482)"/>
<path d="M0 0 C3.72814929 0.06962588 7.342528 0.24476979 11 1 C13.22827148 3.48293108 14 4.68756765 14 8 C15.32 8.66 16.64 9.32 18 10 C13.40297887 9.44593342 10.01892099 7.44322498 6.1875 5 C5.59001953 4.63132812 4.99253906 4.26265625 4.37695312 3.8828125 C2.89634966 2.9555317 1.4450798 1.98172332 0 1 C0 0.67 0 0.34 0 0 Z " fill="#03C8E3" transform="translate(444,376)"/>
<path d="M0 0 C-1.43229181 4.29687544 -4.64599762 5.51455902 -8.375 7.6875 C-9.06078125 8.10322266 -9.7465625 8.51894531 -10.453125 8.94726562 C-15.60618073 12 -15.60618073 12 -19 12 C-18.67 11.01 -18.34 10.02 -18 9 C-17.67 9.33 -17.34 9.66 -17 10 C-16.34 8.68 -15.68 7.36 -15 6 C-13.89205078 6.0928125 -13.89205078 6.0928125 -12.76171875 6.1875 C-9.45319737 5.9628762 -8.32528713 5.09965965 -5.8125 3 C-2.18055556 0 -2.18055556 0 0 0 Z " fill="#0281F2" transform="translate(616,554)"/>
<path d="M0 0 C0.66 0.66 1.32 1.32 2 2 C1.38125 2.0825 0.7625 2.165 0.125 2.25 C-2.17972859 2.79394438 -2.17972859 2.79394438 -3.0625 5 C-3.371875 5.66 -3.68125 6.32 -4 7 C-4.99 7.33 -5.98 7.66 -7 8 C-7.66 8.66 -8.32 9.32 -9 10 C-10.98356483 10.71408334 -12.98315437 11.38617742 -15 12 C-15 11.01 -15 10.02 -15 9 C-12.52359763 7.29305123 -10.1091194 5.78629988 -7.5 4.3125 C-6.78457031 3.89677734 -6.06914063 3.48105469 -5.33203125 3.05273438 C-3.56042371 2.025202 -1.78091912 1.01130764 0 0 Z " fill="#0189EF" transform="translate(571,540)"/>
<path d="M0 0 C0.33 0.66 0.66 1.32 1 2 C-4.53459119 5.77358491 -4.53459119 5.77358491 -7.3125 7.125 C-9.1891646 7.88818611 -9.1891646 7.88818611 -10 10 C-11.97888961 10.72693904 -13.97954558 11.39816251 -16 12 C-16 11.01 -16 10.02 -16 9 C-10.72 6.03 -5.44 3.06 0 0 Z " fill="#02C2E0" transform="translate(423,468)"/>
<path d="M0 0 C-2.45267635 1.53068488 -4.91133894 3.04968623 -7.375 4.5625 C-8.07367188 5.00013672 -8.77234375 5.43777344 -9.4921875 5.88867188 C-11.29185903 6.98750978 -13.14322343 8.00067867 -15 9 C-15.66 8.67 -16.32 8.34 -17 8 C-13.375 3.125 -13.375 3.125 -10 2 C-9.34 1.34 -8.68 0.68 -8 0 C-2.51428571 -1.25714286 -2.51428571 -1.25714286 0 0 Z " fill="#03D6ED" transform="translate(493,232)"/>
<path d="M0 0 C0.99 0.33 1.98 0.66 3 1 C3 1.66 3 2.32 3 3 C4.3303125 3.433125 4.3303125 3.433125 5.6875 3.875 C8.50382424 4.83148748 11.25083156 5.86798946 14 7 C14 7.99 14 8.98 14 10 C10.08885974 9.32599282 7.12880818 7.45743967 3.75 5.4375 C2.67234375 4.79683594 1.5946875 4.15617187 0.484375 3.49609375 C-0.33546875 3.00238281 -1.1553125 2.50867188 -2 2 C-1.34 1.34 -0.68 0.68 0 0 Z M12 7 C13 9 13 9 13 9 Z " fill="#0391F4" transform="translate(575,467)"/>
<path d="M0 0 C3.78786597 0.5260925 6.17152224 1.38103911 9 4 C9 4.66 9 5.32 9 6 C10.6396875 6.4021875 10.6396875 6.4021875 12.3125 6.8125 C15.61692663 7.87663739 16.94960422 8.34654664 19 11 C12.82057771 10.67476725 7.88339747 7.58900296 3 4 C1.19921875 1.80078125 1.19921875 1.80078125 0 0 Z " fill="#0293F1" transform="translate(554,456)"/>
<path d="M0 0 C-2.45518735 1.50537035 -4.9138452 3.00444426 -7.375 4.5 C-8.07367188 4.92925781 -8.77234375 5.35851562 -9.4921875 5.80078125 C-14.7734375 9 -14.7734375 9 -17 9 C-16.4375 7.125 -16.4375 7.125 -15 5 C-12.67451993 4.30643577 -10.34119555 3.63850788 -8 3 C-7.67 2.01 -7.34 1.02 -7 0 C-2.25 -1.125 -2.25 -1.125 0 0 Z " fill="#05E3E6" transform="translate(442,262)"/>
<path d="M0 0 C0.33 0.99 0.66 1.98 1 3 C2.49985609 4.66710346 2.49985609 4.66710346 4 6 C2.783125 5.608125 1.56625 5.21625 0.3125 4.8125 C-3.02669518 3.94962833 -3.64762301 3.82381151 -6.875 5.4375 C-7.57625 5.953125 -8.2775 6.46875 -9 7 C-9.66 6.67 -10.32 6.34 -11 6 C-10.67 5.01 -10.34 4.02 -10 3 C-9.01 3 -8.02 3 -7 3 C-6.67 2.34 -6.34 1.68 -6 1 C-3 0 -3 0 0 0 Z " fill="#04D3F3" transform="translate(514,218)"/>
<path d="M0 0 C0.66 0.33 1.32 0.66 2 1 C0.49973161 5.50080518 -2.87687186 6.9346808 -7 9 C-10.5 9.8125 -10.5 9.8125 -13 10 C-13 9.34 -13 8.68 -13 8 C-9.77208445 5.8480563 -8.71599191 5.79913557 -5 6 C-5 5.34 -5 4.68 -5 4 C-4.01 3.34 -3.02 2.68 -2 2 C-1.34 1.34 -0.68 0.68 0 0 Z " fill="#0286F2" transform="translate(586,570)"/>
<path d="M0 0 C-1.22341587 3.67024761 -2.83514059 4.3606842 -6.14453125 6.1484375 C-8.39478859 7.18118719 -10.54579041 7.70252005 -13 8 C-11.78604047 4.35812142 -10.90993923 4.08254007 -7.625 2.3125 C-6.83351563 1.87550781 -6.04203125 1.43851563 -5.2265625 0.98828125 C-3 0 -3 0 0 0 Z " fill="#0289EE" transform="translate(557,590)"/>
<path d="M0 0 C0.556875 0.226875 1.11375 0.45375 1.6875 0.6875 C-1.39540155 4.91547927 -1.39540155 4.91547927 -3.3125 6.6875 C-6.125 7.0625 -6.125 7.0625 -8.3125 6.6875 C-8.125 4.875 -8.125 4.875 -7.3125 2.6875 C-3.3125 -0.44763514 -3.3125 -0.44763514 0 0 Z " fill="#02A8F2" transform="translate(523.3125,337.3125)"/>
<path d="M0 0 C0.33 0 0.66 0 1 0 C1.3046875 2.29296875 1.3046875 2.29296875 1 5 C-1.1171875 6.80078125 -1.1171875 6.80078125 -3.875 8.3125 C-4.77992188 8.82425781 -5.68484375 9.33601563 -6.6171875 9.86328125 C-9 11 -9 11 -11 11 C-10.34 9.35 -9.68 7.7 -9 6 C-8.34 6 -7.68 6 -7 6 C-6.67 5.34 -6.34 4.68 -6 4 C-4.02 4 -2.04 4 0 4 C0 2.68 0 1.36 0 0 Z " fill="#0374F6" transform="translate(699,500)"/>
<path d="M0 0 C5.31027254 1.46032495 9.46330032 3.98320986 14 7 C13.34 7.66 12.68 8.32 12 9 C11.01 9 10.02 9 9 9 C8.67 8.01 8.34 7.02 8 6 C5.68895182 4.94952356 3.35416349 3.94992562 1 3 C0.34 2.34 -0.32 1.68 -1 1 C-0.67 0.67 -0.34 0.34 0 0 Z " fill="#0380F5" transform="translate(653,477)"/>
<path d="M0 0 C4.99911924 0.47610659 7.97832683 2.03162219 12 5 C8.67255773 6.10914742 6.35438475 6.03211839 3 5 C1.1875 3.5625 1.1875 3.5625 0 2 C0 1.34 0 0.68 0 0 Z " fill="#0288F6" transform="translate(672,274)"/>
<path d="M0 0 C0.99 0.66 1.98 1.32 3 2 C2.34 2 1.68 2 1 2 C1 2.66 1 3.32 1 4 C0.236875 4.268125 -0.52625 4.53625 -1.3125 4.8125 C-3.87380884 5.94424112 -5.19692938 6.91223401 -7 9 C-7.99 8.67 -8.98 8.34 -10 8 C-9.01 7.67 -8.02 7.34 -7 7 C-7 6.01 -7 5.02 -7 4 C-4.69 2.68 -2.38 1.36 0 0 Z " fill="#03DADD" transform="translate(429,228)"/>
<path d="M0 0 C0.33 0.99 0.66 1.98 1 3 C-0.6188996 4.03048037 -2.24532489 5.04914678 -3.875 6.0625 C-4.77992188 6.63097656 -5.68484375 7.19945312 -6.6171875 7.78515625 C-7.40351562 8.18605469 -8.18984375 8.58695313 -9 9 C-9.66 8.67 -10.32 8.34 -11 8 C-8.53410087 3.7934662 -5.43718565 2.7255722 -1 1 C-0.67 0.67 -0.34 0.34 0 0 Z " fill="#027CF7" transform="translate(643,536)"/>
<path d="M0 0 C2.25 -0.25 2.25 -0.25 5 0 C6.38007251 1.2848951 7.70420353 2.63015802 9 4 C11.60459313 5.77152481 14.29014208 7.39513269 17 9 C16.01 9.495 16.01 9.495 15 10 C12.37756211 8.61511707 9.8901582 7.18421246 7.375 5.625 C6.66859375 5.19960938 5.9621875 4.77421875 5.234375 4.3359375 C3.46808541 3.25843265 1.73117753 2.1330578 0 1 C0 0.67 0 0.34 0 0 Z " fill="#05E1E4" transform="translate(410,356)"/>
<path d="M0 0 C1.92154764 0.9063904 3.83706654 1.82556804 5.75 2.75 C7.35101563 3.51570313 7.35101563 3.51570313 8.984375 4.296875 C11.86694755 5.92485639 13.80426309 7.54844908 16 10 C10.31497465 8.35433477 5.23318364 5.70967216 0 3 C0 2.01 0 1.02 0 0 Z " fill="#06EEE0" transform="translate(383,301)"/>
<path d="M0 0 C3.96 1.98 7.92 3.96 12 6 C12 6.66 12 7.32 12 8 C9.99759451 7.68143549 7.99788438 7.34578768 6 7 C4.8553125 6.814375 4.8553125 6.814375 3.6875 6.625 C3.130625 6.41875 2.57375 6.2125 2 6 C1.33333333 4 0.66666667 2 0 0 Z " fill="#0393F9" transform="translate(659,265)"/>
<path d="M0 0 C4.06225548 0.57823096 6.84762346 1.89117737 10.3125 4.0625 C11.19550781 4.61035156 12.07851563 5.15820312 12.98828125 5.72265625 C13.65214844 6.14417969 14.31601562 6.56570312 15 7 C11.61682513 7.97591583 9.4342662 7.85856655 6 7 C6 6.01 6 5.02 6 4 C5.34 4 4.68 4 4 4 C4 3.34 4 2.68 4 2 C2.68 1.34 1.36 0.68 0 0 Z " fill="#029FF6" transform="translate(628,248)"/>
<path d="M0 0 C3.29680965 0.65784963 5.84117922 1.89420573 8.75 3.5625 C9.94882812 4.24505859 9.94882812 4.24505859 11.171875 4.94140625 C11.77515625 5.29074219 12.3784375 5.64007813 13 6 C12.01 7.485 12.01 7.485 11 9 C10.59136719 8.55011719 10.18273437 8.10023438 9.76171875 7.63671875 C7.87453987 5.8834417 6.13192342 4.91517671 3.8125 3.8125 C3.09707031 3.46832031 2.38164063 3.12414062 1.64453125 2.76953125 C1.10183594 2.51558594 0.55914063 2.26164062 0 2 C0 1.34 0 0.68 0 0 Z " fill="#028AF5" transform="translate(608,451)"/>
<path d="M0 0 C0.33 0.66 0.66 1.32 1 2 C0.34 2 -0.32 2 -1 2 C-1 2.66 -1 3.32 -1 4 C-4.43253617 7.43253617 -8.40442855 8.00429285 -13 9 C-9.39299028 4.76568424 -4.85413839 2.5307901 0 0 Z " fill="#06F4D9" transform="translate(348,276)"/>
<path d="M0 0 C0.598125 0.20625 1.19625 0.4125 1.8125 0.625 C1.1525 1.945 0.4925 3.265 -0.1875 4.625 C-1.1775 4.625 -2.1675 4.625 -3.1875 4.625 C-3.5175 5.285 -3.8475 5.945 -4.1875 6.625 C-4.8475 6.625 -5.5075 6.625 -6.1875 6.625 C-5.875 4.25 -5.875 4.25 -5.1875 1.625 C-2.1875 -0.375 -2.1875 -0.375 0 0 Z " fill="#0187F1" transform="translate(552.1875,553.375)"/>
<path d="M0 0 C0.33 0 0.66 0 1 0 C1.04898437 0.95261719 1.09796875 1.90523437 1.1484375 2.88671875 C1.22320312 4.14097656 1.29796875 5.39523437 1.375 6.6875 C1.44460938 7.92886719 1.51421875 9.17023437 1.5859375 10.44921875 C1.96422094 13.69317772 2.61979976 16.06567185 4 19 C3.01 19.33 2.02 19.66 1 20 C0.09761253 17.29283758 -0.11851302 15.76223232 -0.09765625 12.98828125 C-0.09443359 12.23095703 -0.09121094 11.47363281 -0.08789062 10.69335938 C-0.07951172 9.90767578 -0.07113281 9.12199219 -0.0625 8.3125 C-0.05798828 7.51521484 -0.05347656 6.71792969 -0.04882812 5.89648438 C-0.0370585 3.93095743 -0.01912348 1.96546915 0 0 Z " fill="#01ADC8" transform="translate(404,515)"/>
<path d="M0 0 C0.99 0 1.98 0 3 0 C1.77658413 3.67024761 0.16485941 4.3606842 -3.14453125 6.1484375 C-5.39478859 7.18118719 -7.54579041 7.70252005 -10 8 C-10 7.34 -10 6.68 -10 6 C-9.01 5.67 -8.02 5.34 -7 5 C-6.34 4.34 -5.68 3.68 -5 3 C-3.68 3 -2.36 3 -1 3 C-0.67 2.01 -0.34 1.02 0 0 Z " fill="#019AF6" transform="translate(602,327)"/>
<path d="M0 0 C1.62723299 0.45034123 3.25173664 0.91055354 4.875 1.375 C5.77992188 1.63023437 6.68484375 1.88546875 7.6171875 2.1484375 C10 3 10 3 12 5 C9.1080406 5.96398647 7.0005625 6 4 6 C1.875 4.125 1.875 4.125 0 2 C0 1.34 0 0.68 0 0 Z " fill="#0292F8" transform="translate(616,242)"/>
<path d="M0 0 C0.66 0.33 1.32 0.66 2 1 C1.01 1.33 0.02 1.66 -1 2 C-1.33 2.99 -1.66 3.98 -2 5 C-3.84765625 5.94921875 -3.84765625 5.94921875 -6.0625 6.6875 C-7.16271484 7.06455078 -7.16271484 7.06455078 -8.28515625 7.44921875 C-8.85105469 7.63097656 -9.41695313 7.81273437 -10 8 C-8.7820245 4.34607349 -7.85603494 4.04168301 -4.5625 2.25 C-3.75941406 1.80140625 -2.95632813 1.3528125 -2.12890625 0.890625 C-1.07509766 0.44976562 -1.07509766 0.44976562 0 0 Z " fill="#04F4DF" transform="translate(377,259)"/>
<path d="M0 0 C0.33 0.99 0.66 1.98 1 3 C-4.75 7 -4.75 7 -7 7 C-6.75 5.125 -6.75 5.125 -6 3 C-4.0625 1.8125 -4.0625 1.8125 -2 1 C-1.34 0.67 -0.68 0.34 0 0 Z " fill="#039DF2" transform="translate(565,349)"/>
<path d="M0 0 C0.66 0.33 1.32 0.66 2 1 C-1.12621626 4.39417765 -3.56541027 6.6062718 -8 8 C-8 7.34 -8 6.68 -8 6 C-2.88888889 1.44444444 -2.88888889 1.44444444 0 0 Z " fill="#02A1F4" transform="translate(564,312)"/>
<path d="M0 0 C-1.6188996 1.03048037 -3.24532489 2.04914678 -4.875 3.0625 C-5.77992188 3.63097656 -6.68484375 4.19945312 -7.6171875 4.78515625 C-8.40351563 5.18605469 -9.18984375 5.58695312 -10 6 C-10.66 5.67 -11.32 5.34 -12 5 C-10.15113944 1.73730489 -9.04628112 1.01705094 -5.4375 -0.3125 C-2 -1 -2 -1 0 0 Z " fill="#06EAE9" transform="translate(425,272)"/>
<path d="M0 0 C2.97 0.33 5.94 0.66 9 1 C9.33 1.99 9.66 2.98 10 4 C3.375 3.375 3.375 3.375 0 0 Z " fill="#03B7F7" transform="translate(550,242)"/>
<path d="M0 0 C1.27875 0.28875 2.5575 0.5775 3.875 0.875 C4.95394531 1.11863281 4.95394531 1.11863281 6.0546875 1.3671875 C8 2 8 2 10 4 C7.33438378 4.98726527 6.09873015 5.0275526 3.3125 4.25 C1 3 1 3 0 0 Z " fill="#018AF1" transform="translate(579,435)"/>
<path d="M0 0 C2.625 -0.1875 2.625 -0.1875 5 0 C1.7129243 3.81300782 -1.39727838 5.22972246 -6 7 C-6 6.34 -6 5.68 -6 5 C-5.38125 4.731875 -4.7625 4.46375 -4.125 4.1875 C-1.7004767 3.04443152 -1.7004767 3.04443152 0 0 Z " fill="#05E4E0" transform="translate(408,278)"/>
<path d="M0 0 C0.99 0.66 1.98 1.32 3 2 C0.63707344 4.52588702 -0.66462511 5.88820837 -4 7 C-4.66 6.34 -5.32 5.68 -6 5 C-5.195625 4.54625 -4.39125 4.0925 -3.5625 3.625 C-0.91143428 2.25274335 -0.91143428 2.25274335 0 0 Z " fill="#03CFE1" transform="translate(456,249)"/>
<path d="M0 0 C0.33 0.99 0.66 1.98 1 3 C-0.45381897 3.69699552 -1.91322953 4.38233866 -3.375 5.0625 C-4.18710937 5.44535156 -4.99921875 5.82820312 -5.8359375 6.22265625 C-6.55007813 6.47917969 -7.26421875 6.73570312 -8 7 C-8.66 6.67 -9.32 6.34 -10 6 C-6.7 4.02 -3.4 2.04 0 0 Z " fill="#03E4EE" transform="translate(450,216)"/>
<path d="M0 0 C-1.2065625 0.4021875 -1.2065625 0.4021875 -2.4375 0.8125 C-3.283125 1.204375 -4.12875 1.59625 -5 2 C-5.33 2.99 -5.66 3.98 -6 5 C-6.99 5 -7.98 5 -9 5 C-9 3.68 -9 2.36 -9 1 C-2.25 -1.125 -2.25 -1.125 0 0 Z " fill="#02D7C7" transform="translate(407,281)"/>
<path d="M0 0 C1.31602523 0.61754259 2.62773556 1.24428742 3.9375 1.875 C4.66839844 2.22304687 5.39929688 2.57109375 6.15234375 2.9296875 C8 4 8 4 9 6 C6.69 5.67 4.38 5.34 2 5 C2 4.01 2 3.02 2 2 C1.34 2 0.68 2 0 2 C0 1.34 0 0.68 0 0 Z " fill="#03ABF3" transform="translate(599,230)"/>
<path d="M0 0 C1.65 0.33 3.3 0.66 5 1 C2.63404067 3.61500768 0.13950774 5.38999603 -3 7 C-3.66 6.67 -4.32 6.34 -5 6 C-3.36587557 4.29159719 -2.13093906 3.06546953 0 2 C0 1.34 0 0.68 0 0 Z " fill="#06DCF3" transform="translate(498,224)"/>
<path d="M0 0 C0.556875 0.391875 1.11375 0.78375 1.6875 1.1875 C-1.75319624 3.48129749 -3.03540301 4.1875 -7.3125 4.1875 C-7.3125 3.5275 -7.3125 2.8675 -7.3125 2.1875 C-3.09973404 -1.08909574 -3.09973404 -1.08909574 0 0 Z " fill="#028EEA" transform="translate(539.3125,600.8125)"/>
<path d="M0 0 C0.433125 0.9590625 0.433125 0.9590625 0.875 1.9375 C1.82823451 4.15206079 1.82823451 4.15206079 4 5 C4 5.66 4 6.32 4 7 C3.01 7.33 2.02 7.66 1 8 C-2 3.25 -2 3.25 -2 1 C-1.34 0.67 -0.68 0.34 0 0 Z " fill="#02E5C6" transform="translate(379,295)"/>
<path d="M0 0 C-5.625 4 -5.625 4 -9 4 C-9 3.01 -9 2.02 -9 1 C-2.25 -1.125 -2.25 -1.125 0 0 Z " fill="#03EABC" transform="translate(341,284)"/>
<path d="M0 0 C0.66 0.99 1.32 1.98 2 3 C-1.96 4.98 -1.96 4.98 -6 7 C-5 3 -5 3 -2.4375 1.25 C-1.2309375 0.63125 -1.2309375 0.63125 0 0 Z " fill="#0384F2" transform="translate(595,565)"/>
<path d="M0 0 C4.03174806 0.27489191 5.56894631 0.53491576 8.375 3.5625 C8.91125 4.366875 9.4475 5.17125 10 6 C8.68 6.33 7.36 6.66 6 7 C5.7525 6.360625 5.505 5.72125 5.25 5.0625 C4.18437567 2.81258459 4.18437567 2.81258459 1.875 2.25 C0.946875 2.12625 0.946875 2.12625 0 2 C0 1.34 0 0.68 0 0 Z " fill="#03DDCD" transform="translate(396,310)"/>
<path d="M0 0 C0.33 0.66 0.66 1.32 1 2 C0.34 2 -0.32 2 -1 2 C-1.33 2.99 -1.66 3.98 -2 5 C-5.0625 6.1875 -5.0625 6.1875 -8 7 C-6.5361389 2.60841671 -4.02168662 2.12052567 0 0 Z " fill="#03E1EE" transform="translate(482,197)"/>
<path d="M0 0 C0.66 0.33 1.32 0.66 2 1 C2 1.99 2 2.98 2 4 C-0.375 5.75 -0.375 5.75 -3 7 C-3.66 6.67 -4.32 6.34 -5 6 C-3.35 4.02 -1.7 2.04 0 0 Z " fill="#047CF7" transform="translate(652,529)"/>
<path d="M0 0 C2.97 0.495 2.97 0.495 6 1 C6 1.99 6 2.98 6 4 C3.03 3.505 3.03 3.505 0 3 C0 2.01 0 1.02 0 0 Z " fill="#03D2D3" transform="translate(420,324)"/>
<path d="M0 0 C7.75 1.875 7.75 1.875 10 3 C9.67 3.99 9.34 4.98 9 6 C8.236875 5.505 7.47375 5.01 6.6875 4.5 C4.07636249 2.75631692 4.07636249 2.75631692 1 3 C0.67 2.01 0.34 1.02 0 0 Z " fill="#0292F8" transform="translate(642,257)"/>
<path d="M0 0 C-1.28524261 0.86380259 -2.57842419 1.71580369 -3.875 2.5625 C-4.59429688 3.03816406 -5.31359375 3.51382812 -6.0546875 4.00390625 C-6.69664062 4.33261719 -7.33859375 4.66132813 -8 5 C-8.66 4.67 -9.32 4.34 -10 4 C-9.01 3.67 -8.02 3.34 -7 3 C-6.67 2.01 -6.34 1.02 -6 0 C-3.42525708 -0.99667468 -2.51072708 -1.25536354 0 0 Z " fill="#039DF2" transform="translate(637,310)"/>
<path d="M0 0 C0.33 0.66 0.66 1.32 1 2 C0.34 2 -0.32 2 -1 2 C-1.33 2.99 -1.66 3.98 -2 5 C-3.98 5.33 -5.96 5.66 -8 6 C-5.51047079 3.33264727 -3.36591866 1.44253657 0 0 Z " fill="#05ABF8" transform="translate(588,298)"/>
<path d="M0 0 C-1.28524261 0.86380259 -2.57842419 1.71580369 -3.875 2.5625 C-4.59429687 3.03816406 -5.31359375 3.51382812 -6.0546875 4.00390625 C-6.69664062 4.33261719 -7.33859375 4.66132813 -8 5 C-8.66 4.67 -9.32 4.34 -10 4 C-9.01 3.67 -8.02 3.34 -7 3 C-6.67 2.01 -6.34 1.02 -6 0 C-3.42525708 -0.99667468 -2.51072708 -1.25536354 0 0 Z " fill="#06F0E5" transform="translate(401,286)"/>
<path d="M0 0 C-0.125 1.8125 -0.125 1.8125 -1 4 C-4.0625 5.75 -4.0625 5.75 -7 7 C-3.86206897 0 -3.86206897 0 0 0 Z " fill="#027FEE" transform="translate(626,547)"/>
<path d="M0 0 C1.65 0 3.3 0 5 0 C-0.14285714 4.42857143 -0.14285714 4.42857143 -4 5 C-3.67 4.34 -3.34 3.68 -3 3 C-2.34 3 -1.68 3 -1 3 C-0.67 2.01 -0.34 1.02 0 0 Z " fill="#03A4F2" transform="translate(577,342)"/>
</svg>
