<?xml version="1.0" encoding="UTF-8"?>
<svg version="1.1" xmlns="http://www.w3.org/2000/svg" width="500" height="500">
<path d="M0 0 C3.44531402 1.42564718 6.60541184 3.18604598 9.8046875 5.09375 C10.77245117 5.65932617 10.77245117 5.65932617 11.75976562 6.23632812 C13.34096902 7.16162493 14.9171021 8.09557681 16.4921875 9.03125 C16.4921875 9.69125 16.4921875 10.35125 16.4921875 11.03125 C17.32121582 11.19451782 17.32121582 11.19451782 18.16699219 11.36108398 C20.92931936 12.15723981 23.17850141 13.3638071 25.6953125 14.75390625 C27.16484375 15.56118164 27.16484375 15.56118164 28.6640625 16.38476562 C29.67984375 16.94873047 30.695625 17.51269531 31.7421875 18.09375 C32.7734375 18.66158203 33.8046875 19.22941406 34.8671875 19.81445312 C37.41113768 21.21598123 39.95267033 22.6217102 42.4921875 24.03125 C42.4921875 24.69125 42.4921875 25.35125 42.4921875 26.03125 C43.07524658 26.15636963 43.65830566 26.28148926 44.2590332 26.41040039 C46.48921041 27.03042233 48.20812392 27.83642516 50.22265625 28.96484375 C50.93518555 29.36179443 51.64771484 29.75874512 52.38183594 30.16772461 C53.14012695 30.59706299 53.89841797 31.02640137 54.6796875 31.46875 C55.46762695 31.91033447 56.25556641 32.35191895 57.06738281 32.80688477 C63.37345148 36.35734458 69.62125959 40.00524072 75.83276367 43.71850586 C79.64865293 45.99135281 83.48839086 48.09773951 87.4921875 50.03125 C87.4921875 50.69125 87.4921875 51.35125 87.4921875 52.03125 C88.1315625 52.175625 88.7709375 52.32 89.4296875 52.46875 C91.4921875 53.03125 91.4921875 53.03125 92.4921875 54.03125 C92.61987544 55.38853975 92.68048743 56.75222646 92.71337891 58.1151123 C92.73643097 58.99538086 92.75948303 59.87564941 92.78323364 60.78259277 C92.80320404 61.75603638 92.82317444 62.72947998 92.84375 63.73242188 C92.86799042 64.75198975 92.89223083 65.77155762 92.91720581 66.82202148 C93.12885602 76.24996354 93.25342187 85.67938023 93.35150146 95.10912323 C93.418542 101.44747718 93.51420525 107.78250417 93.67871094 114.11914062 C93.83696344 120.24146914 93.92129233 126.36075874 93.95428467 132.48500061 C93.97943021 134.81692527 94.03065442 137.14872314 94.10870361 139.47947693 C94.67753474 157.27223646 94.67753474 157.27223646 91.04144287 161.86282349 C87.52254356 164.86317541 83.64869064 166.65689279 79.34866333 168.2719574 C76.53827444 169.42139735 74.12004885 171.07972905 71.6171875 172.78125 C67.82503365 175.21668019 63.98308753 177.45750554 60.02734375 179.61328125 C54.84655903 182.51100829 49.79086856 185.62765938 44.70947266 188.6953125 C42.32064762 190.13460457 39.92829832 191.56789802 37.53515625 193 C36.6855835 193.50893799 35.83601074 194.01787598 34.96069336 194.54223633 C33.23762551 195.57302765 31.5131853 196.60152854 29.78735352 197.62768555 C25.98605204 199.89540531 22.21762783 202.18171468 18.5390625 204.64453125 C17.9527002 205.0305249 17.36633789 205.41651855 16.76220703 205.81420898 C15.23718503 206.82659002 13.72724974 207.86159806 12.21875 208.8984375 C9.4921875 210.03125 9.4921875 210.03125 6.55859375 209.4921875 C3.10952211 207.84893553 -0.04191075 205.9216975 -3.1953125 203.78125 C-8.16980039 200.42595499 -13.27264227 197.48588419 -18.55688477 194.64208984 C-23.64723612 191.86339056 -28.63380941 188.90765437 -33.6328125 185.96875 C-35.67654158 184.76860821 -37.7208042 183.56937449 -39.765625 182.37109375 C-40.73274414 181.80374512 -41.69986328 181.23639648 -42.69628906 180.65185547 C-46.04603099 178.72101256 -49.43981202 176.88129073 -52.85888672 175.07641602 C-54.5078125 174.03125 -54.5078125 174.03125 -55.5078125 172.03125 C-55.88326117 168.10168994 -55.92500188 164.16375597 -56.0078125 160.21875 C-56.06195313 159.12498047 -56.11609375 158.03121094 -56.171875 156.90429688 C-56.30627355 149.02758161 -56.30627355 149.02758161 -54.08325195 146.25366211 C-52.28169958 144.94846823 -50.52019589 143.97297296 -48.5078125 143.03125 C-47.65574219 142.50917969 -46.80367187 141.98710937 -45.92578125 141.44921875 C-45.18972656 141.04316406 -44.45367187 140.63710937 -43.6953125 140.21875 C-42.94636719 139.79980469 -42.19742188 139.38085938 -41.42578125 138.94921875 C-39.5078125 138.03125 -39.5078125 138.03125 -37.5078125 138.03125 C-37.56130859 138.7111499 -37.61480469 139.3910498 -37.66992188 140.09155273 C-38.97385519 152.70069967 -38.97385519 152.70069967 -34.89013672 164.05126953 C-30.5651083 167.44388104 -25.69956325 169.34554063 -20.5078125 171.03125 C-20.5078125 171.69125 -20.5078125 172.35125 -20.5078125 173.03125 C-19.71117187 173.16080078 -19.71117187 173.16080078 -18.8984375 173.29296875 C-15.64633416 174.29729478 -13.12370069 176.01352045 -10.2578125 177.84375 C-1.01284705 184.10208899 -1.01284705 184.10208899 9.4921875 187.03125 C11.88387567 185.80645085 13.92750378 184.60603157 16.1171875 183.09375 C22.13972506 179.03125 22.13972506 179.03125 25.4921875 179.03125 C25.4921875 178.37125 25.4921875 177.71125 25.4921875 177.03125 C26.03311035 176.73702148 26.5740332 176.44279297 27.13134766 176.13964844 C33.64598263 172.5628216 39.96233076 168.71305509 46.26953125 164.78515625 C47.03136719 164.31464844 47.79320312 163.84414063 48.578125 163.359375 C49.2592334 162.9355957 49.9403418 162.51181641 50.64208984 162.07519531 C52.4921875 161.03125 52.4921875 161.03125 55.4921875 160.03125 C55.4921875 159.04125 55.4921875 158.05125 55.4921875 157.03125 C54.64140625 156.85529297 54.64140625 156.85529297 53.7734375 156.67578125 C44.66383107 154.10200546 35.93449251 147.34216063 27.92578125 142.43432617 C22.25370721 138.98631993 16.47267165 135.91068353 10.4921875 133.03125 C10.4921875 132.37125 10.4921875 131.71125 10.4921875 131.03125 C9.9765625 130.94875 9.4609375 130.86625 8.9296875 130.78125 C5.4575859 129.71291105 2.62974341 127.86179604 -0.5078125 126.03125 C-0.8900791 119.64690651 -1.15151384 113.26552553 -1.33178711 106.87231445 C-1.40695156 104.70159731 -1.50913102 102.5316332 -1.6394043 100.36352539 C-2.66690802 82.81537364 -2.66690802 82.81537364 0.91619873 78.19500732 C4.42933867 75.21102402 8.33244061 73.43665656 12.61764526 71.82540894 C14.81922479 70.96162075 14.81922479 70.96162075 17.79321289 68.82641602 C20.4921875 67.03125 20.4921875 67.03125 23.4921875 67.03125 C23.4921875 66.37125 23.4921875 65.71125 23.4921875 65.03125 C24.13542969 64.6909375 24.77867187 64.350625 25.44140625 64 C32.98054295 59.95618345 40.24480074 55.57094854 47.4921875 51.03125 C44.67586048 48.71020808 41.97450284 46.60254772 38.7421875 44.90625 C34.23814239 42.47122727 29.83449996 39.88954523 25.4296875 37.28125 C23.20428502 35.97394968 20.97789545 34.66834137 18.75146484 33.36279297 C17.24338885 32.47398311 15.73849485 31.57975237 14.23681641 30.68017578 C12.07942411 29.38820221 9.91207495 28.11459381 7.7421875 26.84375 C7.08726318 26.44510742 6.43233887 26.04646484 5.75756836 25.63574219 C3.09212947 24.09319623 1.06890307 23.02947549 -2.046875 23.0390625 C-5.32069928 24.3589853 -8.20060675 26.1556825 -11.1328125 28.09375 C-17.10973558 32.03125 -17.10973558 32.03125 -20.5078125 32.03125 C-20.5078125 32.69125 -20.5078125 33.35125 -20.5078125 34.03125 C-21.13945312 34.3715625 -21.77109375 34.711875 -22.421875 35.0625 C-27.87773985 38.01841525 -33.30374099 41.02240838 -38.6953125 44.09375 C-39.29077881 44.43277344 -39.88624512 44.77179688 -40.49975586 45.12109375 C-43.79058934 47.00757627 -47.01368154 48.96669903 -50.1953125 51.03125 C-53.5078125 53.03125 -53.5078125 53.03125 -56.5078125 53.03125 C-56.5078125 53.69125 -56.5078125 54.35125 -56.5078125 55.03125 C-58.4878125 56.02125 -60.4678125 57.01125 -62.5078125 58.03125 C-59.99149201 60.89109547 -57.16895697 62.44593822 -53.8203125 64.21875 C-52.82644531 64.74855469 -51.83257812 65.27835937 -50.80859375 65.82421875 C-50.04933594 66.22253906 -49.29007813 66.62085938 -48.5078125 67.03125 C-48.5078125 67.69125 -48.5078125 68.35125 -48.5078125 69.03125 C-47.9298291 69.15346924 -47.3518457 69.27568848 -46.75634766 69.40161133 C-44.43539011 70.05152984 -42.63006174 70.9282652 -40.53125 72.10546875 C-39.40759033 72.72965698 -39.40759033 72.72965698 -38.26123047 73.36645508 C-36.65469916 74.27987911 -35.05223359 75.20048577 -33.45361328 76.12768555 C-30.0260312 78.109029 -26.82529904 79.914013 -23.1015625 81.2890625 C-20.05456946 82.47108566 -18.63426561 83.56563452 -16.5078125 86.03125 C-15.97070312 88.41430664 -15.97070312 88.41430664 -15.9140625 91.06640625 C-15.89102051 92.01539795 -15.86797852 92.96438965 -15.84423828 93.94213867 C-15.90121474 98.32031038 -16.13009158 102.66944508 -16.5078125 107.03125 C-20.73766709 106.13020225 -24.00346101 104.04703286 -27.6328125 101.78125 C-33.45218715 98.21128611 -39.31865196 94.92923341 -45.5078125 92.03125 C-45.5078125 91.37125 -45.5078125 90.71125 -45.5078125 90.03125 C-46.03246094 89.94230469 -46.55710938 89.85335937 -47.09765625 89.76171875 C-50.3681197 88.7705086 -53.14817792 87.07383409 -56.0703125 85.34375 C-60.43421558 82.79277374 -64.81699647 80.3031801 -69.25756836 77.88745117 C-70.24244736 77.35133713 -71.22732635 76.81522308 -72.24205017 76.26286316 C-73.36360252 75.65321465 -73.36360252 75.65321465 -74.5078125 75.03125 C-74.51589935 76.07916718 -74.52398621 77.12708435 -74.53231812 78.20675659 C-74.60968886 88.06606018 -74.69740485 97.92522422 -74.79533958 107.78434563 C-74.845358 112.85343547 -74.89168738 117.9225039 -74.9296875 122.99169922 C-74.96647046 127.88064423 -75.01281099 132.76941249 -75.06587601 137.65820694 C-75.08445724 139.52655065 -75.0995513 141.3949323 -75.11115646 143.26333237 C-75.12795538 145.8734943 -75.15697427 148.48324811 -75.18896484 151.09326172 C-75.19112503 151.8715332 -75.19328522 152.64980469 -75.19551086 153.45166016 C-75.27970818 158.80314568 -75.27970818 158.80314568 -77.5078125 161.03125 C-78.4978125 161.03125 -79.4878125 161.03125 -80.5078125 161.03125 C-80.5078125 161.69125 -80.5078125 162.35125 -80.5078125 163.03125 C-82.2742782 164.0389452 -84.04615073 165.03716714 -85.8203125 166.03125 C-86.80644531 166.588125 -87.79257813 167.145 -88.80859375 167.71875 C-91.5078125 169.03125 -91.5078125 169.03125 -94.5078125 169.03125 C-94.5078125 131.41125 -94.5078125 93.79125 -94.5078125 55.03125 C-92.5278125 54.53625 -92.5278125 54.53625 -90.5078125 54.03125 C-90.5078125 53.37125 -90.5078125 52.71125 -90.5078125 52.03125 C-89.99589355 51.75007324 -89.48397461 51.46889648 -88.95654297 51.17919922 C-82.46286157 47.59395136 -76.04134738 43.89118626 -69.6328125 40.15625 C-68.11494141 39.27646484 -68.11494141 39.27646484 -66.56640625 38.37890625 C-60.51809553 34.85524252 -54.60294749 31.19953256 -48.78076172 27.31201172 C-46.5078125 26.03125 -46.5078125 26.03125 -43.5078125 26.03125 C-43.5078125 25.37125 -43.5078125 24.71125 -43.5078125 24.03125 C-42.87617188 23.6909375 -42.24453125 23.350625 -41.59375 23 C-36.31104397 20.1378999 -31.05164321 17.23626115 -25.8203125 14.28125 C-25.244021 13.95584229 -24.66772949 13.63043457 -24.07397461 13.29516602 C-20.72607387 11.37980022 -17.4620215 9.37400339 -14.234375 7.26171875 C-13.51983154 6.79797852 -12.80528809 6.33423828 -12.0690918 5.85644531 C-10.67914747 4.94824396 -9.29734505 4.02742739 -7.92504883 3.09277344 C-5.25367351 1.35055738 -3.24176805 0.04039586 0 0 Z M67.4921875 60.03125 C64.49343174 61.53062788 62.1812396 63.07092676 59.4921875 65.03125 C57.18702895 66.54443554 54.87582862 68.04317938 52.5546875 69.53125 C51.99394531 69.89831055 51.43320312 70.26537109 50.85546875 70.64355469 C44.64866606 74.67584107 38.35185232 78.3124413 31.4921875 81.1171875 C26.27997856 83.40656728 21.2490992 85.63023712 17.4921875 90.03125 C14.67726376 97.8526764 14.86673072 108.15487966 17.4921875 116.03125 C19.93985126 117.75987655 19.93985126 117.75987655 22.98828125 119.38671875 C24.66180664 120.31967773 24.66180664 120.31967773 26.36914062 121.27148438 C26.9531665 121.59076904 27.53719238 121.91005371 28.13891602 122.23901367 C29.92473416 123.21604001 31.7020309 124.20729471 33.47851562 125.20117188 C38.69875002 128.55865692 38.69875002 128.55865692 44.4921875 130.03125 C44.4921875 130.69125 44.4921875 131.35125 44.4921875 132.03125 C45.45318359 132.50304687 45.45318359 132.50304687 46.43359375 132.984375 C52.47064906 135.9714128 58.33197552 139.09496278 64.07421875 142.61328125 C64.97527344 143.16371094 65.87632812 143.71414062 66.8046875 144.28125 C67.64644531 144.80203125 68.48820312 145.3228125 69.35546875 145.859375 C71.37828816 147.19154079 71.37828816 147.19154079 73.4921875 147.03125 C73.4921875 119.31125 73.4921875 91.59125 73.4921875 63.03125 C71.5121875 62.04125 69.5321875 61.05125 67.4921875 60.03125 Z " fill="#EDEDED" transform="translate(250.5078125,94.96875)"/>
<path d="M0 0 C3.36328125 -0.12841797 3.36328125 -0.12841797 7 0 C9.1875 2.0546875 9.1875 2.0546875 11 4.875 C11.99 6.36580078 11.99 6.36580078 13 7.88671875 C13.66 8.91410156 14.32 9.94148438 15 11 C16.3259378 12.90101309 17.65872556 14.79727655 19 16.6875 C20.00104724 18.12427092 21.00146334 19.56148313 22 21 C22.02505615 20.39937744 22.0501123 19.79875488 22.07592773 19.17993164 C22.1915528 16.47388563 22.31442936 13.76821717 22.4375 11.0625 C22.47681641 10.11697266 22.51613281 9.17144531 22.55664062 8.19726562 C22.59853516 7.29814453 22.64042969 6.39902344 22.68359375 5.47265625 C22.72025146 4.64000244 22.75690918 3.80734863 22.79467773 2.94946289 C23 1 23 1 24 0 C26.31 0 28.62 0 31 0 C31 12.21 31 24.42 31 37 C23 37 23 37 20.71484375 34.98046875 C20.12832031 34.05878906 19.54179687 33.13710938 18.9375 32.1875 C18.28652344 31.19492187 17.63554687 30.20234375 16.96484375 29.1796875 C16.31644531 28.13039063 15.66804687 27.08109375 15 26 C13.98099609 24.42605469 13.98099609 24.42605469 12.94140625 22.8203125 C11.269192 20.22955802 9.63122485 17.61675653 8 15 C7.67 22.26 7.34 29.52 7 37 C5.02 37 3.04 37 1 37 C0 36 0 36 -0.11352539 32.58178711 C-0.11336628 31.06363012 -0.10767226 29.54546771 -0.09765625 28.02734375 C-0.0962413 27.22970108 -0.09482635 26.43205841 -0.09336853 25.61024475 C-0.08775316 23.05262565 -0.07519812 20.49509282 -0.0625 17.9375 C-0.05748698 16.20768355 -0.05292373 14.47786574 -0.04882812 12.74804688 C-0.03777875 8.49866447 -0.02050386 4.24934688 0 0 Z " fill="#D7D6D6" transform="translate(221,339)"/>
<path d="M0 0 C3.63 0 7.26 0 11 0 C13.37431161 5.73109698 15.50210691 11.38513081 17.20703125 17.34765625 C18.40646224 21.35954611 19.82464653 25.29460769 21.23046875 29.23828125 C21.99206568 31.97152505 22.14895213 34.18018203 22 37 C19.03 37 16.06 37 13 37 C12.01 33.535 12.01 33.535 11 30 C7.04 30 3.08 30 -1 30 C-1.66 32.31 -2.32 34.62 -3 37 C-5.97 37 -8.94 37 -12 37 C-11.36439156 31.34005818 -9.98899739 26.16630886 -8.25 20.75 C-7.85337158 19.50126099 -7.85337158 19.50126099 -7.44873047 18.22729492 C-5.39870989 11.9146792 -2.93653332 5.95943527 0 0 Z M4 14 C3.34 16.31 2.68 18.62 2 21 C3.98 21 5.96 21 8 21 C7.34 18.69 6.68 16.38 6 14 C5.34 14 4.68 14 4 14 Z " fill="#DFDEDF" transform="translate(368,339)"/>
<path d="M0 0 C4.96029156 2.26258913 7.34763619 5.28468657 10 10 C11.98135671 16.45581126 11.6176617 23.01546181 8.9765625 29.2109375 C6.82455368 33.15341767 4.21851454 35.43135988 0.1875 37.3125 C-6.40958055 38.73539973 -11.26984245 38.61226266 -17.171875 35.3359375 C-20.9988546 32.53929856 -23.35723472 28.97773932 -24.8125 24.5 C-24.874375 23.675 -24.93625 22.85 -25 22 C-25.0825 20.906875 -25.165 19.81375 -25.25 18.6875 C-24.85222252 12.82028223 -23.37856201 8.62599622 -19.5625 4.125 C-13.50977495 -0.89433297 -7.66662937 -0.76379869 0 0 Z M-14.5 8.375 C-17.26498958 13.21373176 -17.32354053 18.6889962 -16.5625 24.125 C-16.376875 24.74375 -16.19125 25.3625 -16 26 C-15.34 26 -14.68 26 -14 26 C-14 26.66 -14 27.32 -14 28 C-13.34 28 -12.68 28 -12 28 C-12 28.66 -12 29.32 -12 30 C-5.49506453 30.54876978 -5.49506453 30.54876978 0.5625 28.625 C3.06521811 24.0548191 3.70801415 18.95636442 2.48828125 13.86328125 C1.14561746 10.4746536 0.06722681 9.04481787 -3 7 C-7.14786399 6.3430639 -10.78954675 6.33425071 -14.5 8.375 Z " fill="#D8D7D7" transform="translate(281,339)"/>
<path d="M0 0 C3.37470504 -0.11689626 6.7488843 -0.18747934 10.125 -0.25 C11.07632812 -0.28351563 12.02765625 -0.31703125 13.0078125 -0.3515625 C19.04026867 -0.43534661 22.40583374 -0.01253303 27 4 C29.38713778 6.9441366 29.96192889 8.65101478 30.375 12.4375 C29.95972693 16.38259412 29.17955121 18.69309472 27 22 C21.51083289 26.1072113 16.63274682 25.21866198 10 25 C10 28.96 10 32.92 10 37 C3.06640625 37.09765625 3.06640625 37.09765625 1 37 C0 36 0 36 -0.11352539 32.58178711 C-0.11336628 31.06363012 -0.10767226 29.54546771 -0.09765625 28.02734375 C-0.0962413 27.22970108 -0.09482635 26.43205841 -0.09336853 25.61024475 C-0.08775316 23.05262565 -0.07519812 20.49509282 -0.0625 17.9375 C-0.05748698 16.20768355 -0.05292373 14.47786574 -0.04882812 12.74804688 C-0.03777875 8.49866447 -0.02050386 4.24934688 0 0 Z M10 8 C10 10.97 10 13.94 10 17 C12.97 17 15.94 17 19 17 C19.67673447 13.59679066 19.67673447 13.59679066 20 10 C18.23863645 7.81668311 18.23863645 7.81668311 16.0546875 7.8046875 C13.02734375 7.90234375 13.02734375 7.90234375 10 8 Z " fill="#DEDEDE" transform="translate(296,339)"/>
<path d="M0 0 C2.64 0 5.28 0 8 0 C8 4.95 8 9.9 8 15 C12.95 15 17.9 15 23 15 C23 10.05 23 5.1 23 0 C25.31 0 27.62 0 30 0 C30 12.21 30 24.42 30 37 C27.69 37 25.38 37 23 37 C23 32.05 23 27.1 23 22 C18.05 22 13.1 22 8 22 C8 26.95 8 31.9 8 37 C5.36 37 2.72 37 0 37 C0 24.79 0 12.58 0 0 Z " fill="#DFDFDF" transform="translate(185,339)"/>
<path d="M0 0 C8.25 0 16.5 0 25 0 C25 2.31 25 4.62 25 7 C19.06 7 13.12 7 7 7 C7 9.64 7 12.28 7 15 C12.28 15 17.56 15 23 15 C23 17.31 23 19.62 23 22 C17.72 22 12.44 22 7 22 C7 24.64 7 27.28 7 30 C12.94 30 18.88 30 25 30 C25 32.31 25 34.62 25 37 C16.75 37 8.5 37 0 37 C0 24.79 0 12.58 0 0 Z " fill="#D8D8D8" transform="translate(119,339)"/>
<path d="M0 0 C3.1958054 2.58384266 4.52165759 4.543897 5.9375 8.375 C5.9375 9.035 5.9375 9.695 5.9375 10.375 C2.75 11.1875 2.75 11.1875 -1.0625 11.375 C-2.72916667 9.70833333 -4.39583333 8.04166667 -6.0625 6.375 C-9.06299375 5.63993928 -10.89334283 5.92226326 -14.0625 6.375 C-16.91292162 8.51281621 -17.93980027 9.6726165 -18.55859375 13.21484375 C-18.53925781 14.23707031 -18.51992187 15.25929688 -18.5 16.3125 C-18.49871094 17.33214844 -18.49742187 18.35179687 -18.49609375 19.40234375 C-18.00635859 22.75989744 -17.10482126 24.68087408 -15.0625 27.375 C-11.75453505 28.45368422 -9.7420329 28.548834 -6.375 27.6875 C-3.93894098 26.53100706 -3.93894098 26.53100706 -2.625 24.25 C-2.109375 23.63125 -1.59375 23.0125 -1.0625 22.375 C2.125 22.125 2.125 22.125 4.9375 22.375 C5.6875 24 5.6875 24 5.9375 26.375 C3.61230449 30.38395778 1.64629559 33.64265903 -2.6875 35.5 C-9.63894052 37.30222532 -14.76634441 36.88631754 -21.0625 33.375 C-25.96923291 28.60088149 -27.14000567 23.09907851 -27.375 16.4375 C-27.29221964 11.52335672 -26.04913641 7.84493193 -24.0625 3.375 C-23.4025 3.375 -22.7425 3.375 -22.0625 3.375 C-22.0625 2.715 -22.0625 2.055 -22.0625 1.375 C-15.70679257 -2.86213829 -6.89549233 -3.50643121 0 0 Z " fill="#D6D5D6" transform="translate(175.0625,340.625)"/>
<path d="M0 0 C3.3 0 6.6 0 10 0 C10.42152344 0.78246094 10.84304688 1.56492187 11.27734375 2.37109375 C11.82519531 3.38300781 12.37304688 4.39492188 12.9375 5.4375 C13.48277344 6.44683594 14.02804687 7.45617187 14.58984375 8.49609375 C15.77699468 10.86670493 15.77699468 10.86670493 17 12 C18.98 8.04 20.96 4.08 23 0 C26.3 0 29.6 0 33 0 C31.9326608 4.26935679 30.14759859 7.73551374 28.0625 11.5625 C27.70220703 12.23474609 27.34191406 12.90699219 26.97070312 13.59960938 C25.41388084 16.48675493 23.82066551 19.26900173 22 22 C21.70008931 24.58885171 21.49134775 27.09149082 21.375 29.6875 C21.33632813 30.38939453 21.29765625 31.09128906 21.2578125 31.81445312 C21.1637666 33.54254655 21.0808032 35.27123675 21 37 C18.03 37 15.06 37 12 37 C11.99613281 35.54980469 11.99613281 35.54980469 11.9921875 34.0703125 C11.72180991 24.96760029 10.38666863 19.53875872 5 12 C4.0175172 10.36846769 3.05782305 8.72292503 2.125 7.0625 C1.71507812 6.35222656 1.30515625 5.64195312 0.8828125 4.91015625 C0 3 0 3 0 0 Z " fill="#DCDCDC" transform="translate(385,339)"/>
<path d="M0 0 C2.97 0 5.94 0 9 0 C9 9.24 9 18.48 9 28 C14.28 28 19.56 28 25 28 C25 30.97 25 33.94 25 37 C16.75 37 8.5 37 0 37 C0 24.79 0 12.58 0 0 Z " fill="#E4E3E4" transform="translate(329,339)"/>
<path d="M0 0 C9.57 0 19.14 0 29 0 C29 1.98 29 3.96 29 6 C28.67 6.33 28.34 6.66 28 7 C24.7 7 21.4 7 18 7 C18 16.9 18 26.8 18 37 C15.36 37 12.72 37 10 37 C10 27.1 10 17.2 10 7 C6.7 7 3.4 7 0 7 C0 4.69 0 2.38 0 0 Z " fill="#D2D2D1" transform="translate(86,339)"/>
</svg>
