<?xml version="1.0" encoding="UTF-8"?>
<svg version="1.1" xmlns="http://www.w3.org/2000/svg" width="720" height="160">
<path d="M0 0 C2.10409639 -0.02701408 4.20829178 -0.04640223 6.3125 -0.0625 C7.48425781 -0.07410156 8.65601563 -0.08570313 9.86328125 -0.09765625 C13 0 13 0 16 1 C17.16259766 3.29101562 17.16259766 3.29101562 18.2890625 6.40625 C18.93343262 8.17548828 18.93343262 8.17548828 19.59082031 9.98046875 C20.06193067 11.31982656 20.53159234 12.65969459 21 14 C21.25036011 14.70785645 21.50072021 15.41571289 21.75866699 16.14501953 C23.39546559 20.78019237 24.99063851 25.42818978 26.55908203 30.08691406 C27.10847841 31.71175959 27.66327564 33.33478784 28.22314453 34.95605469 C29.04328993 37.33148449 29.84758032 39.71175852 30.6484375 42.09375 C30.90039886 42.81461792 31.15236023 43.53548584 31.41195679 44.27819824 C32.7150638 48.22152965 33.29033062 50.99948815 32 55 C30.37509046 55.02698189 28.75005367 55.04638757 27.125 55.0625 C26.22007812 55.07410156 25.31515625 55.08570313 24.3828125 55.09765625 C22 55 22 55 20 54 C18.77145255 50.38761965 17.93623158 46.70237034 17 43 C11.06 43 5.12 43 -1 43 C-1.474375 44.60875 -1.94875 46.2175 -2.4375 47.875 C-3.875 52.75 -3.875 52.75 -5 55 C-8.63 55 -12.26 55 -16 55 C-17.09669634 50.61321464 -16.75579727 49.38645833 -15.375 45.22265625 C-15.00117187 44.07845215 -14.62734375 42.93424805 -14.2421875 41.75537109 C-13.83226562 40.53672363 -13.42234375 39.31807617 -13 38.0625 C-12.38511719 36.19585693 -12.38511719 36.19585693 -11.7578125 34.29150391 C-10.9201003 31.74876358 -10.07622398 29.20820576 -9.2265625 26.66943359 C-8.10011784 23.29951655 -6.98510327 19.92610955 -5.875 16.55078125 C-4.69249966 12.96707513 -3.50922813 9.38367063 -2.3125 5.8046875 C-2.08175781 5.11358887 -1.85101562 4.42249023 -1.61328125 3.71044922 C-1 2 -1 2 0 0 Z M7 16 C6.13670227 18.45546966 5.28410564 20.91378043 4.4375 23.375 C4.0672168 24.42300781 4.0672168 24.42300781 3.68945312 25.4921875 C3.06908951 27.30959075 2.52893476 29.15391397 2 31 C2.33 31.66 2.66 32.32 3 33 C5.97 33 8.94 33 12 33 C13.30009681 29.09970958 12.40794184 27.26488883 11.1875 23.375 C10.65189453 21.62316406 10.65189453 21.62316406 10.10546875 19.8359375 C9.31838741 16.87964023 9.31838741 16.87964023 7 16 Z " fill="#055DF6" transform="translate(528,46)"/>
<path d="M0 0 C2.08776291 -0.01709702 4.17389327 -0.06094476 6.26123047 -0.10522461 C18.86280065 -0.25376945 18.86280065 -0.25376945 24.49169922 4.29516602 C29.03211917 10.14991806 30.30449105 15.03893752 29.49169922 22.29516602 C27.97028888 27.64432849 24.86296999 32.02577868 20.32763672 35.24047852 C13.80468472 37.66636976 6.33303875 36.68985868 -0.50830078 36.29516602 C-0.50830078 41.90516602 -0.50830078 47.51516602 -0.50830078 53.29516602 C-2.84932937 54.46568031 -4.40183031 54.49439062 -7.00830078 54.54516602 C-7.80236328 54.57094727 -8.59642578 54.59672852 -9.41455078 54.62329102 C-10.10548828 54.51500977 -10.79642578 54.40672852 -11.50830078 54.29516602 C-13.67847564 51.03990372 -13.75732056 50.14136106 -13.7512207 46.38061523 C-13.75429733 45.38303192 -13.75737396 44.38544861 -13.76054382 43.3576355 C-13.75335831 42.28256744 -13.74617279 41.20749939 -13.73876953 40.09985352 C-13.73831131 38.99666779 -13.73785309 37.89348206 -13.73738098 36.75686646 C-13.7343592 34.42505823 -13.72647511 32.09325201 -13.71411133 29.76147461 C-13.69583859 26.17758091 -13.69360174 22.59394521 -13.69384766 19.01000977 C-13.68893318 16.74828877 -13.68310517 14.48656953 -13.67626953 12.22485352 C-13.67515671 11.145737 -13.67404388 10.06662048 -13.67289734 8.95480347 C-13.66651749 7.96352448 -13.66013763 6.97224548 -13.65356445 5.95092773 C-13.64975266 5.07395233 -13.64594086 4.19697693 -13.64201355 3.29342651 C-13.27707442 -2.16037906 -4.10148677 0.02338525 0 0 Z M-0.50830078 11.29516602 C-0.50830078 15.91516602 -0.50830078 20.53516602 -0.50830078 25.29516602 C1.57482422 25.33641602 3.65794922 25.37766602 5.80419922 25.42016602 C6.97595703 25.44336914 8.14771484 25.46657227 9.35498047 25.49047852 C12.65563583 25.5483722 12.65563583 25.5483722 15.49169922 23.29516602 C16.18482392 21.21066754 16.18482392 21.21066754 16.36669922 18.85766602 C16.46724609 18.07520508 16.56779297 17.29274414 16.67138672 16.48657227 C16.64944904 14.2692966 16.64944904 14.2692966 15.44873047 12.52172852 C12.44053973 10.63635548 9.80500975 11.01131343 6.30419922 11.10766602 C2.93201172 11.20047852 2.93201172 11.20047852 -0.50830078 11.29516602 Z " fill="#0858EC" transform="translate(436.50830078125,46.704833984375)"/>
<path d="M0 0 C2.81163862 -0.20087025 5.23193729 -0.36529466 8 0 C10.05053711 1.79736328 10.05053711 1.79736328 11.52734375 4.3203125 C12.0879248 5.24247559 12.64850586 6.16463867 13.22607422 7.11474609 C13.79084473 8.10812988 14.35561523 9.10151367 14.9375 10.125 C16.14684814 12.14079737 17.35648391 14.15642222 18.56640625 16.171875 C19.43869873 17.65977539 19.43869873 17.65977539 20.32861328 19.17773438 C22.57830382 22.97651069 24.96120204 26.67922804 27.375 30.375 C28.08398438 31.47585937 28.79296875 32.57671875 29.5234375 33.7109375 C30.01070313 34.46632812 30.49796875 35.22171875 31 36 C32.49622848 33.00754304 32.21828326 29.90673826 32.28125 26.62109375 C32.29965942 25.89382584 32.31806885 25.16655792 32.33703613 24.41725159 C32.41583133 21.29988511 32.48360043 18.18230117 32.55224609 15.06469727 C32.60385632 12.79171678 32.66114166 10.51892881 32.71875 8.24609375 C32.73232544 7.53569443 32.74590088 6.8252951 32.7598877 6.09336853 C32.88717013 1.11282987 32.88717013 1.11282987 34 0 C35.99958364 -0.04080783 38.00045254 -0.04254356 40 0 C41.24801863 2.49603726 41.0902917 4.10258646 41.03759766 6.89282227 C41.02072906 7.91050186 41.00386047 8.92818146 40.98648071 9.97669983 C40.9625827 11.07880295 40.93868469 12.18090607 40.9140625 13.31640625 C40.89282318 14.44320297 40.87158386 15.56999969 40.84970093 16.73094177 C40.80338812 19.11584466 40.75445587 21.50069789 40.703125 23.88549805 C40.6252547 27.55051221 40.55814371 31.21561362 40.4921875 34.88085938 C40.44595887 37.19272135 40.39910513 39.50457092 40.3515625 41.81640625 C40.33171295 42.9205336 40.3118634 44.02466095 40.29141235 45.1622467 C40.26823944 46.17677414 40.24506653 47.19130157 40.22119141 48.23657227 C40.20263092 49.13432877 40.18407043 50.03208527 40.16494751 50.95704651 C40 53 40 53 39 54 C36.14355469 54.328125 36.14355469 54.328125 33 54 C31.19238281 52.234375 31.19238281 52.234375 29.703125 49.75 C29.14141602 48.83822998 28.57970703 47.92645996 28.00097656 46.98706055 C27.4231543 46.00133057 26.84533203 45.01560059 26.25 44 C25.64381836 43.00718018 25.03763672 42.01436035 24.41308594 40.99145508 C23.18060271 38.9705403 21.95692876 36.94422634 20.7421875 34.91259766 C18.70974765 31.51475469 16.64000147 28.1418513 14.54980469 24.77929688 C13.69970897 23.41122398 12.85631094 22.0389606 12.02050781 20.66210938 C10.07022632 17.2658993 10.07022632 17.2658993 7 15 C7.0721875 15.64582031 7.144375 16.29164062 7.21875 16.95703125 C7.86935715 23.56250105 8.10946297 30.11763105 8.125 36.75 C8.12951172 37.54124268 8.13402344 38.33248535 8.13867188 39.14770508 C8.12604623 44.18270816 7.71691557 49.01572984 7 54 C4.125 54.125 4.125 54.125 1 54 C-1.44997791 51.55002209 -1.23631251 50.21655702 -1.25224304 46.87315369 C-1.24505753 46.17122391 -1.23787201 45.46929413 -1.23046875 44.74609375 C-1.23001053 44.01238052 -1.22955231 43.2786673 -1.2290802 42.52272034 C-1.22605206 40.95824583 -1.21814907 39.39377449 -1.20581055 37.8293457 C-1.18796885 35.49874458 -1.18529822 33.16855172 -1.18554688 30.83789062 C-1.16047508 20.52927335 -0.71050017 10.28303873 0 0 Z " fill="#0C5BED" transform="translate(319,47)"/>
<path d="M0 0 C7.11440897 4.05236735 9.95752728 9.77269049 12.8125 17.25 C14.67321287 25.3652099 12.96745193 35.9715562 8.765625 43.16796875 C3.98887767 49.37479166 -1.47224185 52.44618647 -9.125 53.6875 C-15.21230166 54.1585412 -20.21141798 52.84693231 -25.5 49.8125 C-32.71031901 43.51666047 -35.73986467 37.29461642 -36.69921875 27.8515625 C-37.10496501 20.10040988 -34.97006895 11.71979272 -30.375 5.375 C-21.50062362 -2.53477025 -11.06168411 -5.12416249 0 0 Z M-23.5 8.8125 C-28.70307025 15.98914862 -28.0010018 24.31368761 -27.5 32.8125 C-26.40718684 38.01842094 -23.46858555 41.35270747 -19.5 44.8125 C-16.82344199 46.15077901 -14.67565948 46.01828556 -11.6875 46.0625 C-10.64980469 46.08828125 -9.61210937 46.1140625 -8.54296875 46.140625 C-5.07520434 45.76669405 -3.28822235 44.87104891 -0.5 42.8125 C5.6081916 35.00758852 5.06513542 26.31705029 4.5 16.8125 C3.43264838 11.66063744 0.86495926 8.72247284 -3.5 5.8125 C-9.8299118 2.6475441 -18.51429787 4.08247491 -23.5 8.8125 Z " fill="#0D57E4" transform="translate(403.5,48.1875)"/>
<path d="M0 0 C1.60332791 -0.08121924 3.20784026 -0.13929134 4.8125 -0.1875 C6.15248047 -0.23970703 6.15248047 -0.23970703 7.51953125 -0.29296875 C10.54709294 0.06461728 11.05163599 0.73480282 13 3 C14.16674805 4.86938477 14.16674805 4.86938477 15.26171875 6.94140625 C15.65810547 7.68970703 16.05449219 8.43800781 16.46289062 9.20898438 C16.86701172 9.98564453 17.27113281 10.76230469 17.6875 11.5625 C18.10322266 12.34302734 18.51894531 13.12355469 18.94726562 13.92773438 C22 19.73745382 22 19.73745382 22 22 C22.66 22 23.32 22 24 22 C24.36738281 20.75863281 24.36738281 20.75863281 24.7421875 19.4921875 C26.19193489 15.46711244 28.0723051 11.86772286 30.125 8.125 C30.49753906 7.43664063 30.87007812 6.74828125 31.25390625 6.0390625 C32.16499526 4.35705202 33.08190315 2.67819564 34 1 C38.29 1 42.58 1 47 1 C45.4279203 5.71623911 44.12222856 8.71277845 41.55859375 12.7890625 C33.1347218 26.6685884 28.00159175 37.32288436 29 54 C28 55 28 55 25.75 55.1328125 C24.8425 55.13023438 23.935 55.12765625 23 55.125 C21.63875 55.12886719 21.63875 55.12886719 20.25 55.1328125 C18 55 18 55 17 54 C17.0192108 52.04049832 17.03962544 50.08100148 17.06591797 48.12158203 C17.04968327 36.26329546 13.34374545 28.17909324 7.30126953 18.16113281 C5.38894344 14.9851646 3.59535019 11.74976405 1.8125 8.5 C1.24144531 7.4996875 0.67039062 6.499375 0.08203125 5.46875 C-1 3 -1 3 0 0 Z " fill="#085AF0" transform="translate(554,46)"/>
<path d="M0 0 C2.33294775 -0.04241723 4.66702567 -0.04092937 7 0 C8 1 8 1 8.11352539 3.13305664 C8.10828857 4.04949951 8.10305176 4.96594238 8.09765625 5.91015625 C8.09515869 6.800979 8.09266113 7.69180176 8.09008789 8.60961914 C8.07643188 10.31879517 8.07643188 10.31879517 8.0625 12.0625 C8.041875 15.671875 8.02125 19.28125 8 23 C15.92 23 23.84 23 32 23 C31.96056498 16.92720042 31.96056498 16.92720042 31.90991211 10.85449219 C31.90741455 10.09297852 31.90491699 9.33146484 31.90234375 8.546875 C31.89710693 7.77182617 31.89187012 6.99677734 31.88647461 6.19824219 C31.99963002 4.00716402 32.39447552 2.10362139 33 0 C35.31 0 37.62 0 40 0 C40.02526648 7.52969652 40.04283141 15.0593822 40.05493164 22.58911133 C40.0599737 25.15291757 40.06680714 27.71672091 40.07543945 30.28051758 C40.08751064 33.95655021 40.09322942 37.63254498 40.09765625 41.30859375 C40.10281754 42.46274277 40.10797882 43.61689178 40.11329651 44.80601501 C40.11337204 45.86703934 40.11344757 46.92806366 40.11352539 48.02124023 C40.115746 48.96055893 40.11796661 49.89987762 40.12025452 50.86766052 C40 53 40 53 39 54 C37.00041636 54.04080783 34.99954746 54.04254356 33 54 C31.74751498 51.49502996 31.88625594 49.79146726 31.90234375 46.9921875 C31.90484131 46.1038623 31.90733887 45.21553711 31.90991211 44.30029297 C31.91901611 43.16994629 31.92812012 42.03959961 31.9375 40.875 C31.9684375 35.491875 31.9684375 35.491875 32 30 C24.08 30 16.16 30 8 30 C8.03958834 37.52432774 8.03958834 37.52432774 8.09008789 45.04858398 C8.09258545 45.98001221 8.09508301 46.91144043 8.09765625 47.87109375 C8.10289307 48.82943115 8.10812988 49.78776855 8.11352539 50.77514648 C8 53 8 53 7 54 C5.00041636 54.04080783 2.99954746 54.04254356 1 54 C-0.60345839 50.46916893 -1.23523623 47.80364224 -1.13525391 43.93432617 C-1.11508209 42.95368698 -1.09491028 41.97304779 -1.0741272 40.96269226 C-1.02583267 39.39367912 -1.02583267 39.39367912 -0.9765625 37.79296875 C-0.95153656 36.71243729 -0.92651062 35.63190582 -0.90072632 34.51863098 C-0.81869319 31.07459365 -0.72203789 27.63114403 -0.625 24.1875 C-0.56674347 21.84963322 -0.50944056 19.51174247 -0.453125 17.17382812 C-0.31313917 11.44889476 -0.161153 5.72437451 0 0 Z " fill="#0C5BF1" transform="translate(269,47)"/>
<path d="M0 0 C11.55 0 23.1 0 35 0 C35 1.98 35 3.96 35 6 C33.22509454 7.77490546 30.62215098 7.23499973 28.21484375 7.31640625 C27.04501953 7.35830078 25.87519531 7.40019531 24.66992188 7.44335938 C23.43822266 7.48267578 22.20652344 7.52199219 20.9375 7.5625 C19.08415039 7.62727539 19.08415039 7.62727539 17.19335938 7.69335938 C14.12905159 7.79984111 11.06454115 7.90046065 8 8 C8 12.62 8 17.24 8 22 C16.25 22.33 24.5 22.66 33 23 C34 28 34 28 33 30 C24.75 30 16.5 30 8 30 C8 35.28 8 40.56 8 46 C9.86527344 45.98839844 11.73054687 45.97679687 13.65234375 45.96484375 C16.08072817 45.95546775 18.50911367 45.94636735 20.9375 45.9375 C22.78504883 45.92493164 22.78504883 45.92493164 24.66992188 45.91210938 C25.83974609 45.90888672 27.00957031 45.90566406 28.21484375 45.90234375 C29.84087524 45.89448853 29.84087524 45.89448853 31.49975586 45.88647461 C34 46 34 46 35 47 C35.04092937 49.33297433 35.04241723 51.66705225 35 54 C30.33691801 54.02468646 25.67387392 54.04285349 21.01074219 54.05493164 C19.42382139 54.05996588 17.83690523 54.06679369 16.25 54.07543945 C13.97134251 54.08754482 11.69274624 54.09323733 9.4140625 54.09765625 C8.34679428 54.10539818 8.34679428 54.10539818 7.25796509 54.11329651 C2.22774341 54.11387171 2.22774341 54.11387171 0 53 C0 35.51 0 18.02 0 0 Z " fill="#023AAC" transform="translate(173,47)"/>
<path d="M0 0 C0.9075 0.00257812 1.815 0.00515625 2.75 0.0078125 C4.11125 0.00394531 4.11125 0.00394531 5.5 0 C7.75 0.1328125 7.75 0.1328125 8.75 1.1328125 C8.90797205 2.54197581 9.00113365 3.95851283 9.06640625 5.375 C9.10838135 6.26815918 9.15035645 7.16131836 9.19360352 8.08154297 C9.23283936 9.04721191 9.2720752 10.01288086 9.3125 11.0078125 C9.3549585 11.98766113 9.39741699 12.96750977 9.44116211 13.97705078 C9.81718704 23.36935162 9.82229995 32.73381935 9.75 42.1328125 C17.67 42.4628125 25.59 42.7928125 33.75 43.1328125 C33.75 46.7628125 33.75 50.3928125 33.75 54.1328125 C30.75717264 55.62922618 27.68721394 55.27504229 24.40625 55.265625 C23.31890564 55.26706009 23.31890564 55.26706009 22.20959473 55.26852417 C20.67635003 55.26920493 19.14310245 55.26735786 17.60986328 55.26318359 C15.25937442 55.25783384 12.90907665 55.26313203 10.55859375 55.26953125 C9.07031208 55.26887045 7.58203052 55.26758925 6.09375 55.265625 C5.38851196 55.26764923 4.68327393 55.26967346 3.95666504 55.27175903 C-1.02007514 55.24777493 -1.02007514 55.24777493 -3.25 54.1328125 C-3.27526648 46.60311598 -3.29283141 39.0734303 -3.30493164 31.54370117 C-3.3099737 28.97989493 -3.31680714 26.41609159 -3.32543945 23.85229492 C-3.33751064 20.17626229 -3.34322942 16.50026752 -3.34765625 12.82421875 C-3.35281754 11.67006973 -3.35797882 10.51592072 -3.36329651 9.32679749 C-3.36337204 8.26577316 -3.36344757 7.20474884 -3.36352539 6.11157227 C-3.365746 5.17225357 -3.36796661 4.23293488 -3.37025452 3.26515198 C-3.20331608 0.30501857 -2.96175971 0.17482609 0 0 Z " fill="#025FFA" transform="translate(474.25,45.8671875)"/>
<path d="M0 0 C3.91587216 2.93690412 6.32375155 5.75466992 7.5 10.640625 C7.561875 11.506875 7.62375 12.373125 7.6875 13.265625 C4.4375 13.640625 4.4375 13.640625 0.6875 13.265625 C-1.5 10.390625 -1.5 10.390625 -3.3125 7.265625 C-7.87537645 4.25713504 -13.06208348 4.67123822 -18.3125 5.265625 C-22.92961271 7.28036509 -25.58635218 10.05423576 -27.6171875 14.59375 C-29.49968204 21.82760542 -29.75505714 31.1919993 -26.625 38.078125 C-23.79324077 41.98136069 -21.96111476 43.67704394 -17.23828125 44.7265625 C-12.18939122 45.49803975 -8.00960361 45.52384789 -3.3125 43.265625 C-1.90427518 41.23794644 -0.75307125 39.14629658 0.421875 36.9765625 C1.6875 35.265625 1.6875 35.265625 5 34.765625 C5.886875 34.930625 6.77375 35.095625 7.6875 35.265625 C8.6875 37.265625 8.6875 37.265625 7.625 41.078125 C5.37979646 46.66079327 1.43674254 49.6490323 -3.9375 52.140625 C-10.62281716 54.38187118 -18.29880928 53.46780422 -24.6875 50.640625 C-30.88248027 47.04727885 -34.88509986 41.78102252 -36.83984375 34.91015625 C-38.55027236 25.34023749 -38.04627886 15.8813818 -33.3125 7.265625 C-25.77431883 -3.13515662 -11.35225751 -6.71675236 0 0 Z " fill="#0E57EA" transform="translate(252.3125,48.734375)"/>
<path d="M0 0 C0.66 0.66 1.32 1.32 2 2 C2.99 1.67 3.98 1.34 5 1 C5 1.99 5 2.98 5 4 C4.01 4 3.02 4 2 4 C2.185625 5.03125 2.37125 6.0625 2.5625 7.125 C3 11 3 11 2 17 C7.28 17 12.56 17 18 17 C17.34 15.02 16.68 13.04 16 11 C15.96045766 8.66700175 15.95598268 6.33291811 16 4 C15.67 3.01 15.34 2.02 15 1 C18.65316671 2.24976756 19.78065836 2.67098753 22 6 C22.66 5.67 23.32 5.34 24 5 C25.13272952 8.30990627 26.25472699 11.62335902 27.375 14.9375 C27.69210937 15.86369141 28.00921875 16.78988281 28.3359375 17.74414062 C30.25975764 23.45548166 31.80044852 29.0931177 33 35 C30.03 35 27.06 35 24 35 C22.68 31.37 21.36 27.74 20 24 C13.4 24 6.8 24 0 24 C-0.61875 25.959375 -1.2375 27.91875 -1.875 29.9375 C-2.51983635 31.97948177 -3.21655744 34.00708223 -4 36 C-7.06890187 37.53445094 -9.70094266 36.54984289 -13 36 C-12.01161618 29.42427203 -10.11284714 23.22759726 -8.1875 16.875 C-7.67219727 15.10576172 -7.67219727 15.10576172 -7.14648438 13.30078125 C-6.80294922 12.16769531 -6.45941406 11.03460938 -6.10546875 9.8671875 C-5.79762451 8.83706543 -5.48978027 7.80694336 -5.17260742 6.74560547 C-3.89515801 3.75451738 -2.43084568 2.12496506 0 0 Z " fill="#045EF9" transform="translate(526,64)"/>
<path d="M0 0 C1.64510941 0.00015915 3.29022379 0.00585551 4.93530273 0.01586914 C6.23164894 0.01799156 6.23164894 0.01799156 7.55418396 0.02015686 C10.32578941 0.025773 13.09731528 0.0383282 15.86889648 0.05102539 C17.74324428 0.05603831 19.61759334 0.06060158 21.49194336 0.06469727 C26.09679192 0.07574767 30.70158069 0.09302309 35.30639648 0.11352539 C35.30639648 2.09352539 35.30639648 4.07352539 35.30639648 6.11352539 C27.38639648 6.60852539 27.38639648 6.60852539 19.30639648 7.11352539 C19.31425171 9.19588501 19.31425171 9.19588501 19.32226562 11.3203125 C19.34030995 16.45083984 19.3518264 21.58136436 19.36132812 26.71191406 C19.36636965 28.93620271 19.37320271 31.16048802 19.38183594 33.38476562 C19.39390947 36.57430848 19.39962644 39.76380768 19.40405273 42.95336914 C19.40921402 43.9544017 19.41437531 44.95543427 19.41969299 45.98680115 C19.41980629 47.36811974 19.41980629 47.36811974 19.41992188 48.77734375 C19.42214249 49.5923082 19.4243631 50.40727264 19.426651 51.24693298 C19.30639648 53.11352539 19.30639648 53.11352539 18.30639648 54.11352539 C16.32639648 54.11352539 14.34639648 54.11352539 12.30639648 54.11352539 C11.97639648 38.60352539 11.64639648 23.09352539 11.30639648 7.11352539 C6.68639648 7.11352539 2.06639648 7.11352539 -2.69360352 7.11352539 C-3.35360352 5.13352539 -4.01360352 3.15352539 -4.69360352 1.11352539 C-3.69360352 0.11352539 -3.69360352 0.11352539 0 0 Z " fill="#0A59F3" transform="translate(129.693603515625,46.886474609375)"/>
<path d="M0 0 C2.81163862 -0.20087025 5.23193729 -0.36529466 8 0 C10.05053711 1.79736328 10.05053711 1.79736328 11.52734375 4.3203125 C12.0879248 5.24247559 12.64850586 6.16463867 13.22607422 7.11474609 C13.79084473 8.10812988 14.35561523 9.10151367 14.9375 10.125 C16.14684814 12.14079737 17.35648391 14.15642222 18.56640625 16.171875 C19.43869873 17.65977539 19.43869873 17.65977539 20.32861328 19.17773438 C22.57830382 22.97651069 24.96120204 26.67922804 27.375 30.375 C28.08398438 31.47585937 28.79296875 32.57671875 29.5234375 33.7109375 C30.01070313 34.46632812 30.49796875 35.22171875 31 36 C32.49622848 33.00754304 32.21828326 29.90673826 32.28125 26.62109375 C32.29965942 25.89382584 32.31806885 25.16655792 32.33703613 24.41725159 C32.41583133 21.29988511 32.48360043 18.18230117 32.55224609 15.06469727 C32.60385632 12.79171678 32.66114166 10.51892881 32.71875 8.24609375 C32.73232544 7.53569443 32.74590088 6.8252951 32.7598877 6.09336853 C32.88717013 1.11282987 32.88717013 1.11282987 34 0 C35.99958364 -0.04080783 38.00045254 -0.04254356 40 0 C41.24801863 2.49603726 41.0902917 4.10258646 41.03759766 6.89282227 C41.02072906 7.91050186 41.00386047 8.92818146 40.98648071 9.97669983 C40.9625827 11.07880295 40.93868469 12.18090607 40.9140625 13.31640625 C40.89282318 14.44320297 40.87158386 15.56999969 40.84970093 16.73094177 C40.80338812 19.11584466 40.75445587 21.50069789 40.703125 23.88549805 C40.6252547 27.55051221 40.55814371 31.21561362 40.4921875 34.88085938 C40.44595887 37.19272135 40.39910513 39.50457092 40.3515625 41.81640625 C40.33171295 42.9205336 40.3118634 44.02466095 40.29141235 45.1622467 C40.26823944 46.17677414 40.24506653 47.19130157 40.22119141 48.23657227 C40.20263092 49.13432877 40.18407043 50.03208527 40.16494751 50.95704651 C40 53 40 53 39 54 C36.14355469 54.328125 36.14355469 54.328125 33 54 C31.19238281 52.234375 31.19238281 52.234375 29.703125 49.75 C29.14141602 48.83822998 28.57970703 47.92645996 28.00097656 46.98706055 C27.4231543 46.00133057 26.84533203 45.01560059 26.25 44 C25.64381836 43.00718018 25.03763672 42.01436035 24.41308594 40.99145508 C23.18060271 38.9705403 21.95692876 36.94422634 20.7421875 34.91259766 C18.70974765 31.51475469 16.64000147 28.1418513 14.54980469 24.77929688 C13.69970897 23.41122398 12.85631094 22.0389606 12.02050781 20.66210938 C10.07022632 17.2658993 10.07022632 17.2658993 7 15 C7.0721875 15.64582031 7.144375 16.29164062 7.21875 16.95703125 C7.86935715 23.56250105 8.10946297 30.11763105 8.125 36.75 C8.12951172 37.54124268 8.13402344 38.33248535 8.13867188 39.14770508 C8.12604623 44.18270816 7.71691557 49.01572984 7 54 C4.125 54.125 4.125 54.125 1 54 C-1.44997791 51.55002209 -1.23631251 50.21655702 -1.25224304 46.87315369 C-1.24505753 46.17122391 -1.23787201 45.46929413 -1.23046875 44.74609375 C-1.23001053 44.01238052 -1.22955231 43.2786673 -1.2290802 42.52272034 C-1.22605206 40.95824583 -1.21814907 39.39377449 -1.20581055 37.8293457 C-1.18796885 35.49874458 -1.18529822 33.16855172 -1.18554688 30.83789062 C-1.16047508 20.52927335 -0.71050017 10.28303873 0 0 Z M2 2 C2 18.5 2 35 2 52 C2.99 52 3.98 52 5 52 C5 38.8 5 25.6 5 12 C9.49886621 13.12471655 9.49886621 13.12471655 11.59375 16.5859375 C12.06127686 17.34334229 12.52880371 18.10074707 13.01049805 18.88110352 C13.50203369 19.70408936 13.99356934 20.5270752 14.5 21.375 C15.55819664 23.10050401 16.61680302 24.82575681 17.67578125 26.55078125 C18.21928223 27.44490723 18.7627832 28.3390332 19.32275391 29.26025391 C22.05784964 33.72797506 24.87656145 38.14226502 27.6875 42.5625 C28.69264256 44.14635151 29.69664965 45.73092451 30.69921875 47.31640625 C31.12033936 47.98099854 31.54145996 48.64559082 31.9753418 49.33032227 C33 51 33 51 34 53 C35.32 53 36.64 53 38 53 C39.21983748 50.56032503 39.12051527 49.00095476 39.11352539 46.27490234 C39.11344986 45.29403656 39.11337433 44.31317078 39.11329651 43.30258179 C39.10813522 42.24108917 39.10297394 41.17959656 39.09765625 40.0859375 C39.0962413 39.00116119 39.09482635 37.91638489 39.09336853 36.79873657 C39.08775802 33.32413 39.07520372 29.84958719 39.0625 26.375 C39.05748635 24.02343843 39.05292321 21.67187585 39.04882812 19.3203125 C39.03778518 13.54685314 39.02103679 7.77343112 39 2 C37.68 2 36.36 2 35 2 C34.67 14.87 34.34 27.74 34 41 C33.34 41 32.68 41 32 41 C30.703125 39.1640625 30.703125 39.1640625 29.25 36.625 C28.7240625 35.72265625 28.198125 34.8203125 27.65625 33.890625 C26.55208333 31.96354167 25.44791667 30.03645833 24.34375 28.109375 C23.8178125 27.20703125 23.291875 26.3046875 22.75 25.375 C22.27046875 24.53710938 21.7909375 23.69921875 21.296875 22.8359375 C20.86890625 22.23007813 20.4409375 21.62421875 20 21 C19.34 21 18.68 21 18 21 C17.79375 20.195625 17.5875 19.39125 17.375 18.5625 C15.56916146 13.88373651 12.90418607 10.06438254 10 6 C9.54496094 5.24976563 9.08992188 4.49953125 8.62109375 3.7265625 C8.08613281 3.15679687 7.55117188 2.58703125 7 2 C5.35 2 3.7 2 2 2 Z " fill="#0133A3" transform="translate(319,47)"/>
<path d="M0 0 C1.00933594 -0.01836914 1.00933594 -0.01836914 2.0390625 -0.03710938 C8.1832705 -0.05490148 15.37931756 0.84685892 20 5.1875 C20.42218002 8.22936119 20.2877682 11.13715704 20 14.1875 C17.25 14.5625 17.25 14.5625 14 14.1875 C11.75 11.25 11.75 11.25 10 8.1875 C6.81453711 6.59476856 3.36800652 7.08608167 -0.125 7.125 C-4.023125 7.1559375 -4.023125 7.1559375 -8 7.1875 C-8 13.1275 -8 19.0675 -8 25.1875 C-5.36 25.1875 -2.72 25.1875 0 25.1875 C0.33 26.5075 0.66 27.8275 1 29.1875 C-1.97 29.1875 -4.94 29.1875 -8 29.1875 C-8.38218767 30.84364657 -8.71395102 32.51207024 -9 34.1875 C-8.67 34.5175 -8.34 34.8475 -8 35.1875 C-7.92728259 37.54063555 -7.91629132 39.89583668 -7.9375 42.25 C-7.94652344 43.54035156 -7.95554687 44.83070312 -7.96484375 46.16015625 C-7.97644531 47.15917969 -7.98804688 48.15820312 -8 49.1875 C-10.31 48.8575 -12.62 48.5275 -15 48.1875 C-15 32.6775 -15 17.1675 -15 1.1875 C-9.88339749 0.45655678 -5.12503378 0.00490904 0 0 Z " fill="#0360F9" transform="translate(442,49.8125)"/>
<path d="M0 0 C10.56 0 21.12 0 32 0 C32 0.99 32 1.98 32 3 C18.635 3.495 18.635 3.495 5 4 C5 9.94 5 15.88 5 22 C13.25 22.33 21.5 22.66 30 23 C30 23.99 30 24.98 30 26 C17.625 26.495 17.625 26.495 5 27 C4.67 33.6 4.34 40.2 4 47 C13.24 47 22.48 47 32 47 C32 47.99 32 48.98 32 50 C21.44 50 10.88 50 0 50 C0 33.5 0 17 0 0 Z " fill="#0B5CF3" transform="translate(175,49)"/>
<path d="M0 0 C0 0.99 0 1.98 0 3 C-0.598125 3.515625 -1.19625 4.03125 -1.8125 4.5625 C-7.0602664 10.41001113 -7.51449524 18.54052918 -7.28125 26.1015625 C-6.70421029 32.04827726 -5.5987369 36.9997698 -0.9375 41 C4.56061534 44.74339768 9.43873479 44.65183811 16 44 C18.48003761 42.94466485 19.91014471 41.76833909 22 40 C22.99 39.67 23.98 39.34 25 39 C25.185625 37.9790625 25.185625 37.9790625 25.375 36.9375 C26 34 26 34 27 30.875 C28.43931906 26.03072464 28.65511945 21.01891956 29 16 C29.99 16.33 30.98 16.66 32 17 C32.86370925 33.65039492 32.86370925 33.65039492 28 41 C23.38964991 45.53477058 17.97469569 49.2675131 11.375 49.375 C5.20797447 49.2292505 -0.978543 47.76846418 -5.6328125 43.50390625 C-6.83247289 42.06359542 -7.92286599 40.53409996 -9 39 C-9.5775 38.525625 -10.155 38.05125 -10.75 37.5625 C-12.80304718 34.99619102 -12.80955086 32.1648166 -13 29 C-13.06445312 28.09636719 -13.12890625 27.19273438 -13.1953125 26.26171875 C-13.50462511 18.31238478 -12.43783744 10.89105579 -7.76171875 4.23828125 C-5.48041886 1.77334732 -3.35470327 0.37274481 0 0 Z " fill="#0B5AED" transform="translate(382,51)"/>
<path d="M0 0 C2.33294775 -0.04241723 4.66702567 -0.04092937 7 0 C8 1 8 1 8.11352539 3.13305664 C8.10828857 4.04949951 8.10305176 4.96594238 8.09765625 5.91015625 C8.09515869 6.800979 8.09266113 7.69180176 8.09008789 8.60961914 C8.07643188 10.31879517 8.07643188 10.31879517 8.0625 12.0625 C8.041875 15.671875 8.02125 19.28125 8 23 C15.59 23 23.18 23 31 23 C31.495 23.99 31.495 23.99 32 25 C23.75 25 15.5 25 7 25 C7 17.41 7 9.82 7 2 C5.35 2 3.7 2 2 2 C2 18.83 2 35.66 2 53 C3.98 52.505 3.98 52.505 6 52 C6.33 44.08 6.66 36.16 7 28 C15.58 28 24.16 28 33 28 C33.495 39.385 33.495 39.385 34 51 C35.32 51.66 36.64 52.32 38 53 C38.33 36.17 38.66 19.34 39 2 C37.35 2 35.7 2 34 2 C34 4.31 34 6.62 34 9 C33.34 8.67 32.68 8.34 32 8 C32.33 5.36 32.66 2.72 33 0 C35.31 0 37.62 0 40 0 C40.02526648 7.52969652 40.04283141 15.0593822 40.05493164 22.58911133 C40.0599737 25.15291757 40.06680714 27.71672091 40.07543945 30.28051758 C40.08751064 33.95655021 40.09322942 37.63254498 40.09765625 41.30859375 C40.10281754 42.46274277 40.10797882 43.61689178 40.11329651 44.80601501 C40.11337204 45.86703934 40.11344757 46.92806366 40.11352539 48.02124023 C40.115746 48.96055893 40.11796661 49.89987762 40.12025452 50.86766052 C40 53 40 53 39 54 C37.00041636 54.04080783 34.99954746 54.04254356 33 54 C31.74751498 51.49502996 31.88625594 49.79146726 31.90234375 46.9921875 C31.90484131 46.1038623 31.90733887 45.21553711 31.90991211 44.30029297 C31.91901611 43.16994629 31.92812012 42.03959961 31.9375 40.875 C31.9684375 35.491875 31.9684375 35.491875 32 30 C24.08 30 16.16 30 8 30 C8.03958834 37.52432774 8.03958834 37.52432774 8.09008789 45.04858398 C8.09258545 45.98001221 8.09508301 46.91144043 8.09765625 47.87109375 C8.10289307 48.82943115 8.10812988 49.78776855 8.11352539 50.77514648 C8 53 8 53 7 54 C5.00041636 54.04080783 2.99954746 54.04254356 1 54 C-0.60345839 50.46916893 -1.23523623 47.80364224 -1.13525391 43.93432617 C-1.11508209 42.95368698 -1.09491028 41.97304779 -1.0741272 40.96269226 C-1.02583267 39.39367912 -1.02583267 39.39367912 -0.9765625 37.79296875 C-0.95153656 36.71243729 -0.92651062 35.63190582 -0.90072632 34.51863098 C-0.81869319 31.07459365 -0.72203789 27.63114403 -0.625 24.1875 C-0.56674347 21.84963322 -0.50944056 19.51174247 -0.453125 17.17382812 C-0.31313917 11.44889476 -0.161153 5.72437451 0 0 Z " fill="#0E3A9D" transform="translate(269,47)"/>
<path d="M0 0 C0.9075 0.00257812 1.815 0.00515625 2.75 0.0078125 C4.11125 0.00394531 4.11125 0.00394531 5.5 0 C7.75 0.1328125 7.75 0.1328125 8.75 1.1328125 C8.90797205 2.54197581 9.00113365 3.95851283 9.06640625 5.375 C9.10838135 6.26815918 9.15035645 7.16131836 9.19360352 8.08154297 C9.23283936 9.04721191 9.2720752 10.01288086 9.3125 11.0078125 C9.3549585 11.98766113 9.39741699 12.96750977 9.44116211 13.97705078 C9.81718704 23.36935162 9.82229995 32.73381935 9.75 42.1328125 C17.67 42.4628125 25.59 42.7928125 33.75 43.1328125 C33.75 46.7628125 33.75 50.3928125 33.75 54.1328125 C30.75717264 55.62922618 27.68721394 55.27504229 24.40625 55.265625 C23.31890564 55.26706009 23.31890564 55.26706009 22.20959473 55.26852417 C20.67635003 55.26920493 19.14310245 55.26735786 17.60986328 55.26318359 C15.25937442 55.25783384 12.90907665 55.26313203 10.55859375 55.26953125 C9.07031208 55.26887045 7.58203052 55.26758925 6.09375 55.265625 C5.38851196 55.26764923 4.68327393 55.26967346 3.95666504 55.27175903 C-1.02007514 55.24777493 -1.02007514 55.24777493 -3.25 54.1328125 C-3.27526648 46.60311598 -3.29283141 39.0734303 -3.30493164 31.54370117 C-3.3099737 28.97989493 -3.31680714 26.41609159 -3.32543945 23.85229492 C-3.33751064 20.17626229 -3.34322942 16.50026752 -3.34765625 12.82421875 C-3.35281754 11.67006973 -3.35797882 10.51592072 -3.36329651 9.32679749 C-3.36337204 8.26577316 -3.36344757 7.20474884 -3.36352539 6.11157227 C-3.365746 5.17225357 -3.36796661 4.23293488 -3.37025452 3.26515198 C-3.20331608 0.30501857 -2.96175971 0.17482609 0 0 Z M-1.25 3.1328125 C-1.25 19.6328125 -1.25 36.1328125 -1.25 53.1328125 C9.64 53.1328125 20.53 53.1328125 31.75 53.1328125 C31.75 50.4928125 31.75 47.8528125 31.75 45.1328125 C23.83 44.8028125 15.91 44.4728125 7.75 44.1328125 C7.42 30.6028125 7.09 17.0728125 6.75 3.1328125 C4.11 3.1328125 1.47 3.1328125 -1.25 3.1328125 Z " fill="#0B3FA2" transform="translate(474.25,45.8671875)"/>
<path d="M0 0 C1.60332791 -0.08121924 3.20784026 -0.13929134 4.8125 -0.1875 C6.15248047 -0.23970703 6.15248047 -0.23970703 7.51953125 -0.29296875 C10.54709183 0.06461715 11.04888266 0.73783033 13 3 C14.74915358 5.74144797 16.22936153 8.62661689 17.75 11.5 C18.17410156 12.27214844 18.59820313 13.04429688 19.03515625 13.83984375 C19.43089844 14.58363281 19.82664062 15.32742187 20.234375 16.09375 C20.59756836 16.77115234 20.96076172 17.44855469 21.33496094 18.14648438 C22 20 22 20 21 23 C20.74420166 22.42967041 20.48840332 21.85934082 20.22485352 21.27172852 C19.03960839 18.68393892 17.80232418 16.12455913 16.5625 13.5625 C16.16095703 12.66466797 15.75941406 11.76683594 15.34570312 10.84179688 C13.05809626 5.91328386 13.05809626 5.91328386 8.64404297 3.17919922 C6.38056841 2.92770205 4.27007554 2.8496618 2 3 C3.72723218 6.31351207 5.45714661 9.62561694 7.1875 12.9375 C7.67025391 13.86369141 8.15300781 14.78988281 8.65039062 15.74414062 C9.13056641 16.66259766 9.61074219 17.58105469 10.10546875 18.52734375 C10.82416138 19.91457642 10.82416138 19.91457642 11.55737305 21.32983398 C12.47385769 23.02616036 13.43970772 24.69740437 14.46801758 26.32836914 C18.12272384 32.18043916 18.63816324 36.73359244 18.3125 43.5625 C18.28994141 44.47580078 18.26738281 45.38910156 18.24414062 46.33007812 C18.18591983 48.55411239 18.09626762 50.77728756 18 53 C20.97 53 23.94 53 27 53 C26.93039062 51.76765625 26.86078125 50.5353125 26.7890625 49.265625 C26.3725293 38.53664105 26.86263797 31.15124518 33 22 C33.66 22 34.32 22 35 22 C35.20625 21.21625 35.4125 20.4325 35.625 19.625 C37.19423039 15.48793806 39.31274344 12.00587779 41.66015625 8.26953125 C43.12903566 5.96285499 43.12903566 5.96285499 44 3 C41.03 3 38.06 3 35 3 C33.72515005 5.5496999 32.47547982 8.08971001 31.2734375 10.671875 C30.9640625 11.33574219 30.6546875 11.99960937 30.3359375 12.68359375 C30.01882813 13.36550781 29.70171875 14.04742187 29.375 14.75 C29.05015625 15.44738281 28.7253125 16.14476563 28.390625 16.86328125 C27.59325162 18.5752888 26.79655814 20.28761299 26 22 C25.34 22 24.68 22 24 22 C25.48008696 16.99886406 27.6318336 12.67084403 30.125 8.125 C30.49753906 7.43664063 30.87007812 6.74828125 31.25390625 6.0390625 C32.16499526 4.35705202 33.08190315 2.67819564 34 1 C38.29 1 42.58 1 47 1 C45.4279203 5.71623911 44.12222856 8.71277845 41.55859375 12.7890625 C33.1347218 26.6685884 28.00159175 37.32288436 29 54 C28 55 28 55 25.75 55.1328125 C24.8425 55.13023438 23.935 55.12765625 23 55.125 C21.63875 55.12886719 21.63875 55.12886719 20.25 55.1328125 C18 55 18 55 17 54 C17.0192108 52.04049832 17.03962544 50.08100148 17.06591797 48.12158203 C17.04968327 36.26329546 13.34374545 28.17909324 7.30126953 18.16113281 C5.38894344 14.9851646 3.59535019 11.74976405 1.8125 8.5 C1.24144531 7.4996875 0.67039062 6.499375 0.08203125 5.46875 C-1 3 -1 3 0 0 Z " fill="#0E3A9C" transform="translate(554,46)"/>
<path d="M0 0 C-0.53894425 4.59808129 -1.76571528 7.86784369 -4.0625 11.875 C-4.61035156 12.84179688 -5.15820312 13.80859375 -5.72265625 14.8046875 C-6.14417969 15.52914062 -6.56570313 16.25359375 -7 17 C-7.66 17 -8.32 17 -9 17 C-9.0825 17.680625 -9.165 18.36125 -9.25 19.0625 C-10.22332528 22.8746907 -11.95807455 25.64070329 -14 29 C-14.66 29 -15.32 29 -16 29 C-16 34.94 -16 40.88 -16 47 C-17.98 47 -19.96 47 -22 47 C-22.33 39.74 -22.66 32.48 -23 25 C-22.01 24.67 -21.02 24.34 -20 24 C-19.9175 23.401875 -19.835 22.80375 -19.75 22.1875 C-18.49984089 18.54120259 -15.33785988 17.69927412 -12 16 C-12 14.68 -12 13.36 -12 12 C-10.87253068 7.92376475 -9.39470608 4.4922797 -7 1 C-4.53721199 -0.231394 -2.7204945 -0.07159196 0 0 Z " fill="#045DFA" transform="translate(596,51)"/>
<path d="M0 0 C0.66 0 1.32 0 2 0 C2.33 15.84 2.66 31.68 3 48 C5.64 48.33 8.28 48.66 11 49 C10.85820962 46.77057252 10.71140302 44.54146372 10.5625 42.3125 C10.48128906 41.07113281 10.40007812 39.82976562 10.31640625 38.55078125 C10.05508683 35.61819663 9.65201621 32.86558383 9 30 C11.40545638 28.79727181 12.94996953 28.89928528 15.625 28.9375 C16.85089844 28.95103516 16.85089844 28.95103516 18.1015625 28.96484375 C18.72804688 28.97644531 19.35453125 28.98804687 20 29 C19.67 28.01 19.34 27.02 19 26 C24.40195515 25.02587694 24.40195515 25.02587694 27 25 C28.6875 26.5 28.6875 26.5 30 28 C32.51749828 28.14768913 32.51749828 28.14768913 35 27 C39.11042582 22.66121719 40.08215164 19.1453015 40.5625 13.3125 C40.64628906 12.31863281 40.73007812 11.32476562 40.81640625 10.30078125 C40.90728516 9.16189453 40.90728516 9.16189453 41 8 C43.35020498 10.35020498 43.31914802 10.91909622 43.375 14.125 C43.18095888 20.84097875 40.67257386 25.82291315 35.875 30.5 C29.49423955 35.02276124 20.41773234 33.4279461 13 33 C13 38.61 13 44.22 13 50 C10.65897141 51.17051429 9.10647047 51.1992246 6.5 51.25 C5.7059375 51.27578125 4.911875 51.3015625 4.09375 51.328125 C3.4028125 51.21984375 2.711875 51.1115625 2 51 C-0.14782833 47.77825751 -0.24649148 46.9566269 -0.22705078 43.25317383 C-0.22689972 42.29240433 -0.22674866 41.33163483 -0.22659302 40.3417511 C-0.21627045 39.30729355 -0.20594788 38.272836 -0.1953125 37.20703125 C-0.1924826 36.14586594 -0.18965271 35.08470062 -0.18673706 33.99137878 C-0.17553184 30.59830503 -0.15042647 27.20549413 -0.125 23.8125 C-0.11497065 21.51367568 -0.10584472 19.21484724 -0.09765625 16.91601562 C-0.07559141 11.27725389 -0.04211044 5.63864572 0 0 Z " fill="#0753D9" transform="translate(423,50)"/>
<path d="M0 0 C2.40256356 1.79037189 4.05852346 3.66541313 5.625 6.2109375 C5.625 7.2009375 5.625 8.1909375 5.625 9.2109375 C4.305 9.2109375 2.985 9.2109375 1.625 9.2109375 C0.28076661 7.55304965 -1.05118483 5.88517433 -2.375 4.2109375 C-7.20601472 0.9528113 -11.70760028 0.42013754 -17.375 1.2109375 C-20.72661246 2.59307872 -20.72661246 2.59307872 -23.375 4.2109375 C-24.035 4.2109375 -24.695 4.2109375 -25.375 4.2109375 C-25.705 5.2009375 -26.035 6.1909375 -26.375 7.2109375 C-27.035 7.2109375 -27.695 7.2109375 -28.375 7.2109375 C-30.52327569 15.8807644 -31.21282495 24.4733546 -29.8125 33.3359375 C-29.375 36.2109375 -29.375 36.2109375 -30.375 38.2109375 C-31.365 37.8809375 -32.355 37.5509375 -33.375 37.2109375 C-35.22095659 32.39093974 -35.73332422 27.66938891 -36.12890625 22.54296875 C-36.36060855 20.34731361 -36.78420467 18.33487113 -37.375 16.2109375 C-36.715 15.8809375 -36.055 15.5509375 -35.375 15.2109375 C-34.76175333 13.66764847 -34.20840423 12.10029237 -33.6875 10.5234375 C-31.22838563 4.13339681 -27.70550876 0.91491873 -21.6875 -2.1640625 C-14.15219346 -3.58581845 -6.78004299 -3.98327526 0 0 Z " fill="#0C5AEE" transform="translate(252.375,50.7890625)"/>
<path d="M0 0 C2.10409639 -0.02701408 4.20829178 -0.04640223 6.3125 -0.0625 C7.48425781 -0.07410156 8.65601563 -0.08570313 9.86328125 -0.09765625 C13 0 13 0 16 1 C17.16259766 3.29101562 17.16259766 3.29101562 18.2890625 6.40625 C18.93343262 8.17548828 18.93343262 8.17548828 19.59082031 9.98046875 C20.06193067 11.31982656 20.53159234 12.65969459 21 14 C21.25036011 14.70785645 21.50072021 15.41571289 21.75866699 16.14501953 C23.39546559 20.78019237 24.99063851 25.42818978 26.55908203 30.08691406 C27.10847841 31.71175959 27.66327564 33.33478784 28.22314453 34.95605469 C29.04328993 37.33148449 29.84758032 39.71175852 30.6484375 42.09375 C30.90039886 42.81461792 31.15236023 43.53548584 31.41195679 44.27819824 C32.7150638 48.22152965 33.29033062 50.99948815 32 55 C30.37509046 55.02698189 28.75005367 55.04638757 27.125 55.0625 C26.22007812 55.07410156 25.31515625 55.08570313 24.3828125 55.09765625 C22 55 22 55 20 54 C18.77145255 50.38761965 17.93623158 46.70237034 17 43 C11.06 43 5.12 43 -1 43 C-1.474375 44.60875 -1.94875 46.2175 -2.4375 47.875 C-3.875 52.75 -3.875 52.75 -5 55 C-5.66 54.67 -6.32 54.34 -7 54 C-6.35780498 52.01964979 -5.71114356 50.04074744 -5.0625 48.0625 C-4.70285156 46.96035156 -4.34320312 45.85820313 -3.97265625 44.72265625 C-3 42 -3 42 -2 41 C-0.5112814 40.91330568 0.981445 40.89296506 2.47265625 40.90234375 C3.37177734 40.90556641 4.27089844 40.90878906 5.19726562 40.91210938 C6.61555664 40.92467773 6.61555664 40.92467773 8.0625 40.9375 C9.01189453 40.94201172 9.96128906 40.94652344 10.93945312 40.95117188 C13.29303065 40.9629989 15.64648477 40.97947975 18 41 C18.6708712 42.6232687 19.33657029 44.24867578 20 45.875 C20.37125 46.77992187 20.7425 47.68484375 21.125 48.6171875 C22 51 22 51 22 53 C24.97 53 27.94 53 31 53 C30.67725098 52.03175293 30.35450195 51.06350586 30.02197266 50.06591797 C26.6813151 40.04394531 23.34065755 30.02197266 20 20 C19.63390625 18.91074219 19.2678125 17.82148437 18.890625 16.69921875 C17.40115054 12.18506589 16.23157936 7.59043214 15 3 C10.38 3.33 5.76 3.66 1 4 C0.54625 5.299375 0.0925 6.59875 -0.375 7.9375 C-1.75 11.875 -1.75 11.875 -4 13 C-3.52343588 11.20763933 -3.04366502 9.41613103 -2.5625 7.625 C-2.29566406 6.62726562 -2.02882813 5.62953125 -1.75390625 4.6015625 C-1 2 -1 2 0 0 Z " fill="#0C3FA7" transform="translate(528,46)"/>
<path d="M0 0 C0.66 0 1.32 0 2 0 C2 16.5 2 33 2 50 C2.99 50 3.98 50 5 50 C5 36.8 5 23.6 5 10 C6.65 10.33 8.3 10.66 10 11 C9.34 11.66 8.68 12.32 8 13 C7.73743121 16.07699623 7.73743121 16.07699623 7.83984375 19.6953125 C7.84504532 20.36158661 7.85024689 21.02786072 7.85560608 21.71432495 C7.87343692 23.85143667 7.90454647 25.98807204 7.9375 28.125 C8.16021629 45.07467796 8.16021629 45.07467796 7 52 C4.125 52.125 4.125 52.125 1 52 C-1.4594296 49.5405704 -1.23640922 48.17818247 -1.25224304 44.82185364 C-1.24505753 44.11364975 -1.23787201 43.40544586 -1.23046875 42.67578125 C-1.23001053 41.93732468 -1.22955231 41.1988681 -1.2290802 40.43803406 C-1.22605281 38.8651673 -1.21815206 37.29230367 -1.20581055 35.71948242 C-1.18791391 33.3669104 -1.18529858 31.01474136 -1.18554688 28.66210938 C-1.16236582 19.06933396 -0.76923587 9.56277915 0 0 Z " fill="#0333C9" transform="translate(319,49)"/>
<path d="M0 0 C10.89 0 21.78 0 33 0 C33 0.33 33 0.66 33 1 C22.44 1 11.88 1 1 1 C1.33 17.5 1.66 34 2 51 C17.84 51.495 17.84 51.495 34 52 C34 51.01 34 50.02 34 49 C24.76 49 15.52 49 6 49 C6.33 48.01 6.66 47.02 7 46 C11.47915328 45.97113662 15.95828291 45.95324813 20.4375 45.9375 C21.71689453 45.92912109 22.99628906 45.92074219 24.31445312 45.91210938 C25.52939453 45.90888672 26.74433594 45.90566406 27.99609375 45.90234375 C29.12200928 45.89710693 30.2479248 45.89187012 31.40795898 45.88647461 C34 46 34 46 35 47 C35.04092937 49.33297433 35.04241723 51.66705225 35 54 C30.33691801 54.02468646 25.67387392 54.04285349 21.01074219 54.05493164 C19.42382139 54.05996588 17.83690523 54.06679369 16.25 54.07543945 C13.97134251 54.08754482 11.69274624 54.09323733 9.4140625 54.09765625 C8.34679428 54.10539818 8.34679428 54.10539818 7.25796509 54.11329651 C2.22774341 54.11387171 2.22774341 54.11387171 0 53 C0 35.51 0 18.02 0 0 Z " fill="#0F429D" transform="translate(173,47)"/>
<path d="M0 0 C3.91587216 2.93690412 6.32375155 5.75466992 7.5 10.640625 C7.561875 11.506875 7.62375 12.373125 7.6875 13.265625 C4.4375 13.640625 4.4375 13.640625 0.6875 13.265625 C-1.5 10.390625 -1.5 10.390625 -3.3125 7.265625 C-7.87537645 4.25713504 -13.06208348 4.67123822 -18.3125 5.265625 C-22.93223015 7.28150725 -25.5738583 10.05633291 -27.625 14.5859375 C-29.64914561 22.47550504 -29.25219393 31.71649098 -26.3125 39.265625 C-26.9725 39.265625 -27.6325 39.265625 -28.3125 39.265625 C-32.44939569 30.302351 -32.64491535 20.85423044 -29.5 11.46484375 C-26.90594876 6.66072912 -22.37389719 3.9527574 -17.3125 2.265625 C-10.7340917 1.48794495 -6.72266606 2.47850876 -1.3125 6.265625 C0.625 7.890625 0.625 7.890625 1.6875 9.265625 C1.6875 9.925625 1.6875 10.585625 1.6875 11.265625 C3.0075 11.265625 4.3275 11.265625 5.6875 11.265625 C3.61120897 6.19024693 1.45776993 3.94890184 -3.3125 1.265625 C-9.74723523 -0.87928674 -17.04052852 -0.63067721 -23.3125 1.953125 C-30.21082103 5.53279429 -32.48927157 11.37274283 -35.3125 18.265625 C-36.3787628 15.0809593 -36.35435251 13.46707554 -34.875 10.453125 C-31.8121172 4.78308244 -27.23833403 0.79503824 -21.5625 -2.171875 C-14.09339265 -3.46460512 -6.71075315 -3.97052894 0 0 Z " fill="#0D3B9E" transform="translate(252.3125,48.734375)"/>
<path d="M0 0 C1.64510941 0.00015915 3.29022379 0.00585551 4.93530273 0.01586914 C6.23164894 0.01799156 6.23164894 0.01799156 7.55418396 0.02015686 C10.32578941 0.025773 13.09731528 0.0383282 15.86889648 0.05102539 C17.74324428 0.05603831 19.61759334 0.06060158 21.49194336 0.06469727 C26.09679192 0.07574767 30.70158069 0.09302309 35.30639648 0.11352539 C35.30639648 2.09352539 35.30639648 4.07352539 35.30639648 6.11352539 C30.68639648 6.11352539 26.06639648 6.11352539 21.30639648 6.11352539 C21.30639648 5.78352539 21.30639648 5.45352539 21.30639648 5.11352539 C25.59639648 5.11352539 29.88639648 5.11352539 34.30639648 5.11352539 C34.30639648 4.12352539 34.30639648 3.13352539 34.30639648 2.11352539 C22.09639648 2.11352539 9.88639648 2.11352539 -2.69360352 2.11352539 C-2.69360352 3.10352539 -2.69360352 4.09352539 -2.69360352 5.11352539 C-1.08678711 5.09612305 -1.08678711 5.09612305 0.55249023 5.07836914 C1.94962392 5.0689924 3.34675947 5.05989208 4.74389648 5.05102539 C5.45094727 5.04264648 6.15799805 5.03426758 6.88647461 5.02563477 C8.69333208 5.01698951 10.50027251 5.06132528 12.30639648 5.11352539 C13.30639648 6.11352539 13.30639648 6.11352539 13.426651 7.9801178 C13.42332008 9.20256447 13.42332008 9.20256447 13.41992188 10.44970703 C13.41984634 11.37058609 13.41977081 12.29146515 13.41969299 13.24024963 C13.41453171 14.2412822 13.40937042 15.24231476 13.40405273 16.27368164 C13.40263779 17.29328476 13.40122284 18.31288788 13.39976501 19.36338806 C13.39414745 22.63429646 13.38159198 25.90513752 13.36889648 29.17602539 C13.36388375 31.38761295 13.35932045 33.59920157 13.35522461 35.81079102 C13.34417232 41.24505896 13.32741711 46.67928737 13.30639648 52.11352539 C15.28639648 51.61852539 15.28639648 51.61852539 17.30639648 51.11352539 C17.63639648 36.59352539 17.96639648 22.07352539 18.30639648 7.11352539 C18.63639648 7.11352539 18.96639648 7.11352539 19.30639648 7.11352539 C19.33166651 13.64631325 19.3492294 20.1790886 19.36132812 26.71191406 C19.36636965 28.93620271 19.37320271 31.16048802 19.38183594 33.38476562 C19.39390947 36.57430848 19.39962644 39.76380768 19.40405273 42.95336914 C19.40921402 43.9544017 19.41437531 44.95543427 19.41969299 45.98680115 C19.41980629 47.36811974 19.41980629 47.36811974 19.41992188 48.77734375 C19.42214249 49.5923082 19.4243631 50.40727264 19.426651 51.24693298 C19.30639648 53.11352539 19.30639648 53.11352539 18.30639648 54.11352539 C16.32639648 54.11352539 14.34639648 54.11352539 12.30639648 54.11352539 C11.97639648 38.60352539 11.64639648 23.09352539 11.30639648 7.11352539 C6.68639648 7.11352539 2.06639648 7.11352539 -2.69360352 7.11352539 C-3.35360352 5.13352539 -4.01360352 3.15352539 -4.69360352 1.11352539 C-3.69360352 0.11352539 -3.69360352 0.11352539 0 0 Z " fill="#0D3EA3" transform="translate(129.693603515625,46.886474609375)"/>
<path d="M0 0 C3.61804193 1.81904324 6.41729769 3.86386148 9 7 C9.75 9.75 9.75 9.75 10 12 C9.34 12 8.68 12 8 12 C7.12109375 10.27473958 6.2421875 8.54947917 5.36328125 6.82421875 C3.52580979 4.36548187 1.77085241 3.31209177 -1 2 C-3.94924807 1.52917564 -3.94924807 1.52917564 -7 1.625 C-8.010625 1.61726563 -9.02125 1.60953125 -10.0625 1.6015625 C-13.41258939 2.05596292 -15.28305022 3.01928661 -18 5 C-23.17622289 12.20973903 -22.51075513 20.48133411 -22 29 C-20.96726322 33.66250281 -18.66035572 36.93002423 -15 40 C-12.31767173 41.34116414 -10.18167741 41.16904021 -7.1875 41.1875 C-6.14980469 41.20167969 -5.11210937 41.21585938 -4.04296875 41.23046875 C-0.93296453 40.99492286 1.22126518 40.38936741 4 39 C5.30859649 37.30287793 5.30859649 37.30287793 6 35 C6.5259375 33.5459375 6.5259375 33.5459375 7.0625 32.0625 C8.60311243 26.53085222 8.67403883 20.70432041 9 15 C9.66 15 10.32 15 11 15 C11.63532069 33.07134406 11.63532069 33.07134406 8 38 C3.51335648 42.55551743 -0.80925894 44.38700593 -7.1875 44.625 C-13.59282034 44.27502697 -16.817572 42.243051 -21.25 37.6875 C-26.05225767 30.31260429 -25.87859696 21.69490572 -24.5703125 13.21484375 C-23.34765908 8.21102142 -21.60757507 4.16088841 -17.4296875 0.99609375 C-12.01578722 -1.22343129 -5.69536896 -0.81452616 0 0 Z " fill="#0736A9" transform="translate(399,52)"/>
<path d="M0 0 C0.99 0.33 1.98 0.66 3 1 C3 16.51 3 32.02 3 48 C-1 47 -1 47 -2 46 C-2.09971786 44.08541718 -2.13080589 42.16717683 -2.1328125 40.25 C-2.13410156 39.0846875 -2.13539063 37.919375 -2.13671875 36.71875 C-2.13285156 35.4915625 -2.12898438 34.264375 -2.125 33 C-2.12886719 31.7728125 -2.13273437 30.545625 -2.13671875 29.28125 C-2.13542969 28.1159375 -2.13414062 26.950625 -2.1328125 25.75 C-2.13168457 24.67234375 -2.13055664 23.5946875 -2.12939453 22.484375 C-2 20 -2 20 -1 19 C-0.84379445 17.58672053 -0.74943827 16.1664541 -0.68359375 14.74609375 C-0.64169922 13.89208984 -0.59980469 13.03808594 -0.55664062 12.15820312 C-0.51732422 11.26037109 -0.47800781 10.36253906 -0.4375 9.4375 C-0.39431641 8.53580078 -0.35113281 7.63410156 -0.30664062 6.70507812 C-0.20021858 4.47021515 -0.09820012 2.23523692 0 0 Z " fill="#0D59E8" transform="translate(304,52)"/>
<path d="M0 0 C12.21 0 24.42 0 37 0 C37 0.99 37 1.98 37 3 C35.77023438 3.09087891 35.77023438 3.09087891 34.515625 3.18359375 C33.43796875 3.26738281 32.3603125 3.35117187 31.25 3.4375 C29.64898437 3.55931641 29.64898437 3.55931641 28.015625 3.68359375 C24.8068415 3.94913876 24.8068415 3.94913876 21 5 C21 19.52 21 34.04 21 49 C20.67 49 20.34 49 20 49 C19.97470295 42.48552273 19.95715556 35.97105807 19.94506836 29.45654297 C19.94003091 27.23909024 19.93320078 25.02164084 19.92456055 22.80419922 C19.91246928 19.62206195 19.9067659 16.43996849 19.90234375 13.2578125 C19.89718246 12.26194122 19.89202118 11.26606995 19.88670349 10.24002075 C19.88659019 8.85881546 19.88659019 8.85881546 19.88647461 7.44970703 C19.884254 6.6369632 19.88203339 5.82421936 19.87974548 4.98684692 C20 3 20 3 21 1 C19.35 1 17.7 1 16 1 C15.67 1.99 15.34 2.98 15 4 C10.05 3.67 5.1 3.34 0 3 C0 2.01 0 1.02 0 0 Z " fill="#0E56EA" transform="translate(127,49)"/>
<path d="M0 0 C0.33 0 0.66 0 1 0 C1.09796875 0.99 1.1959375 1.98 1.296875 3 C2.1799151 13.69873629 2.1799151 13.69873629 7 23 C13.58915932 28.28463889 19.66411991 29.70391876 28 29 C32.4027764 27.91243172 36.81558405 26.30235728 40 23 C41.18656097 20.70392748 42.0840685 18.42721848 43 16 C41.68 16 40.36 16 39 16 C38.731875 16.94875 38.46375 17.8975 38.1875 18.875 C37 22 37 22 34 24 C33.01 23.67 32.02 23.34 31 23 C31.598125 22.443125 32.19625 21.88625 32.8125 21.3125 C35.11488106 19.10225877 35.11488106 19.10225877 36.375 16.25 C36.91125 15.5075 37.4475 14.765 38 14 C41.1875 13.6875 41.1875 13.6875 44 14 C45 16 45 16 43.9375 19.8125 C41.69229646 25.39516827 37.74924254 28.3834073 32.375 30.875 C25.68968284 33.11624618 18.01369072 32.20217922 11.625 29.375 C5.26825049 25.68782097 1.5087413 20.41663938 -0.5390625 13.41796875 C-1.32443389 9.29809681 -1.43033997 5.17098736 -1 1 C-0.67 0.67 -0.34 0.34 0 0 Z " fill="#083294" transform="translate(216,70)"/>
<path d="M0 0 C0.66 0 1.32 0 2 0 C2.33 15.84 2.66 31.68 3 48 C5.64 48.33 8.28 48.66 11 49 C11 43.72 11 38.44 11 33 C11.66 33 12.32 33 13 33 C13 38.61 13 44.22 13 50 C10.65897141 51.17051429 9.10647047 51.1992246 6.5 51.25 C5.7059375 51.27578125 4.911875 51.3015625 4.09375 51.328125 C3.4028125 51.21984375 2.711875 51.1115625 2 51 C-0.14782833 47.77825751 -0.24649148 46.9566269 -0.22705078 43.25317383 C-0.22689972 42.29240433 -0.22674866 41.33163483 -0.22659302 40.3417511 C-0.21627045 39.30729355 -0.20594788 38.272836 -0.1953125 37.20703125 C-0.1924826 36.14586594 -0.18965271 35.08470062 -0.18673706 33.99137878 C-0.17553184 30.59830503 -0.15042647 27.20549413 -0.125 23.8125 C-0.11497065 21.51367568 -0.10584472 19.21484724 -0.09765625 16.91601562 C-0.07559141 11.27725389 -0.04211044 5.63864572 0 0 Z " fill="#114FA3" transform="translate(423,50)"/>
<path d="M0 0 C5.91096612 3.3668863 8.83797097 7.60109894 11.5 13.8125 C12.1875 17.1875 12.1875 17.1875 12.5 19.8125 C10.08578973 17.6650533 9.04779497 16.01747803 8.125 12.9375 C6.1520112 7.41313137 2.78502334 4.3728662 -2.25 1.5 C-8.03521161 -1.18015453 -13.12089613 -0.92584258 -19.125 0.9375 C-26.17011973 4.8514554 -30.30079098 8.54093743 -32.85546875 16.37890625 C-34.18308091 23.45145832 -33.78362846 30.65088139 -33.5 37.8125 C-36.80210394 34.51039606 -36.57601429 30.18072841 -36.8125 25.6875 C-36.71787101 18.69678331 -34.50563699 11.078513 -30.375 5.375 C-21.50062362 -2.53477025 -11.06168411 -5.12416249 0 0 Z " fill="#0F3B9C" transform="translate(403.5,48.1875)"/>
<path d="M0 0 C0.33 0 0.66 0 1 0 C1.02526739 7.24486551 1.0428318 14.48971974 1.05493164 21.73461914 C1.05997356 24.20142033 1.06680691 26.66821852 1.07543945 29.13500977 C1.08751125 32.67204529 1.09322956 36.20904145 1.09765625 39.74609375 C1.10281754 40.85649521 1.10797882 41.96689667 1.11329651 43.11094666 C1.11337204 44.13192947 1.11344757 45.15291229 1.11352539 46.20483398 C1.115746 47.10862289 1.11796661 48.0124118 1.12025452 48.94358826 C1 51 1 51 0 52 C-2.64453125 52.68359375 -2.64453125 52.68359375 -6 52 C-8.72052639 49.00178553 -10.65075405 45.5474461 -12.6875 42.0625 C-13.91198437 40.0503088 -15.13725506 38.0385959 -16.36328125 36.02734375 C-16.96994629 35.01655762 -17.57661133 34.00577148 -18.20166016 32.96435547 C-20.83457437 28.62430057 -23.59759899 24.37346836 -26.375 20.125 C-27.2790225 18.73201521 -28.1827085 17.33881194 -29.0859375 15.9453125 C-29.71757812 14.97335938 -30.34921875 14.00140625 -31 13 C-30.01 13 -29.02 13 -28 13 C-26.20673737 15.40229523 -24.6271336 17.76554521 -23.0625 20.3125 C-22.59030029 21.06345947 -22.11810059 21.81441895 -21.6315918 22.58813477 C-20.6168675 24.20302021 -19.60636354 25.82056351 -18.59960938 27.44042969 C-16.95627904 30.06995887 -15.28658507 32.68102966 -13.609375 35.2890625 C-12.51016167 37.00504502 -11.41119725 38.721187 -10.3125 40.4375 C-9.78342041 41.25968018 -9.25434082 42.08186035 -8.70922852 42.92895508 C-8.22381592 43.69361084 -7.73840332 44.4582666 -7.23828125 45.24609375 C-6.80555908 45.92341553 -6.37283691 46.6007373 -5.92700195 47.29858398 C-5 49 -5 49 -5 51 C-3.68 51 -2.36 51 -1 51 C-0.67 34.17 -0.34 17.34 0 0 Z " fill="#113D9A" transform="translate(358,49)"/>
<path d="M0 0 C2.64 0 5.28 0 8 0 C7.67 1.32 7.34 2.64 7 4 C6.34 3.34 5.68 2.68 5 2 C4.01 2 3.02 2 2 2 C1.67 17.51 1.34 33.02 1 49 C11.23 49 21.46 49 32 49 C31.505 46.525 31.505 46.525 31 44 C24.4 44 17.8 44 11 44 C10.67 43.34 10.34 42.68 10 42 C17.59 42 25.18 42 33 42 C33 44.64 33 47.28 33 50 C22.11 50 11.22 50 0 50 C0 33.5 0 17 0 0 Z " fill="#0D5BEE" transform="translate(473,49)"/>
<path d="M0 0 C3.375 2.0625 3.375 2.0625 5 5 C5.79444912 9.36947017 5.26718443 11.45573542 3.3125 15.4375 C1.20398875 17.73547168 0.02716952 17.99646354 -3.12109375 18.40625 C-7.63832098 18.44653742 -11.69464607 18.43511798 -16 17 C-16 11.72 -16 6.44 -16 1 C-11.32854381 -1.3357281 -5.07157398 -0.51008894 0 0 Z M-14 2 C-14 6.62 -14 11.24 -14 16 C-11.916875 16.04125 -9.83375 16.0825 -7.6875 16.125 C-6.51574219 16.14820313 -5.34398437 16.17140625 -4.13671875 16.1953125 C-0.83606339 16.25320618 -0.83606339 16.25320618 2 14 C2.6931247 11.91550152 2.6931247 11.91550152 2.875 9.5625 C2.97554688 8.78003906 3.07609375 7.99757813 3.1796875 7.19140625 C3.15774982 4.97413058 3.15774982 4.97413058 1.95703125 3.2265625 C-1.05115949 1.34118946 -3.68668947 1.71614742 -7.1875 1.8125 C-10.5596875 1.9053125 -10.5596875 1.9053125 -14 2 Z " fill="#0D42A9" transform="translate(450,56)"/>
<path d="M0 0 C2.97 0 5.94 0 9 0 C10.59900351 14.09121846 11.19301655 27.81328377 11 42 C18.59 42 26.18 42 34 42 C34 43.98 34 45.96 34 48 C33.67 48 33.34 48 33 48 C33 46.35 33 44.7 33 43 C31.91730835 43.00785522 31.91730835 43.00785522 30.81274414 43.01586914 C27.56267151 43.03657358 24.31261272 43.04963918 21.0625 43.0625 C19.35803711 43.07506836 19.35803711 43.07506836 17.61914062 43.08789062 C16.53955078 43.09111328 15.45996094 43.09433594 14.34765625 43.09765625 C12.84730835 43.10551147 12.84730835 43.10551147 11.31665039 43.11352539 C9 43 9 43 8 42 C7.91128727 38.97022196 7.8848065 35.96332978 7.90234375 32.93359375 C7.9037587 32.02497086 7.90517365 31.11634796 7.90663147 30.18019104 C7.91224807 27.26592779 7.92480335 24.35174019 7.9375 21.4375 C7.94251286 19.46679798 7.94707614 17.49609476 7.95117188 15.52539062 C7.96222289 10.68356441 7.97949862 5.84179505 8 1 C5.36 1 2.72 1 0 1 C0 0.67 0 0.34 0 0 Z " fill="#104FC2" transform="translate(473,48)"/>
<path d="M0 0 C8.25 0 16.5 0 25 0 C26 5 26 5 25 7 C16.75 7 8.5 7 0 7 C-0.33 12.61 -0.66 18.22 -1 24 C-1.33 24 -1.66 24 -2 24 C-2.02683987 21.02077407 -2.04676037 18.04178705 -2.0625 15.0625 C-2.07087891 14.21236328 -2.07925781 13.36222656 -2.08789062 12.48632812 C-2.09111328 11.67744141 -2.09433594 10.86855469 -2.09765625 10.03515625 C-2.10289307 9.2862915 -2.10812988 8.53742676 -2.11352539 7.76586914 C-2 6 -2 6 -1 5 C0.85369611 4.91262355 2.71067541 4.89301847 4.56640625 4.90234375 C5.69111328 4.90556641 6.81582031 4.90878906 7.97460938 4.91210938 C9.15861328 4.92048828 10.34261719 4.92886719 11.5625 4.9375 C12.75037109 4.94201172 13.93824219 4.94652344 15.16210938 4.95117188 C18.10812226 4.96300325 21.05403681 4.97948713 24 5 C24 3.68 24 2.36 24 1 C16.08 1 8.16 1 0 1 C0 0.67 0 0.34 0 0 Z " fill="#09399E" transform="translate(181,70)"/>
<path d="M0 0 C1.65 0 3.3 0 5 0 C5 16.17 5 32.34 5 49 C4.67 49 4.34 49 4 49 C3.67 34.15 3.34 19.3 3 4 C2.34 3.67 1.68 3.34 1 3 C1.02320313 3.78503906 1.04640625 4.57007813 1.0703125 5.37890625 C1.17284781 11.34792603 1.04580539 16.37403518 -1 22 C-1.66 21.67 -2.32 21.34 -3 21 C-2.9278125 20.33613281 -2.855625 19.67226562 -2.78125 18.98828125 C-2.6884375 18.10527344 -2.595625 17.22226563 -2.5 16.3125 C-2.4071875 15.44238281 -2.314375 14.57226562 -2.21875 13.67578125 C-2.00840136 11.10276661 -1.96280856 8.58015636 -2 6 C-1.67 6 -1.34 6 -1 6 C-0.67 4.02 -0.34 2.04 0 0 Z " fill="#1154D7" transform="translate(303,49)"/>
<path d="M0 0 C2.475 0.495 2.475 0.495 5 1 C4.34 1.66 3.68 2.32 3 3 C2.7374475 6.10990388 2.7374475 6.10990388 2.83984375 9.765625 C2.84504532 10.43664246 2.85024689 11.10765991 2.85560608 11.79901123 C2.87343839 13.94955934 2.90456907 16.09963414 2.9375 18.25 C2.96523138 20.38603962 2.98998246 22.52200371 3.00868225 24.65814209 C3.02646772 26.60712685 3.05387823 28.55601672 3.08178711 30.50488281 C3.0052202 33.77691821 2.6281777 36.79293891 2 40 C1.34 40 0.68 40 0 40 C0 26.8 0 13.6 0 0 Z " fill="#0D43CD" transform="translate(324,59)"/>
<path d="M0 0 C1.44707038 4.34121115 0.03053584 7.02303104 -1.5625 11.19921875 C-4.23944758 16.41490194 -8.38484527 19.48596305 -13.375 22.375 C-22.03442199 24.43676714 -29.055757 24.58003906 -37 20 C-40.06100847 17.27265596 -42.70695659 14.40342832 -45 11 C-45 10.34 -45 9.68 -45 9 C-42 10 -42 10 -40.25 12.8125 C-36.9043582 17.55215921 -32.714979 19.83543824 -27 21 C-19.9195889 21.98132013 -15.07239242 20.74115659 -9.12890625 16.76953125 C-3.93190295 12.44982025 -2.17843012 6.20852584 0 0 Z " fill="#083894" transform="translate(415,78)"/>
<path d="M0 0 C3.61804193 1.81904324 6.41729769 3.86386148 9 7 C9.75 9.75 9.75 9.75 10 12 C9.34 12 8.68 12 8 12 C7.12109375 10.27473958 6.2421875 8.54947917 5.36328125 6.82421875 C3.52580979 4.36548187 1.77085241 3.31209177 -1 2 C-3.94924807 1.52917564 -3.94924807 1.52917564 -7 1.625 C-8.010625 1.61726563 -9.02125 1.60953125 -10.0625 1.6015625 C-13.41258939 2.05596292 -15.28305022 3.01928661 -18 5 C-21.76283155 10.24108681 -22.15123383 14.90475047 -22.5625 21.25 C-22.64628906 22.51328125 -22.73007812 23.7765625 -22.81640625 25.078125 C-22.87699219 26.04234375 -22.93757813 27.0065625 -23 28 C-23.66 28 -24.32 28 -25 28 C-25.41876371 18.97331562 -25.69705017 9.46841252 -19.25 2.375 C-13.9395029 -1.64775853 -6.27062827 -0.89679717 0 0 Z " fill="#0D3B9E" transform="translate(399,52)"/>
<path d="M0 0 C1.32 0 2.64 0 4 0 C4 16.17 4 32.34 4 49 C3.67 49 3.34 49 3 49 C2.67 34.15 2.34 19.3 2 4 C1.67 15.22 1.34 26.44 1 38 C0.67 38 0.34 38 0 38 C0 25.46 0 12.92 0 0 Z " fill="#125BDE" transform="translate(354,49)"/>
<path d="M0 0 C1.60332791 -0.08121924 3.20784026 -0.13929134 4.8125 -0.1875 C6.15248047 -0.23970703 6.15248047 -0.23970703 7.51953125 -0.29296875 C10.54709183 0.06461715 11.04888266 0.73783033 13 3 C14.74915358 5.74144797 16.22936153 8.62661689 17.75 11.5 C18.17410156 12.27214844 18.59820313 13.04429688 19.03515625 13.83984375 C19.43089844 14.58363281 19.82664062 15.32742187 20.234375 16.09375 C20.59756836 16.77115234 20.96076172 17.44855469 21.33496094 18.14648438 C22 20 22 20 21 23 C20.74420166 22.42967041 20.48840332 21.85934082 20.22485352 21.27172852 C19.03960839 18.68393892 17.80232418 16.12455913 16.5625 13.5625 C16.16095703 12.66466797 15.75941406 11.76683594 15.34570312 10.84179688 C13.05809626 5.91328386 13.05809626 5.91328386 8.64404297 3.17919922 C6.38056841 2.92770205 4.27007554 2.8496618 2 3 C2.66 4.051875 3.32 5.10375 4 6.1875 C5.7771585 9.26623937 6.43806506 11.38596328 6 15 C3.045111 11.4541332 0.54065015 7.36218967 -1 3 C-0.67 2.01 -0.34 1.02 0 0 Z " fill="#0F3AA0" transform="translate(554,46)"/>
<path d="M0 0 C3.20611879 -0.55712884 4.9350727 -0.85155718 8 0 C10.91732128 2.90621372 12.79010277 6.37300295 14.8125 9.9375 C16.01866377 11.94973898 17.22570656 13.96145131 18.43359375 15.97265625 C19.02769043 16.98344238 19.62178711 17.99422852 20.23388672 19.03564453 C22.83002524 23.39316651 25.59414367 27.63392922 28.375 31.875 C29.27924049 33.26784329 30.18294996 34.66103159 31.0859375 36.0546875 C31.71757812 37.02664062 32.34921875 37.99859375 33 39 C32.01 39 31.02 39 30 39 C28.74145508 37.56298828 28.74145508 37.56298828 27.51953125 35.5703125 C27.07802734 34.85746094 26.63652344 34.14460938 26.18164062 33.41015625 C25.72982422 32.65605469 25.27800781 31.90195313 24.8125 31.125 C24.34908203 30.37863281 23.88566406 29.63226563 23.40820312 28.86328125 C20 23.29169735 20 23.29169735 20 21 C19.34 21 18.68 21 18 21 C16.66796875 19.09375 16.66796875 19.09375 15.1875 16.5 C14.65382813 15.59378906 14.12015625 14.68757813 13.5703125 13.75390625 C12.59815822 12.04900882 11.65020762 10.32974565 10.7421875 8.58984375 C9.61063024 6.52531378 8.58908249 4.73891027 7 3 C3.33054374 1.86521513 3.33054374 1.86521513 0 2 C0 1.34 0 0.68 0 0 Z " fill="#0E3C9D" transform="translate(319,47)"/>
<path d="M0 0 C1.32 0 2.64 0 4 0 C3.05083502 5.12549091 1.10960938 8.1621317 -3.0625 11.3125 C-7.53190191 13.70065682 -12.06492344 13.35747033 -17 13 C-17.33 12.34 -17.66 11.68 -18 11 C-13.545 10.505 -13.545 10.505 -9 10 C-9 9.34 -9 8.68 -9 8 C-7.88625 7.79375 -6.7725 7.5875 -5.625 7.375 C-1.73400805 6.38371699 -1.73400805 6.38371699 -0.5625 2.875 C-0.376875 1.92625 -0.19125 0.9775 0 0 Z " fill="#0E58EA" transform="translate(255,86)"/>
<path d="M0 0 C0.33 0 0.66 0 1 0 C1.36345004 5.35877503 0.08565791 9.41595037 -1.6875 14.375 C-2.23705084 15.96306694 -2.7851974 17.55162044 -3.33203125 19.140625 C-3.60998535 19.94306641 -3.88793945 20.74550781 -4.17431641 21.57226562 C-5.47676323 25.40181358 -6.68010298 29.26078291 -7.875 33.125 C-8.08987061 33.81770996 -8.30474121 34.51041992 -8.52612305 35.22412109 C-9.01895754 36.81560398 -9.50973508 38.40772366 -10 40 C-7.69 40 -5.38 40 -3 40 C-3 40.33 -3 40.66 -3 41 C-5.64 41 -8.28 41 -11 41 C-12.45569602 37.15405112 -11.50124908 34.61967032 -10.234375 30.80078125 C-9.83863281 29.59099609 -9.44289063 28.38121094 -9.03515625 27.13476562 C-8.60700473 25.86059846 -8.17861778 24.58651039 -7.75 23.3125 C-7.34136719 22.07048828 -6.93273437 20.82847656 -6.51171875 19.54882812 C-5.3515009 16.02900323 -4.17804938 12.51389068 -3 9 C-2.40074182 7.20192282 -1.80173446 5.403762 -1.203125 3.60546875 C-0.80609375 2.41566406 -0.4090625 1.22585937 0 0 Z " fill="#093D9F" transform="translate(523,60)"/>
<path d="M0 0 C4.14422261 -0.09953791 8.28779575 -0.17177901 12.43286133 -0.21972656 C13.84021134 -0.23973246 15.24747938 -0.26694662 16.65454102 -0.30175781 C31.18498365 -0.65201308 31.18498365 -0.65201308 37 4 C38.9375 6.25 38.9375 6.25 40 8 C39.67 8.66 39.34 9.32 39 10 C37.5 8.625 37.5 8.625 36 7 C36 6.34 36 5.68 36 5 C32.30341266 2.63783096 28.64139313 2.65596351 24.390625 2.5859375 C23.66381531 2.56657135 22.93700562 2.5472052 22.18817139 2.5272522 C19.87556552 2.46765729 17.56290933 2.42115242 15.25 2.375 C13.67836418 2.33680164 12.10674887 2.29774883 10.53515625 2.2578125 C6.69027158 2.16197257 2.84528893 2.07786805 -1 2 C-0.67 1.34 -0.34 0.68 0 0 Z " fill="#103AA3" transform="translate(424,47)"/>
<path d="M0 0 C8.91 0 17.82 0 27 0 C27 0.99 27 1.98 27 3 C17.76 3 8.52 3 -1 3 C-0.67 2.01 -0.34 1.02 0 0 Z " fill="#1B52C3" transform="translate(180,93)"/>
<path d="M0 0 C0.33 0.99 0.66 1.98 1 3 C-0.22976562 3.09087891 -0.22976562 3.09087891 -1.484375 3.18359375 C-3.10085937 3.30927734 -3.10085937 3.30927734 -4.75 3.4375 C-6.35101563 3.55931641 -6.35101563 3.55931641 -7.984375 3.68359375 C-11.1931585 3.94913876 -11.1931585 3.94913876 -15 5 C-15 19.52 -15 34.04 -15 49 C-15.33 49 -15.66 49 -16 49 C-16.02527002 42.46721214 -16.04283292 35.93443679 -16.05493164 29.40161133 C-16.05997317 27.17732268 -16.06680623 24.95303737 -16.07543945 22.72875977 C-16.08751298 19.53921691 -16.09322996 16.34971771 -16.09765625 13.16015625 C-16.10281754 12.15912369 -16.10797882 11.15809113 -16.11329651 10.12672424 C-16.11337204 9.20584518 -16.11344757 8.28496613 -16.11352539 7.33618164 C-16.115746 6.52121719 -16.11796661 5.70625275 -16.12025452 4.86659241 C-16 3 -16 3 -15 2 C-11.37827258 1.67404453 -7.7554479 1.48619464 -4.125 1.28125 C-1.1350199 1.34864552 -1.1350199 1.34864552 0 0 Z " fill="#0A48CD" transform="translate(163,49)"/>
<path d="M0 0 C3.1875 -0.3125 3.1875 -0.3125 6 0 C7 2 7 2 5.9375 5.8125 C3.86264898 11.05673354 0.64695895 13.31557157 -4.0625 16.3125 C-6.45461257 17.16131414 -8.48128949 17.13992836 -11 17 C-10 15 -10 15 -8.29296875 14.25390625 C-7.59816406 14.02574219 -6.90335938 13.79757813 -6.1875 13.5625 C-0.69559849 11.63997651 -0.69559849 11.63997651 2.90234375 7.25390625 C3.65690151 5.52572558 4.33423045 3.76428931 5 2 C3.68 2 2.36 2 1 2 C0.731875 2.94875 0.46375 3.8975 0.1875 4.875 C-1 8 -1 8 -4 10 C-4.99 9.67 -5.98 9.34 -7 9 C-6.401875 8.443125 -5.80375 7.88625 -5.1875 7.3125 C-2.88511894 5.10225877 -2.88511894 5.10225877 -1.625 2.25 C-1.08875 1.5075 -0.5525 0.765 0 0 Z " fill="#0C3F9E" transform="translate(254,84)"/>
<path d="M0 0 C2.3515625 0.6015625 2.3515625 0.6015625 5 2 C6.3984375 4.8984375 6.3984375 4.8984375 7.375 8.375 C7.71273437 9.51710938 8.05046875 10.65921875 8.3984375 11.8359375 C8.95714689 14.77460376 9.04170469 16.25368764 8 19 C4.75699022 14.13548533 3.65912004 8.58570413 2 3 C0.35 7.29 -1.3 11.58 -3 16 C-4.13200698 11.4719721 -3.60058415 10.03799216 -2.0625 5.75 C-1.68222656 4.67234375 -1.30195312 3.5946875 -0.91015625 2.484375 C-0.45962891 1.25460938 -0.45962891 1.25460938 0 0 Z " fill="#0F3EB1" transform="translate(534,60)"/>
<path d="M0 0 C0.99 0.33 1.98 0.66 3 1 C3 7.6 3 14.2 3 21 C2.01 20.34 1.02 19.68 0 19 C-0.34057617 17.02880859 -0.34057617 17.02880859 -0.29296875 14.6484375 C-0.28330078 13.79765625 -0.27363281 12.946875 -0.26367188 12.0703125 C-0.23853516 11.18085937 -0.21339844 10.29140625 -0.1875 9.375 C-0.17396484 8.4778125 -0.16042969 7.580625 -0.14648438 6.65625 C-0.11106925 4.43690211 -0.06168461 2.21874812 0 0 Z " fill="#075DF6" transform="translate(304,52)"/>
<path d="M0 0 C4.29 0 8.58 0 13 0 C13.33 0.99 13.66 1.98 14 3 C7.565 3.495 7.565 3.495 1 4 C0.54625 5.299375 0.0925 6.59875 -0.375 7.9375 C-1.75 11.875 -1.75 11.875 -4 13 C-3.52343588 11.20763933 -3.04366502 9.41613103 -2.5625 7.625 C-2.29566406 6.62726562 -2.02882813 5.62953125 -1.75390625 4.6015625 C-1 2 -1 2 0 0 Z " fill="#0F41B6" transform="translate(528,46)"/>
<path d="M0 0 C0.33 0 0.66 0 1 0 C1 15.18 1 30.36 1 46 C-0.98 46.495 -0.98 46.495 -3 47 C-3.66 46.34 -4.32 45.68 -5 45 C-3.02 44.505 -3.02 44.505 -1 44 C-0.67 29.48 -0.34 14.96 0 0 Z " fill="#124092" transform="translate(148,54)"/>
<path d="M0 0 C1.65 0 3.3 0 5 0 C5 7.26 5 14.52 5 22 C4.34 22 3.68 22 3 22 C2.67 16.06 2.34 10.12 2 4 C1.34 3.67 0.68 3.34 0 3 C0 2.01 0 1.02 0 0 Z " fill="#1A55D7" transform="translate(271,49)"/>
<path d="M0 0 C0.45375 0.495 0.9075 0.99 1.375 1.5 C2.87635519 3.22609337 2.87635519 3.22609337 5 3 C6.75 4.875 6.75 4.875 8 8 C7.66023012 11.42383493 6.89553344 14.6820164 6 18 C5.67 18 5.34 18 5 18 C4.67 14.04 4.34 10.08 4 6 C2.41727399 7.58272601 2.65264253 9.38034003 2.4375 11.5625 C2.35371094 12.38878906 2.26992188 13.21507813 2.18359375 14.06640625 C2.12300781 14.70449219 2.06242187 15.34257813 2 16 C1.67 16 1.34 16 1 16 C1 12.37 1 8.74 1 5 C0.34 5 -0.32 5 -1 5 C-1.33 4.01 -1.66 3.02 -2 2 C-1.34 2 -0.68 2 0 2 C0 1.34 0 0.68 0 0 Z " fill="#0D52DE" transform="translate(409,62)"/>
<path d="M0 0 C2.35020498 2.35020498 2.31914802 2.91909622 2.375 6.125 C2.23819025 11.13062717 1.02721347 14.98697926 -2 19 C-4.23856864 20.97492566 -6.4411698 22.42533526 -9 24 C-9 23.01 -9 22.02 -9 21 C-7.53282199 19.78798338 -6.05942014 18.57842879 -4.5078125 17.4765625 C-1.07365187 14.11357618 -0.70732301 9.78463498 -0.375 5.1875 C-0.30023438 4.21167969 -0.22546875 3.23585937 -0.1484375 2.23046875 C-0.09945313 1.49441406 -0.05046875 0.75835937 0 0 Z " fill="#113FA2" transform="translate(464,58)"/>
<path d="M0 0 C0.66 1.32 1.32 2.64 2 4 C6.29 4 10.58 4 15 4 C15 4.99 15 5.98 15 7 C9.72 7 4.44 7 -1 7 C-1 1 -1 1 0 0 Z " fill="#124CCE" transform="translate(529,74)"/>
<path d="M0 0 C2.97 0 5.94 0 9 0 C9.36372579 3.45739843 9.71435398 6.9160008 10.0625 10.375 C10.16626953 11.35984375 10.27003906 12.3446875 10.37695312 13.359375 C10.47041016 14.30039062 10.56386719 15.24140625 10.66015625 16.2109375 C10.74918213 17.08024902 10.83820801 17.94956055 10.92993164 18.84521484 C11 21 11 21 10 23 C9.34 23 8.68 23 8 23 C8 15.74 8 8.48 8 1 C5.36 1 2.72 1 0 1 C0 0.67 0 0.34 0 0 Z " fill="#0849CC" transform="translate(473,48)"/>
<path d="M0 0 C0.886875 0.639375 1.77375 1.27875 2.6875 1.9375 C7.99918488 5.04329921 13.99488758 4.81939512 20 5 C20 5.66 20 6.32 20 7 C13.68498992 8.21330055 8.70241502 8.25115065 3 5 C1.2734375 3.515625 1.2734375 3.515625 0 2 C0 1.34 0 0.68 0 0 Z " fill="#053BAC" transform="translate(226,89)"/>
<path d="M0 0 C0.33 0 0.66 0 1 0 C1 7.26 1 14.52 1 22 C-0.65 22.33 -2.3 22.66 -4 23 C-4 22.34 -4 21.68 -4 21 C-3.01 21 -2.02 21 -1 21 C-1.01160156 20.40574219 -1.02320313 19.81148437 -1.03515625 19.19921875 C-1.10546296 12.74104487 -0.68350916 6.42010387 0 0 Z " fill="#1951C7" transform="translate(275,77)"/>
<path d="M0 0 C1.80691678 3.61383355 2.56157766 6.05419896 3 10 C2 11 2 11 -0.21484375 11.1328125 C-1.11332031 11.13023438 -2.01179687 11.12765625 -2.9375 11.125 C-3.83339844 11.12757812 -4.72929688 11.13015625 -5.65234375 11.1328125 C-8 11 -8 11 -10 10 C-10 9.34 -10 8.68 -10 8 C-6.37 8.33 -2.74 8.66 1 9 C0.67 6.03 0.34 3.06 0 0 Z " fill="#173D9A" transform="translate(558,90)"/>
<path d="M0 0 C0.99 0 1.98 0 3 0 C3 0.99 3 1.98 3 3 C-7.56 3 -18.12 3 -29 3 C-29 2.67 -29 2.34 -29 2 C-19.43 2 -9.86 2 0 2 C0 1.34 0 0.68 0 0 Z " fill="#0C55EA" transform="translate(204,96)"/>
<path d="M0 0 C0.90105469 0.00902344 1.80210937 0.01804688 2.73046875 0.02734375 C3.41753906 0.03894531 4.10460937 0.05054688 4.8125 0.0625 C5.1425 1.0525 5.4725 2.0425 5.8125 3.0625 C1.1925 3.0625 -3.4275 3.0625 -8.1875 3.0625 C-8.1875 2.4025 -8.1875 1.7425 -8.1875 1.0625 C-5.17259443 0.05753148 -3.14568308 -0.04085303 0 0 Z " fill="#0D5EEE" transform="translate(394.1875,47.9375)"/>
<path d="M0 0 C1.4540625 0.0309375 1.4540625 0.0309375 2.9375 0.0625 C3.2675 0.7225 3.5975 1.3825 3.9375 2.0625 C1.9575 2.3925 -0.0225 2.7225 -2.0625 3.0625 C-2.3925 10.3225 -2.7225 17.5825 -3.0625 25.0625 C-3.3925 25.0625 -3.7225 25.0625 -4.0625 25.0625 C-4.09136984 21.08334841 -4.10925406 17.10422347 -4.125 13.125 C-4.13337891 11.98869141 -4.14175781 10.85238281 -4.15039062 9.68164062 C-4.15361328 8.60205078 -4.15683594 7.52246094 -4.16015625 6.41015625 C-4.16539307 5.40992432 -4.17062988 4.40969238 -4.17602539 3.37915039 C-4.00184986 -0.17515409 -3.63230701 0.07412871 0 0 Z " fill="#032F72" transform="translate(356.0625,46.9375)"/>
<path d="M0 0 C1.98 0 3.96 0 6 0 C6 0.99 6 1.98 6 3 C-2.91 3 -11.82 3 -21 3 C-21 2.67 -21 2.34 -21 2 C-10.605 1.505 -10.605 1.505 0 1 C0 0.67 0 0.34 0 0 Z " fill="#1359E5" transform="translate(201,49)"/>
<path d="M0 0 C0.99 0 1.98 0 3 0 C3.2358396 5.77807024 2.86783046 10.51324804 1 16 C0.34 15.67 -0.32 15.34 -1 15 C-0.9278125 14.33613281 -0.855625 13.67226562 -0.78125 12.98828125 C-0.6884375 12.10527344 -0.595625 11.22226563 -0.5 10.3125 C-0.4071875 9.44238281 -0.314375 8.57226562 -0.21875 7.67578125 C-0.00840136 5.10276661 0.03719144 2.58015636 0 0 Z " fill="#0F45C7" transform="translate(301,55)"/>
<path d="M0 0 C0.33 0 0.66 0 1 0 C1.125 5.75 1.125 5.75 0 8 C2.64 7.34 5.28 6.68 8 6 C7.34 7.65 6.68 9.3 6 11 C3.36 10.67 0.72 10.34 -2 10 C-1.46274105 6.62294375 -0.88935377 3.303314 0 0 Z " fill="#1253DA" transform="translate(515,90)"/>
<path d="M0 0 C3.1875 -0.3125 3.1875 -0.3125 6 0 C6 0.99 6 1.98 6 3 C4.35 2.67 2.7 2.34 1 2 C0.731875 2.94875 0.46375 3.8975 0.1875 4.875 C-1 8 -1 8 -4 10 C-4.99 9.67 -5.98 9.34 -7 9 C-6.401875 8.443125 -5.80375 7.88625 -5.1875 7.3125 C-2.88511894 5.10225877 -2.88511894 5.10225877 -1.625 2.25 C-1.08875 1.5075 -0.5525 0.765 0 0 Z " fill="#0E3196" transform="translate(254,84)"/>
<path d="M0 0 C0.33 0 0.66 0 1 0 C1.33 2.64 1.66 5.28 2 8 C3.65 8 5.3 8 7 8 C7 8.66 7 9.32 7 10 C4.125 10.125 4.125 10.125 1 10 C-1 8 -1 8 -1.1875 4.4375 C-1 1 -1 1 0 0 Z " fill="#0B2FAB" transform="translate(319,91)"/>
<path d="M0 0 C2.64 0 5.28 0 8 0 C9.65 2.97 11.3 5.94 13 9 C12.01 8.67 11.02 8.34 10 8 C9.38125 6.7625 9.38125 6.7625 8.75 5.5 C7.13579798 2.5938773 7.13579798 2.5938773 3.3125 2.1875 C1.6728125 2.0946875 1.6728125 2.0946875 0 2 C0 1.34 0 0.68 0 0 Z " fill="#113191" transform="translate(319,47)"/>
<path d="M0 0 C0.66 0 1.32 0 2 0 C2.33 1.98 2.66 3.96 3 6 C1.35 6.33 -0.3 6.66 -2 7 C-2 3 -2 3 0 0 Z " fill="#025FFB" transform="translate(554,91)"/>
<path d="M0 0 C0 1.98 0 3.96 0 6 C-0.66 5.01 -1.32 4.02 -2 3 C-4.12106795 2.49297483 -4.12106795 2.49297483 -6.5703125 2.48828125 C-7.46621094 2.45283203 -8.36210938 2.41738281 -9.28515625 2.38085938 C-10.22230469 2.35830078 -11.15945313 2.33574219 -12.125 2.3125 C-13.06988281 2.27833984 -14.01476562 2.24417969 -14.98828125 2.20898438 C-17.32540253 2.12635888 -19.66214191 2.05726012 -22 2 C-22 1.67 -22 1.34 -22 1 C-18.70837401 0.83252349 -15.41669287 0.66615639 -12.125 0.5 C-11.18785156 0.45230469 -10.25070312 0.40460938 -9.28515625 0.35546875 C-8.38925781 0.31035156 -7.49335937 0.26523438 -6.5703125 0.21875 C-5.74289551 0.17685547 -4.91547852 0.13496094 -4.06298828 0.09179688 C-2.70965236 0.03157743 -1.35467505 0 0 0 Z " fill="#0C59EF" transform="translate(548,85)"/>
<path d="M0 0 C2.24226443 3.36339665 3.42592747 6.76340552 4.6875 10.5625 C4.92533203 11.24763672 5.16316406 11.93277344 5.40820312 12.63867188 C5.99980093 14.40652572 6.5063209 16.20234149 7 18 C6.67 18.66 6.34 19.32 6 20 C1.86595851 14.29108557 0 6.97440028 0 0 Z " fill="#0D58E6" transform="translate(549,69)"/>
<path d="M0 0 C0 2.31 0 4.62 0 7 C-0.66 7 -1.32 7 -2 7 C-2 9.31 -2 11.62 -2 14 C-2.33 14 -2.66 14 -3 14 C-3.24915939 12.23186888 -3.47366632 10.46025018 -3.6875 8.6875 C-3.81511719 7.70136719 -3.94273437 6.71523437 -4.07421875 5.69921875 C-4 3 -4 3 -2.58203125 1.14453125 C-1 0 -1 0 0 0 Z " fill="#085EF8" transform="translate(374,65)"/>
<path d="M0 0 C0.33 0 0.66 0 1 0 C1.6319296 6.00333124 -0.62455877 10.63404795 -3 16 C-4.49828872 12.11764181 -3.43110582 9.56550712 -2.0625 5.75 C-1.68222656 4.67234375 -1.30195312 3.5946875 -0.91015625 2.484375 C-0.45962891 1.25460938 -0.45962891 1.25460938 0 0 Z " fill="#0E34A3" transform="translate(523,60)"/>
<path d="M0 0 C2.375 0.1875 2.375 0.1875 5 1 C6.3125 3.5625 6.3125 3.5625 7 6 C5.1875 6.6875 5.1875 6.6875 3 7 C1.25 5.8125 1.25 5.8125 0 4 C0 2.68 0 1.36 0 0 Z " fill="#0461FA" transform="translate(322,51)"/>
<path d="M0 0 C2.97 0 5.94 0 9 0 C9.66 1.65 10.32 3.3 11 5 C10.01 4.67 9.02 4.34 8 4 C8 3.01 8 2.02 8 1 C6.35 1.33 4.7 1.66 3 2 C2.67 3.32 2.34 4.64 2 6 C1.34 4.02 0.68 2.04 0 0 Z " fill="#0F59EC" transform="translate(556,49)"/>
<path d="M0 0 C3.40320742 1.01176437 4.75725331 1.64843582 6.8125 4.625 C7.204375 5.40875 7.59625 6.1925 8 7 C7.01 7.33 6.02 7.66 5 8 C5 7.34 5 6.68 5 6 C4.01 6 3.02 6 2 6 C0 3 0 3 0 0 Z " fill="#0A5CF2" transform="translate(345,84)"/>
<path d="M0 0 C2.97 0 5.94 0 9 0 C8.67 1.32 8.34 2.64 8 4 C7.67 3.34 7.34 2.68 7 2 C4.6568787 2.25561323 2.32156597 2.59270772 0 3 C-0.33 3.66 -0.66 4.32 -1 5 C-0.67 3.35 -0.34 1.7 0 0 Z " fill="#1159EF" transform="translate(589,49)"/>
<path d="M0 0 C0.99 0.33 1.98 0.66 3 1 C2 4 2 4 0.265625 5.1796875 C-2.38319681 6.13874367 -4.44065467 6.19893014 -7.25 6.125 C-8.14203125 6.10695313 -9.0340625 6.08890625 -9.953125 6.0703125 C-10.96632813 6.03550781 -10.96632813 6.03550781 -12 6 C-12 5.67 -12 5.34 -12 5 C-6.555 4.01 -6.555 4.01 -1 3 C-1.33 2.34 -1.66 1.68 -2 1 C-1.34 0.67 -0.68 0.34 0 0 Z " fill="#0D52DF" transform="translate(400,94)"/>
<path d="M0 0 C0.33 0 0.66 0 1 0 C1 2.97 1 5.94 1 9 C0.01 9 -0.98 9 -2 9 C-2.33 7.35 -2.66 5.7 -3 4 C-2.34 4 -1.68 4 -1 4 C-0.67 2.68 -0.34 1.36 0 0 Z " fill="#035FFA" transform="translate(355,88)"/>
<path d="M0 0 C2.86724686 0.57344937 3.8614515 0.8614515 6 3 C5.01 3.99 4.02 4.98 3 6 C2.01 5.67 1.02 5.34 0 5 C0 4.34 0 3.68 0 3 C-0.66 2.67 -1.32 2.34 -2 2 C-1.34 2 -0.68 2 0 2 C0 1.34 0 0.68 0 0 Z " fill="#0260FC" transform="translate(452,73)"/>
<path d="M0 0 C0.99 0.99 1.98 1.98 3 3 C2.85546875 5.48046875 2.85546875 5.48046875 2.1875 8.1875 C1.97480469 9.08855469 1.76210938 9.98960938 1.54296875 10.91796875 C1.27419922 11.94857422 1.27419922 11.94857422 1 13 C0.67 13 0.34 13 0 13 C0 8.71 0 4.42 0 0 Z " fill="#0D42C2" transform="translate(414,67)"/>
<path d="M0 0 C0.66 0.33 1.32 0.66 2 1 C3.53668865 1.22467831 5.07968054 1.40796805 6.625 1.5625 C7.44226563 1.64628906 8.25953125 1.73007813 9.1015625 1.81640625 C9.72804688 1.87699219 10.35453125 1.93757813 11 2 C11 2.66 11 3.32 11 4 C7.04 4 3.08 4 -1 4 C-1 1 -1 1 0 0 Z " fill="#0B5EE9" transform="translate(435,72)"/>
<path d="M0 0 C0 4.95 0 9.9 0 15 C-0.33 15 -0.66 15 -1 15 C-1.06058594 14.32453125 -1.12117187 13.6490625 -1.18359375 12.953125 C-1.26738281 12.06109375 -1.35117188 11.1690625 -1.4375 10.25 C-1.51871094 9.36828125 -1.59992188 8.4865625 -1.68359375 7.578125 C-1.96238465 5.30649548 -2.38790577 3.20148177 -3 1 C-1 0 -1 0 0 0 Z " fill="#1046E8" transform="translate(218,66)"/>
<path d="M0 0 C4.39381209 0.50214995 6.83419795 1.92213689 10 5 C10.8125 7.25 10.8125 7.25 11 9 C9 7.625 9 7.625 7 6 C7 5.34 7 4.68 7 4 C6.1028125 3.566875 6.1028125 3.566875 5.1875 3.125 C3 2 3 2 0 0 Z " fill="#1542AB" transform="translate(453,48)"/>
<path d="M0 0 C1.32 0 2.64 0 4 0 C4 0.99 4 1.98 4 3 C-0.62 3 -5.24 3 -10 3 C-10 2.67 -10 2.34 -10 2 C-6.7 2 -3.4 2 0 2 C0 1.34 0 0.68 0 0 Z " fill="#0752DD" transform="translate(540,78)"/>
<path d="M0 0 C0.33 0 0.66 0 1 0 C1.36923077 6.4 1.36923077 6.4 -0.5 9.4375 C-0.995 9.953125 -1.49 10.46875 -2 11 C-2.99 10.67 -3.98 10.34 -5 10 C-4.34 9.67 -3.68 9.34 -3 9 C-2.09274566 6.88672575 -2.09274566 6.88672575 -1.375 4.4375 C-1.11460937 3.61121094 -0.85421875 2.78492188 -0.5859375 1.93359375 C-0.39257812 1.29550781 -0.19921875 0.65742187 0 0 Z " fill="#0737A0" transform="translate(454,61)"/>
<path d="M0 0 C1.98 0 3.96 0 6 0 C6.33 0.99 6.66 1.98 7 3 C4.03 3 1.06 3 -2 3 C-1.34 2.67 -0.68 2.34 0 2 C0 1.34 0 0.68 0 0 Z " fill="#042DD4" transform="translate(558,46)"/>
<path d="M0 0 C0.99 1.32 1.98 2.64 3 4 C0.525 5.485 0.525 5.485 -2 7 C-2.6875 5.1875 -2.6875 5.1875 -3 3 C-1.5625 1.25 -1.5625 1.25 0 0 Z " fill="#115CE9" transform="translate(405,90)"/>
<path d="M0 0 C0.33 0 0.66 0 1 0 C0.67 3.3 0.34 6.6 0 10 C-0.99 10.33 -1.98 10.66 -3 11 C-3.33 9.68 -3.66 8.36 -4 7 C-3.01 6.34 -2.02 5.68 -1 5 C-0.27034634 2.43717258 -0.27034634 2.43717258 0 0 Z " fill="#0B51E2" transform="translate(527,52)"/>
<path d="M0 0 C0.99 0 1.98 0 3 0 C1.375 6.75 1.375 6.75 -2 9 C-1.34 6.03 -0.68 3.06 0 0 Z " fill="#0F3EAD" transform="translate(407,80)"/>
<path d="M0 0 C1.65 0 3.3 0 5 0 C5 0.66 5 1.32 5 2 C5.66 2.33 6.32 2.66 7 3 C4.36 3 1.72 3 -1 3 C-0.67 2.01 -0.34 1.02 0 0 Z " fill="#1C4BD3" transform="translate(180,93)"/>
<path d="M0 0 C0.33 0 0.66 0 1 0 C1 2.64 1 5.28 1 8 C-0.875 8.625 -0.875 8.625 -3 9 C-3.66 8.34 -4.32 7.68 -5 7 C-3.68 6.67 -2.36 6.34 -1 6 C-0.67 4.02 -0.34 2.04 0 0 Z " fill="#1D4296" transform="translate(148,92)"/>
<path d="M0 0 C0.33 0.66 0.66 1.32 1 2 C1.99 2.33 2.98 2.66 4 3 C4 3.99 4 4.98 4 6 C3.34 6 2.68 6 2 6 C1.67 5.34 1.34 4.68 1 4 C0.01 4.33 -0.98 4.66 -2 5 C-2.33 4.34 -2.66 3.68 -3 3 C-2.34 3 -1.68 3 -1 3 C-0.67 2.01 -0.34 1.02 0 0 Z " fill="#0B4FDD" transform="translate(223,86)"/>
<path d="M0 0 C0.99 1.32 1.98 2.64 3 4 C2.34 4.66 1.68 5.32 1 6 C0.01 5.67 -0.98 5.34 -2 5 C-1.125 1.125 -1.125 1.125 0 0 Z " fill="#095EF0" transform="translate(375,85)"/>
<path d="M0 0 C1.65 0 3.3 0 5 0 C4.67 1.32 4.34 2.64 4 4 C2.68 3.67 1.36 3.34 0 3 C0 2.01 0 1.02 0 0 Z " fill="#035DFA" transform="translate(143,50)"/>
</svg>
