<?xml version="1.0" encoding="UTF-8"?>
<svg version="1.1" xmlns="http://www.w3.org/2000/svg" width="720" height="160">
<path d="M0 0 C5.28 0 10.56 0 16 0 C16.495 1.98 16.495 1.98 17 4 C17.66 4 18.32 4 19 4 C19.14695312 4.81791016 19.14695312 4.81791016 19.296875 5.65234375 C20.09680955 9.68649644 21.03902816 13.34323517 22.8125 17.0625 C24.8257389 21.35487728 26.31855863 25.73828052 27.75 30.25 C27.97276611 30.93586182 28.19553223 31.62172363 28.42504883 32.32836914 C29.56144836 35.9829622 30.26730088 39.16868734 30 43 C30.66 43 31.32 43 32 43 C33.60725635 46.21451269 33.05748185 49.43612536 33 53 C31.04196493 53.05389087 29.08351091 53.09274217 27.125 53.125 C26.03445313 53.14820313 24.94390625 53.17140625 23.8203125 53.1953125 C21 53 21 53 19 51 C17.8529907 48.37976775 16.95746922 45.69832235 16 43 C10.72 42.67 5.44 42.34 0 42 C-0.433125 43.8871875 -0.433125 43.8871875 -0.875 45.8125 C-1.57303539 48.8539399 -2.20446585 50.30669878 -4 53 C-6.8203125 53.29296875 -6.8203125 53.29296875 -10.125 53.1875 C-11.76855469 53.14689453 -11.76855469 53.14689453 -13.4453125 53.10546875 C-14.70988281 53.05326172 -14.70988281 53.05326172 -16 53 C-17.29724612 48.62780011 -16.63829163 46.27454258 -14.875 42.125 C-12.87323935 37.22872673 -11.06417333 32.34103681 -9.4375 27.3125 C-7.78503425 22.24120616 -5.95184607 17.29206671 -3.9140625 12.36328125 C-2.34907985 8.31706541 -1.19130629 4.169572 0 0 Z M7 17 C5.70756464 21.1196377 4.73747375 24.66831683 5 29 C7.31 29.33 9.62 29.66 12 30 C11.45144652 25.428721 10.58255197 21.32564205 9 17 C8.34 17 7.68 17 7 17 Z " fill="#FBFCFB" transform="translate(529,45)"/>
<path d="M0 0 C1.61872041 -0.04536628 3.23780341 -0.07793777 4.85693359 -0.10498047 C5.75850189 -0.12446747 6.66007019 -0.14395447 7.58895874 -0.16403198 C10 0 10 0 12.2890625 1.6796875 C12.72992188 2.40414062 13.17078125 3.12859375 13.625 3.875 C14.32496094 4.95394531 14.32496094 4.95394531 15.0390625 6.0546875 C16 8 16 8 16 10 C16.66 10 17.32 10 18 10 C18.43699219 10.8353125 18.43699219 10.8353125 18.8828125 11.6875 C21.52001155 16.59700264 24.37539294 21.02221538 27.86328125 25.37109375 C29 27 29 27 29 29 C29.99 29 30.98 29 32 29 C32.33 19.43 32.66 9.86 33 0 C36.3 0 39.6 0 43 0 C43 17.49 43 34.98 43 53 C34 53 34 53 31.58984375 50.8828125 C31.04457031 49.97273438 30.49929688 49.06265625 29.9375 48.125 C29.08478516 46.76761719 29.08478516 46.76761719 28.21484375 45.3828125 C27 43 27 43 27 41 C26.34 41 25.68 41 25 41 C22.70351351 38.4385343 22 37.52032428 22 34 C21.34 34 20.68 34 20 34 C18.7109375 32.3203125 18.7109375 32.3203125 17.375 30.125 C16.92898438 29.40570313 16.48296875 28.68640625 16.0234375 27.9453125 C15 26 15 26 15 24 C14.01 23.67 13.02 23.34 12 23 C11.67 22.34 11.34 21.68 11 21 C10.97494385 21.93384521 10.9498877 22.86769043 10.92407227 23.82983398 C10.82913072 27.28325189 10.72988742 30.7364896 10.62768555 34.18969727 C10.58428187 35.68639269 10.54261087 37.18313939 10.50268555 38.67993164 C10.44511384 40.82714312 10.38138284 42.97409521 10.31640625 45.12109375 C10.26141968 47.06133423 10.26141968 47.06133423 10.20532227 49.04077148 C10 52 10 52 9 53 C7.1875 53.1328125 7.1875 53.1328125 5 53.125 C4.278125 53.12757812 3.55625 53.13015625 2.8125 53.1328125 C1 53 1 53 0 52 C-0.09340434 50.37325222 -0.11745171 48.74245949 -0.11352539 47.11303711 C-0.11344986 46.07203354 -0.11337433 45.03102997 -0.11329651 43.95848083 C-0.10813522 42.8262056 -0.10297394 41.69393036 -0.09765625 40.52734375 C-0.0962413 39.37456436 -0.09482635 38.22178497 -0.09336853 37.03407288 C-0.08775005 33.33518936 -0.07519442 29.63636536 -0.0625 25.9375 C-0.05748738 23.43684983 -0.05292406 20.93619871 -0.04882812 18.43554688 C-0.03777462 12.29034412 -0.02101852 6.14517631 0 0 Z " fill="#FBFBFB" transform="translate(319,45)"/>
<path d="M0 0 C8.10470898 4.53314231 10.98844917 10.4653475 13.84375 19.03125 C14.48721458 28.6584701 14.26082845 36.95740624 8.78125 45.09375 C8.141875 45.733125 7.5025 46.3725 6.84375 47.03125 C6.18375 47.03125 5.52375 47.03125 4.84375 47.03125 C4.51375 48.02125 4.18375 49.01125 3.84375 50.03125 C2.52375 50.03125 1.20375 50.03125 -0.15625 50.03125 C-0.15625 50.69125 -0.15625 51.35125 -0.15625 52.03125 C-5.64989974 54.77807487 -14.26301311 54.78120746 -20.125 53.26171875 C-26.92576259 50.12371255 -32.32599651 45.3977119 -35.25 38.421875 C-38.32748064 28.33457735 -37.67430645 19.87343172 -34.15625 10.03125 C-33.49625 10.03125 -32.83625 10.03125 -32.15625 10.03125 C-31.82625 8.71125 -31.49625 7.39125 -31.15625 6.03125 C-30.49625 6.03125 -29.83625 6.03125 -29.15625 6.03125 C-28.82625 5.04125 -28.49625 4.05125 -28.15625 3.03125 C-19.55309064 -2.60366065 -9.54120564 -4.22315659 0 0 Z M-22.90625 12.90625 C-26.64458858 19.26142559 -25.80293553 28.47447957 -24.53125 35.46875 C-22.65866239 38.95857236 -20.74026222 41.35634528 -17.15625 43.03125 C-12.69644434 43.85296754 -8.29583083 44.14552675 -4.18359375 42.00390625 C-0.03214487 38.64806674 2.16113146 35.26465878 2.84375 30.03125 C3.42220367 22.70417013 2.67833681 17.38121623 -2.21875 11.59375 C-4.00088127 9.82199918 -4.00088127 9.82199918 -6.15625 10.03125 C-6.15625 9.37125 -6.15625 8.71125 -6.15625 8.03125 C-13.1634973 7.66387975 -17.85960594 7.49913136 -22.90625 12.90625 Z " fill="#FBFBFB" transform="translate(406.15625,44.96875)"/>
<path d="M0 0 C7.425 -0.185625 7.425 -0.185625 15 -0.375 C16.54558594 -0.42962402 18.09117187 -0.48424805 19.68359375 -0.54052734 C26.72934214 -0.62575817 32.06084209 -0.60159384 37.56225586 4.33447266 C41.58642349 8.99619308 43.36734322 12.9016178 42.9375 19.125 C42.19869143 23.80172995 41.42270927 28.18896485 37.421875 31.1796875 C35.65194941 32.23394752 33.86937951 33.13624652 32 34 C31.21625 34.391875 30.4325 34.78375 29.625 35.1875 C24.44853577 36.78973893 19.24545094 37.58196139 14 36 C13.93941406 37.14339844 13.87882812 38.28679687 13.81640625 39.46484375 C13.73201572 40.95574305 13.64736698 42.44662775 13.5625 43.9375 C13.50352539 45.06961914 13.50352539 45.06961914 13.44335938 46.22460938 C13.11328125 51.88671875 13.11328125 51.88671875 12 53 C10.35659133 53.09854655 8.7088539 53.12972411 7.0625 53.125 C6.16660156 53.12757812 5.27070313 53.13015625 4.34765625 53.1328125 C2 53 2 53 0 52 C0 34.84 0 17.68 0 0 Z M14 11 C14 14.96 14 18.92 14 23 C16.8771875 23.12375 16.8771875 23.12375 19.8125 23.25 C20.89144531 23.29640625 21.97039062 23.3428125 23.08203125 23.390625 C26.08761722 23.28425571 26.08761722 23.28425571 27.8984375 21.14453125 C29.22498261 19.01983378 29.22498261 19.01983378 28.8125 16.4375 C28.04750731 13.78621711 28.04750731 13.78621711 26 11 C23.10391601 10.63501966 23.10391601 10.63501966 19.875 10.8125 C16.966875 10.9053125 16.966875 10.9053125 14 11 Z " fill="#FDFDFD" transform="translate(427,45)"/>
<path d="M0 0 C1.64574566 -0.02688151 3.29161413 -0.04634123 4.9375 -0.0625 C5.85402344 -0.07410156 6.77054687 -0.08570313 7.71484375 -0.09765625 C10 0 10 0 11 1 C11.08651611 2.41570123 11.10704904 3.835595 11.09765625 5.25390625 C11.09443359 6.10791016 11.09121094 6.96191406 11.08789062 7.84179688 C11.07951172 8.73962891 11.07113281 9.63746094 11.0625 10.5625 C11.05798828 11.46419922 11.05347656 12.36589844 11.04882812 13.29492188 C11.03700225 15.53001314 11.0205222 17.76497437 11 20 C18.20252132 20.89004541 24.81021874 20.95474779 32 20 C31.99214478 19.14450562 31.99214478 19.14450562 31.98413086 18.27172852 C31.96341779 15.70199677 31.9503581 13.13228253 31.9375 10.5625 C31.92912109 9.66466797 31.92074219 8.76683594 31.91210938 7.84179688 C31.90727539 6.56079102 31.90727539 6.56079102 31.90234375 5.25390625 C31.89448853 4.06776733 31.89448853 4.06776733 31.88647461 2.85766602 C32 1 32 1 33 0 C34.68608966 -0.07205511 36.37500659 -0.08386068 38.0625 -0.0625 C38.98160156 -0.05347656 39.90070313 -0.04445312 40.84765625 -0.03515625 C41.55792969 -0.02355469 42.26820313 -0.01195312 43 0 C43.02526692 7.38728102 43.0428316 14.77455098 43.05493164 22.16186523 C43.05997363 24.67716895 43.06680703 27.19246972 43.07543945 29.70776367 C43.08751094 33.31429775 43.09322949 36.92079323 43.09765625 40.52734375 C43.10281754 41.65961899 43.10797882 42.79189423 43.11329651 43.95848083 C43.11337204 44.99948441 43.11344757 46.04048798 43.11352539 47.11303711 C43.115746 48.03459091 43.11796661 48.95614471 43.12025452 49.90562439 C43 52 43 52 42 53 C36.26388889 53.27314815 36.26388889 53.27314815 34 53 C32 51 32 51 31.77294922 48.93701172 C31.78342285 48.10959473 31.79389648 47.28217773 31.8046875 46.4296875 C31.80968262 45.62257324 31.81467773 44.81545898 31.81982422 43.98388672 C31.84713623 42.44498779 31.84713623 42.44498779 31.875 40.875 C31.936875 35.986875 31.936875 35.986875 32 31 C25.07 31 18.14 31 11 31 C11.03953747 37.49198522 11.03953747 37.49198522 11.09008789 43.98388672 C11.09258545 44.79100098 11.09508301 45.59811523 11.09765625 46.4296875 C11.10289307 47.25710449 11.10812988 48.08452148 11.11352539 48.93701172 C11 51 11 51 10 53 C8.52093108 53.02689216 7.04172517 53.04634621 5.5625 53.0625 C4.73878906 53.07410156 3.91507812 53.08570313 3.06640625 53.09765625 C1 53 1 53 0 52 C-0.09340434 50.37325222 -0.11745171 48.74245949 -0.11352539 47.11303711 C-0.11344986 46.07203354 -0.11337433 45.03102997 -0.11329651 43.95848083 C-0.10813522 42.8262056 -0.10297394 41.69393036 -0.09765625 40.52734375 C-0.0962413 39.37456436 -0.09482635 38.22178497 -0.09336853 37.03407288 C-0.08775005 33.33518936 -0.07519442 29.63636536 -0.0625 25.9375 C-0.05748738 23.43684983 -0.05292406 20.93619871 -0.04882812 18.43554688 C-0.03777462 12.29034412 -0.02101852 6.14517631 0 0 Z " fill="#F8F8F8" transform="translate(267,45)"/>
<path d="M0 0 C8.8790625 -0.0309375 8.8790625 -0.0309375 17.9375 -0.0625 C19.80784912 -0.071604 21.67819824 -0.08070801 23.60522461 -0.09008789 C25.07926359 -0.09300709 26.55330337 -0.09555564 28.02734375 -0.09765625 C28.79953247 -0.10277222 29.57172119 -0.10788818 30.36730957 -0.11315918 C32.24525187 -0.11346974 34.12309253 -0.06233569 36 0 C36.495 0.495 36.495 0.495 37 1 C36.67 3.31 36.34 5.62 36 8 C27.75 8 19.5 8 11 8 C11.33 11.96 11.66 15.92 12 20 C16.01105314 20.80221063 18.99212986 21.08179327 23 21 C26.84613884 20.92150737 30.25016118 21.11768498 34 22 C34 24.64 34 27.28 34 30 C28.98391475 31.0176403 24.21391694 31.11856434 19.125 31.0625 C18.34125 31.05798828 17.5575 31.05347656 16.75 31.04882812 C14.83329986 31.03714093 12.91663952 31.01920908 11 31 C11 34.96 11 38.92 11 43 C13.56394531 42.98259766 13.56394531 42.98259766 16.1796875 42.96484375 C18.41145725 42.95546657 20.64322817 42.94636629 22.875 42.9375 C24.56689453 42.92493164 24.56689453 42.92493164 26.29296875 42.91210938 C27.36933594 42.90888672 28.44570312 42.90566406 29.5546875 42.90234375 C30.54968262 42.89710693 31.54467773 42.89187012 32.56982422 42.88647461 C35 43 35 43 37 44 C37.125 47.375 37.125 47.375 37 51 C35 53 35 53 31.56005859 53.22705078 C30.08948026 53.22655041 28.61887742 53.2154947 27.1484375 53.1953125 C26.46241455 53.19329834 25.7763916 53.19128418 25.06958008 53.18920898 C22.50465213 53.17873758 19.93981941 53.15081496 17.375 53.125 C8.774375 53.063125 8.774375 53.063125 0 53 C0 35.51 0 18.02 0 0 Z " fill="#F6F6F6" transform="translate(171,45)"/>
<path d="M0 0 C0.70769531 0.07476562 1.41539062 0.14953125 2.14453125 0.2265625 C8.19043976 0.96963505 11.6664439 2.39723955 15.4375 7.1875 C17.125 10.25 17.125 10.25 17.125 14.25 C17.785 14.25 18.445 14.25 19.125 14.25 C19.125 15.57 19.125 16.89 19.125 18.25 C15.495 18.25 11.865 18.25 8.125 18.25 C7.7846875 16.826875 7.7846875 16.826875 7.4375 15.375 C6.43592707 12.16795441 6.43592707 12.16795441 4 10.875 C0.19149844 10.04706488 -2.96986207 9.99805562 -6.875 10.25 C-7.865 10.91 -8.855 11.57 -9.875 12.25 C-10.865 12.25 -11.855 12.25 -12.875 12.25 C-16.11875046 20.06975558 -16.88347267 27.29931599 -15.1875 35.625 C-13.35371171 39.29257658 -12.38145646 40.95731693 -8.875 43.25 C-4.17962573 43.6710381 0.42411158 43.53625166 5.125 43.25 C5.41375 42.651875 5.7025 42.05375 6 41.4375 C7.125 39.25 7.125 39.25 9.125 36.25 C11.5078125 35.95703125 11.5078125 35.95703125 14.25 36.0625 C15.16007812 36.08957031 16.07015625 36.11664063 17.0078125 36.14453125 C17.70648438 36.17933594 18.40515625 36.21414062 19.125 36.25 C19.125 37.9 19.125 39.55 19.125 41.25 C18.465 41.25 17.805 41.25 17.125 41.25 C17.063125 41.971875 17.00125 42.69375 16.9375 43.4375 C15.53665556 48.28657691 12.37341767 50.52175636 8.125 53 C1.87925134 55.34045484 -5.33836407 56.33156931 -11.76171875 54.3671875 C-19.01705706 50.91846167 -23.62501666 46.65612825 -26.875 39.25 C-27.46516892 36.63836464 -27.92878154 34.20246456 -28.25 31.5625 C-28.33596436 30.86278076 -28.42192871 30.16306152 -28.51049805 29.44213867 C-29.29157784 21.6016795 -27.89251846 13.57643632 -22.875 7.25 C-22.215 7.25 -21.555 7.25 -20.875 7.25 C-20.545 6.26 -20.215 5.27 -19.875 4.25 C-17.9140625 3.1171875 -17.9140625 3.1171875 -15.5 2.125 C-14.31277344 1.62613281 -14.31277344 1.62613281 -13.1015625 1.1171875 C-8.39314064 -0.71661891 -4.93189841 -0.62204124 0 0 Z " fill="#FAFBFA" transform="translate(240.875,43.75)"/>
<path d="M0 0 C2.75143592 3.65667025 4.44926021 7.66915801 6.33984375 11.81640625 C7.59537674 14.70039094 7.59537674 14.70039094 10.8046875 15.3984375 C11.1346875 14.0784375 11.4646875 12.7584375 11.8046875 11.3984375 C12.4646875 11.3984375 13.1246875 11.3984375 13.8046875 11.3984375 C13.8871875 10.5321875 13.9696875 9.6659375 14.0546875 8.7734375 C14.9945171 4.54420429 15.70908686 2.49403814 18.8046875 -0.6015625 C22.80619153 -1.41678236 26.72784423 -1.58874224 30.8046875 -1.6015625 C32.02060255 2.82620362 32.02060255 2.82620362 31.08984375 5.29296875 C30.68636719 5.92589844 30.28289063 6.55882812 29.8671875 7.2109375 C26.78141723 12.32499496 24.17727352 17.61987795 21.57250977 22.98950195 C19.01701705 28.18610795 19.01701705 28.18610795 16.8046875 30.3984375 C16.45100734 32.60916636 16.45100734 32.60916636 16.42578125 35.15234375 C16.39162109 36.08884766 16.35746094 37.02535156 16.32226562 37.99023438 C16.29583984 38.97056641 16.26941406 39.95089844 16.2421875 40.9609375 C16.18250848 42.89987088 16.11892141 44.83868928 16.05078125 46.77734375 C16.02685303 47.6391626 16.0029248 48.50098145 15.97827148 49.38891602 C15.8046875 51.3984375 15.8046875 51.3984375 14.8046875 52.3984375 C12.95181248 52.47070252 11.09634872 52.4822497 9.2421875 52.4609375 C8.23027344 52.45191406 7.21835937 52.44289062 6.17578125 52.43359375 C5.00208984 52.41619141 5.00208984 52.41619141 3.8046875 52.3984375 C1.98176513 47.72856066 1.58045333 43.53588551 1.4921875 38.5859375 C1.19516808 31.58771527 -0.23160379 27.11590992 -4.1953125 21.3984375 C-5.39794591 19.40750075 -6.58456668 17.4068325 -7.7578125 15.3984375 C-8.34820313 14.39296875 -8.93859375 13.3875 -9.546875 12.3515625 C-11.70972496 8.47688342 -13.52514007 4.50643926 -15.1953125 0.3984375 C-13.40070837 -1.39616663 -10.81728842 -1.14618184 -8.3828125 -1.4140625 C-7.32449219 -1.54425781 -6.26617188 -1.67445312 -5.17578125 -1.80859375 C-2.1953125 -1.6015625 -2.1953125 -1.6015625 0 0 Z " fill="#FBFCFB" transform="translate(569.1953125,45.6015625)"/>
<path d="M0 0 C4.29 0 8.58 0 13 0 C13.33 12.87 13.66 25.74 14 39 C20.86587717 39.28924869 20.86587717 39.28924869 27.73217773 39.56811523 C29.00750366 39.6252771 29.00750366 39.6252771 30.30859375 39.68359375 C31.18314209 39.72025146 32.05769043 39.75690918 32.95874023 39.79467773 C35 40 35 40 36 41 C36.1245486 42.64230364 36.17568524 44.29052276 36.1875 45.9375 C36.20167969 46.83339844 36.21585937 47.72929688 36.23046875 48.65234375 C36 51 36 51 34 53 C31.50256138 53.18721852 29.11811317 53.25579767 26.62109375 53.23046875 C25.89382584 53.23001053 25.16655792 53.22955231 24.41725159 53.2290802 C22.87979501 53.22605836 21.34234148 53.21817405 19.80493164 53.20581055 C17.44341265 53.18754573 15.08228539 53.1853009 12.72070312 53.18554688 C11.22916326 53.18063203 9.73762606 53.17480386 8.24609375 53.16796875 C7.53569443 53.16685593 6.8252951 53.1657431 6.09336853 53.16459656 C1.11605365 53.11605365 1.11605365 53.11605365 0 52 C-0.17322775 48.93161266 -0.28436065 45.88380546 -0.3515625 42.8125 C-0.38629166 41.41499512 -0.38629166 41.41499512 -0.42172241 39.98925781 C-0.46947075 38.00868385 -0.51469115 36.02804762 -0.55761719 34.04736328 C-0.62410591 31.04043495 -0.70211544 28.03396251 -0.78125 25.02734375 C-0.82622595 23.10157884 -0.87051773 21.1757978 -0.9140625 19.25 C-0.93796051 18.35901611 -0.96185852 17.46803223 -0.98648071 16.55004883 C-1.09701918 10.93429869 -0.72947279 5.57077581 0 0 Z " fill="#FDFDFD" transform="translate(474,45)"/>
<path d="M0 0 C13.2 0 26.4 0 40 0 C41 4 41 4 40 8 C35.05 8.33 30.1 8.66 25 9 C25.00785522 10.89274658 25.00785522 10.89274658 25.01586914 12.82373047 C25.03393458 17.49397068 25.04543769 22.16420779 25.05493164 26.83447266 C25.05996831 28.85791543 25.06679789 30.88135456 25.07543945 32.90478516 C25.08753412 35.80892843 25.09323488 38.71302369 25.09765625 41.6171875 C25.10281754 42.52556366 25.10797882 43.43393982 25.11329651 44.36984253 C25.11340981 45.63092331 25.11340981 45.63092331 25.11352539 46.91748047 C25.115746 47.65916473 25.11796661 48.400849 25.12025452 49.16500854 C25 51 25 51 24 53 C22.52093108 53.02689216 21.04172517 53.04634621 19.5625 53.0625 C18.32693359 53.07990234 18.32693359 53.07990234 17.06640625 53.09765625 C15 53 15 53 14 52 C13.87814857 50.65016252 13.82233169 49.29425299 13.79467773 47.93920898 C13.7647599 46.64798378 13.7647599 46.64798378 13.73423767 45.33067322 C13.71752518 44.39526199 13.70081268 43.45985077 13.68359375 42.49609375 C13.66281265 41.54307877 13.64203156 40.59006378 13.62062073 39.60816956 C13.55501823 36.5513559 13.49619082 33.49445344 13.4375 30.4375 C13.39432494 28.37043337 13.35071099 26.30337586 13.30664062 24.23632812 C13.19932599 19.15764405 13.09808909 14.0788703 13 9 C8.38 9 3.76 9 -1 9 C-2 6 -2 6 0 0 Z " fill="#F6F6F6" transform="translate(125,45)"/>
<path d="M0 0 C10 0 10 0 12.2890625 1.6796875 C12.72992188 2.40414062 13.17078125 3.12859375 13.625 3.875 C14.32496094 4.95394531 14.32496094 4.95394531 15.0390625 6.0546875 C16 8 16 8 16 10 C16.66 10 17.32 10 18 10 C19.32 12.97 20.64 15.94 22 19 C21.01 19.66 20.02 20.32 19 21 C18.34 21.99 17.68 22.98 17 24 C16.59007812 23.43410156 16.18015625 22.86820313 15.7578125 22.28515625 C14.94957031 21.18494141 14.94957031 21.18494141 14.125 20.0625 C13.59132813 19.33160156 13.05765625 18.60070312 12.5078125 17.84765625 C11.11987896 15.88901765 11.11987896 15.88901765 9 15 C8.67 26.88 8.34 38.76 8 51 C5.36 51 2.72 51 0 51 C0 34.17 0 17.34 0 0 Z " fill="#FBFBFB" transform="translate(319,45)"/>
<path d="M0 0 C4.29 0 8.58 0 13 0 C13.33 12.87 13.66 25.74 14 39 C20.86587717 39.28924869 20.86587717 39.28924869 27.73217773 39.56811523 C29.00750366 39.6252771 29.00750366 39.6252771 30.30859375 39.68359375 C31.18314209 39.72025146 32.05769043 39.75690918 32.95874023 39.79467773 C35 40 35 40 36 41 C36.1245486 42.64230364 36.17568524 44.29052276 36.1875 45.9375 C36.20167969 46.83339844 36.21585937 47.72929688 36.23046875 48.65234375 C36 51 36 51 34 53 C31.50256138 53.18721852 29.11811317 53.25579767 26.62109375 53.23046875 C25.89382584 53.23001053 25.16655792 53.22955231 24.41725159 53.2290802 C22.87979501 53.22605836 21.34234148 53.21817405 19.80493164 53.20581055 C17.44341265 53.18754573 15.08228539 53.1853009 12.72070312 53.18554688 C11.22916326 53.18063203 9.73762606 53.17480386 8.24609375 53.16796875 C7.53569443 53.16685593 6.8252951 53.1657431 6.09336853 53.16459656 C1.11605365 53.11605365 1.11605365 53.11605365 0 52 C-0.17322775 48.93161266 -0.28436065 45.88380546 -0.3515625 42.8125 C-0.38629166 41.41499512 -0.38629166 41.41499512 -0.42172241 39.98925781 C-0.46947075 38.00868385 -0.51469115 36.02804762 -0.55761719 34.04736328 C-0.62410591 31.04043495 -0.70211544 28.03396251 -0.78125 25.02734375 C-0.82622595 23.10157884 -0.87051773 21.1757978 -0.9140625 19.25 C-0.93796051 18.35901611 -0.96185852 17.46803223 -0.98648071 16.55004883 C-1.09701918 10.93429869 -0.72947279 5.57077581 0 0 Z M2 2 C2 17.84 2 33.68 2 50 C17.84 50.495 17.84 50.495 34 51 C34 48.36 34 45.72 34 43 C27.07 42.67 20.14 42.34 13 42 C12.08330977 37.41654885 11.87096721 33.26694651 11.90234375 28.63671875 C11.9037587 27.84473587 11.90517365 27.05275299 11.90663147 26.23677063 C11.91220543 23.72030781 11.92475307 21.20393569 11.9375 18.6875 C11.94251837 16.97591275 11.94708069 15.26432409 11.95117188 13.55273438 C11.96216632 9.36845492 11.97941293 5.18424281 12 1 C10.72125 0.979375 9.4425 0.95875 8.125 0.9375 C7.40570313 0.92589844 6.68640625 0.91429687 5.9453125 0.90234375 C3.91814596 0.87350758 3.91814596 0.87350758 2 2 Z " fill="#DEE0DF" transform="translate(474,45)"/>
<path d="M0 0 C6.78768477 3.79650165 10.6378645 8.53123932 12.84375 16.03125 C13.09375 19.59375 13.09375 19.59375 12.84375 22.03125 C12.18375 22.03125 11.52375 22.03125 10.84375 22.03125 C10.34875 17.57625 10.34875 17.57625 9.84375 13.03125 C9.18375 13.03125 8.52375 13.03125 7.84375 13.03125 C7.43125 12.103125 7.01875 11.175 6.59375 10.21875 C4.4870208 6.38149325 2.77746439 4.62210717 -1.40625 3.34375 C-1.98375 3.240625 -2.56125 3.1375 -3.15625 3.03125 C-3.15625 2.37125 -3.15625 1.71125 -3.15625 1.03125 C-5.73991245 1.17245016 -8.32307885 1.31903333 -10.90625 1.46875 C-11.63585937 1.50806641 -12.36546875 1.54738281 -13.1171875 1.58789062 C-18.21618882 1.86475326 -18.21618882 1.86475326 -23.15625 3.03125 C-23.48625 3.69125 -23.81625 4.35125 -24.15625 5.03125 C-25.14625 5.03125 -26.13625 5.03125 -27.15625 5.03125 C-27.15625 6.02125 -27.15625 7.01125 -27.15625 8.03125 C-28.14625 8.03125 -29.13625 8.03125 -30.15625 8.03125 C-30.341875 9.701875 -30.341875 9.701875 -30.53125 11.40625 C-31.15625 15.03125 -31.15625 15.03125 -33.15625 17.03125 C-33.41091505 19.95101438 -33.5265762 22.73512311 -33.53125 25.65625 C-33.55574219 26.43871094 -33.58023437 27.22117187 -33.60546875 28.02734375 C-33.63163055 33.28586469 -32.65856399 36.85971482 -30.01806641 41.41552734 C-29.15625 43.03125 -29.15625 43.03125 -29.15625 45.03125 C-27.83625 45.03125 -26.51625 45.03125 -25.15625 45.03125 C-25.15625 45.69125 -25.15625 46.35125 -25.15625 47.03125 C-20.30503727 49.36771416 -15.73480872 49.40336656 -10.41992188 49.50976562 C-8.45703125 49.58984375 -8.45703125 49.58984375 -5.15625 50.03125 C-4.49625 51.02125 -3.83625 52.01125 -3.15625 53.03125 C-11.1922838 54.20075924 -17.81224627 54.9642251 -24.96875 50.66796875 C-32.4102171 45.10015676 -35.73118195 39.21074242 -37.15625 30.03125 C-37.93170114 22.83375281 -36.57710853 16.80388993 -34.15625 10.03125 C-33.49625 10.03125 -32.83625 10.03125 -32.15625 10.03125 C-31.82625 8.71125 -31.49625 7.39125 -31.15625 6.03125 C-30.49625 6.03125 -29.83625 6.03125 -29.15625 6.03125 C-28.82625 5.04125 -28.49625 4.05125 -28.15625 3.03125 C-19.55309064 -2.60366065 -9.54120564 -4.22315659 0 0 Z " fill="#E5E6E5" transform="translate(406.15625,44.96875)"/>
<path d="M0 0 C0.70769531 0.07476562 1.41539062 0.14953125 2.14453125 0.2265625 C6.45532699 0.75638097 9.68158787 1.55287871 13.125 4.25 C13.62 5.735 13.62 5.735 14.125 7.25 C13.42375 7.105625 12.7225 6.96125 12 6.8125 C9.96979439 6.41528586 7.9252058 6.08848924 5.875 5.8125 C4.51375 5.5340625 4.51375 5.5340625 3.125 5.25 C2.795 4.59 2.465 3.93 2.125 3.25 C0.22989301 3.16839252 -1.66624504 3.11053541 -3.5625 3.0625 C-4.61824219 3.02769531 -5.67398438 2.99289063 -6.76171875 2.95703125 C-10.25309022 3.28557938 -12.00569539 4.30708518 -14.875 6.25 C-15.926875 6.4665625 -15.926875 6.4665625 -17 6.6875 C-19.69032908 7.49459872 -20.45442079 8.88236798 -21.875 11.25 C-22.58014846 13.39733927 -22.58014846 13.39733927 -22.875 15.25 C-23.535 15.25 -24.195 15.25 -24.875 15.25 C-26.58216296 26.969443 -25.86605237 36.38004599 -19.01953125 46.2890625 C-14.25938662 50.64169019 -7.97179812 50.59180208 -1.8125 50.5625 C-1.13123047 50.57861328 -0.44996094 50.59472656 0.25195312 50.61132812 C4.93455397 50.6158263 8.19444738 49.80456007 12.125 47.25 C12.455 46.26 12.785 45.27 13.125 44.25 C13.785 44.25 14.445 44.25 15.125 44.25 C15.125 43.59 15.125 42.93 15.125 42.25 C15.785 42.25 16.445 42.25 17.125 42.25 C16.64800119 46.54298926 14.32696975 48.53528652 11.125 51.25 C4.96594985 54.84277926 -1.7953246 55.66990957 -8.875 55.25 C-15.97933384 53.07736205 -21.68042308 49.06134119 -25.41796875 42.5703125 C-27.01821784 38.92363227 -27.77299744 35.4827911 -28.25 31.5625 C-28.33596436 30.86278076 -28.42192871 30.16306152 -28.51049805 29.44213867 C-29.29157784 21.6016795 -27.89251846 13.57643632 -22.875 7.25 C-22.215 7.25 -21.555 7.25 -20.875 7.25 C-20.545 6.26 -20.215 5.27 -19.875 4.25 C-17.9140625 3.1171875 -17.9140625 3.1171875 -15.5 2.125 C-14.31277344 1.62613281 -14.31277344 1.62613281 -13.1015625 1.1171875 C-8.39314064 -0.71661891 -4.93189841 -0.62204124 0 0 Z " fill="#E0E1E1" transform="translate(240.875,43.75)"/>
<path d="M0 0 C0.66 0 1.32 0 2 0 C4.93963285 6.41374439 7.44985251 12.80235987 7 20 C7.66 20 8.32 20 9 20 C10.60725635 23.21451269 10.05748185 26.43612536 10 30 C8.04196493 30.05389087 6.08351091 30.09274217 4.125 30.125 C3.03445313 30.14820312 1.94390625 30.17140625 0.8203125 30.1953125 C-2 30 -2 30 -4 28 C-5.1470093 25.37976775 -6.04253078 22.69832235 -7 20 C-12.28 19.67 -17.56 19.34 -23 19 C-23.433125 20.8871875 -23.433125 20.8871875 -23.875 22.8125 C-24.57303539 25.8539399 -25.20446585 27.30669878 -27 30 C-29.8203125 30.29296875 -29.8203125 30.29296875 -33.125 30.1875 C-34.22070312 30.16042969 -35.31640625 30.13335937 -36.4453125 30.10546875 C-37.70988281 30.05326172 -37.70988281 30.05326172 -39 30 C-40.37443506 25.49118254 -39.52533271 22.92048891 -37.75 18.625 C-37.28722656 17.48933594 -36.82445312 16.35367188 -36.34765625 15.18359375 C-35.90292969 14.13300781 -35.45820312 13.08242187 -35 12 C-34.66871094 11.20722656 -34.33742188 10.41445312 -33.99609375 9.59765625 C-33.34479245 8.05907491 -32.67525921 6.52821822 -32 5 C-31.34 5 -30.68 5 -30 5 C-30 5.66 -30 6.32 -30 7 C-30.66 7 -31.32 7 -32 7 C-31.938125 8.3303125 -31.938125 8.3303125 -31.875 9.6875 C-32.00308019 13.08162502 -32.6781613 14.91570971 -34 18 C-34.52980469 19.32451172 -34.52980469 19.32451172 -35.0703125 20.67578125 C-36.046875 23.1171875 -37.0234375 25.55859375 -38 28 C-34.7 28 -31.4 28 -28 28 C-27.79375 26.411875 -27.5875 24.82375 -27.375 23.1875 C-26.42102003 18.30699377 -26.42102003 18.30699377 -23 15.8125 C-20 15 -20 15 -18 16 C-15.20481593 16.06998896 -12.42410998 15.99705161 -9.62890625 15.9375 C-7 16 -7 16 -4 17 C-3.05078125 19.28515625 -3.05078125 19.28515625 -2.3125 22.0625 C-2.06113281 22.98160156 -1.80976562 23.90070313 -1.55078125 24.84765625 C-1.36902344 25.55792969 -1.18726563 26.26820312 -1 27 C1.97 27.33 4.94 27.66 8 28 C8 26.35 8 24.7 8 23 C7.34 23 6.68 23 6 23 C5.28710373 20.86131119 4.57502655 18.7224017 3.8671875 16.58203125 C3.30475704 14.90740723 2.7274761 13.23766963 2.1328125 11.57421875 C0.73157459 7.60404468 -0.41416331 4.27968754 0 0 Z " fill="#E8EAEA" transform="translate(552,68)"/>
<path d="M0 0 C3.00654574 1.34068928 4.57408742 2.68435618 7 5 C7 5.66 7 6.32 7 7 C7.66 7 8.32 7 9 7 C10.28195532 10.84586595 10.18415545 14.49322597 10.1875 18.5 C10.19974609 19.27214844 10.21199219 20.04429688 10.22460938 20.83984375 C10.23476991 24.7482648 10.21572048 26.67641928 8 30 C7.4225 30.99 6.845 31.98 6.25 33 C3.63011416 36.49318112 2.1331459 37.6222847 -2 39 C-6.5531081 39.5262019 -10.55147199 39.53532557 -14.875 37.9375 C-17.86007796 35.21581127 -19.26251139 32.66803151 -21 29 C-21 27.68 -21 26.36 -21 25 C-21.66 25 -22.32 25 -23 25 C-23 20.71 -23 16.42 -23 12 C-22.34 12 -21.68 12 -21 12 C-20.95875 11.113125 -20.9175 10.22625 -20.875 9.3125 C-19.66858075 4.74534142 -17.79981002 3.71415001 -14 1 C-9.7931567 -1.10342165 -4.56770261 -0.53532311 0 0 Z M-17.75 5.875 C-21.48833858 12.23017559 -20.64668553 21.44322957 -19.375 28.4375 C-17.50241239 31.92732236 -15.58401222 34.32509528 -12 36 C-7.54019434 36.82171754 -3.13958083 37.11427675 0.97265625 34.97265625 C5.12410513 31.61681674 7.31738146 28.23340878 8 23 C8.57845367 15.67292013 7.83458681 10.34996623 2.9375 4.5625 C1.15536873 2.79074918 1.15536873 2.79074918 -1 3 C-1 2.34 -1 1.68 -1 1 C-8.0072473 0.63262975 -12.70335594 0.46788136 -17.75 5.875 Z " fill="#D2D4D3" transform="translate(401,52)"/>
<path d="M0 0 C0.66 0 1.32 0 2 0 C1.38678313 4.16987469 -0.08323915 7.26500339 -2 11 C-2.55558594 12.134375 -3.11117187 13.26875 -3.68359375 14.4375 C-4.55177734 16.2009375 -4.55177734 16.2009375 -5.4375 18 C-6.30181641 19.7634375 -6.30181641 19.7634375 -7.18359375 21.5625 C-9 25 -9 25 -11.1796875 27.76171875 C-13.78090764 32.38921123 -13.63414753 36.58751518 -13.6875 41.8125 C-13.72938135 43.7149286 -13.77475766 45.61728462 -13.82421875 47.51953125 C-13.83541748 48.35589111 -13.84661621 49.19225098 -13.8581543 50.05395508 C-14 52 -14 52 -15 53 C-16.85287502 53.07226502 -18.70833878 53.0838122 -20.5625 53.0625 C-21.57441406 53.05347656 -22.58632813 53.04445312 -23.62890625 53.03515625 C-24.80259766 53.01775391 -24.80259766 53.01775391 -26 53 C-28.05722588 47.83184719 -28.41513319 43.1077704 -28.625 37.625 C-28.66367187 36.79355469 -28.70234375 35.96210937 -28.7421875 35.10546875 C-28.83574246 33.07064844 -28.91892713 31.03535584 -29 29 C-28.34 29 -27.68 29 -27 29 C-24.93276286 32.10085571 -24.75502577 32.72931681 -24.8046875 36.23046875 C-24.81113281 37.03291016 -24.81757812 37.83535156 -24.82421875 38.66210938 C-24.84097656 39.49548828 -24.85773437 40.32886719 -24.875 41.1875 C-24.88402344 42.03248047 -24.89304687 42.87746094 -24.90234375 43.74804688 C-24.92589297 45.83215243 -24.96176353 47.91611217 -25 50 C-22.36 50 -19.72 50 -17 50 C-16.97494385 49.37432129 -16.9498877 48.74864258 -16.92407227 48.10400391 C-16.80824727 45.27745381 -16.68546015 42.45124831 -16.5625 39.625 C-16.52318359 38.64015625 -16.48386719 37.6553125 -16.44335938 36.640625 C-16.40146484 35.69960937 -16.35957031 34.75859375 -16.31640625 33.7890625 C-16.27974854 32.91975098 -16.24309082 32.05043945 -16.20532227 31.15478516 C-16 29 -16 29 -15 27 C-14.34 27 -13.68 27 -13 27 C-12.9175 26.13375 -12.835 25.2675 -12.75 24.375 C-11.88642716 20.48892222 -10.44749984 18.11499979 -8 15 C-7.34 15 -6.68 15 -6 15 C-5.7525 14.175 -5.505 13.35 -5.25 12.5 C-4.01125418 9.0315117 -2.50478098 5.89419713 -0.8046875 2.63671875 C0.07353443 1.15440473 0.07353443 1.15440473 0 0 Z " fill="#DFE1E0" transform="translate(599,45)"/>
<path d="M0 0 C1.32 0.33 2.64 0.66 4 1 C3.67 17.17 3.34 33.34 3 50 C4.65 50 6.3 50 8 50 C8.99 41.09 8.99 41.09 10 32 C10.33 32 10.66 32 11 32 C11.02895976 35.12498063 11.04678483 38.2499269 11.0625 41.375 C11.07087891 42.26445313 11.07925781 43.15390625 11.08789062 44.0703125 C11.09111328 44.92109375 11.09433594 45.771875 11.09765625 46.6484375 C11.10289307 47.43395996 11.10812988 48.21948242 11.11352539 49.02880859 C11 51 11 51 10 53 C8.52093108 53.02689216 7.04172517 53.04634621 5.5625 53.0625 C4.73878906 53.07410156 3.91507812 53.08570313 3.06640625 53.09765625 C1 53 1 53 0 52 C-0.09340434 50.37325222 -0.11745171 48.74245949 -0.11352539 47.11303711 C-0.11344986 46.07203354 -0.11337433 45.03102997 -0.11329651 43.95848083 C-0.10813522 42.8262056 -0.10297394 41.69393036 -0.09765625 40.52734375 C-0.0962413 39.37456436 -0.09482635 38.22178497 -0.09336853 37.03407288 C-0.08775005 33.33518936 -0.07519442 29.63636536 -0.0625 25.9375 C-0.05748738 23.43684983 -0.05292406 20.93619871 -0.04882812 18.43554688 C-0.03777462 12.29034412 -0.02101852 6.14517631 0 0 Z " fill="#D9DADA" transform="translate(267,45)"/>
<path d="M0 0 C1.32 0 2.64 0 4 0 C4 0.66 4 1.32 4 2 C3.01 2 2.02 2 1 2 C1 5.96 1 9.92 1 14 C3.56394531 13.98259766 3.56394531 13.98259766 6.1796875 13.96484375 C8.41145725 13.95546657 10.64322817 13.94636629 12.875 13.9375 C14.56689453 13.92493164 14.56689453 13.92493164 16.29296875 13.91210938 C17.36933594 13.90888672 18.44570312 13.90566406 19.5546875 13.90234375 C20.54968262 13.89710693 21.54467773 13.89187012 22.56982422 13.88647461 C25 14 25 14 27 15 C27.125 18.375 27.125 18.375 27 22 C25 24 25 24 21.56005859 24.22705078 C20.08948021 24.22673369 18.61887858 24.21540987 17.1484375 24.1953125 C16.37440582 24.1924826 15.60037415 24.18965271 14.80288696 24.18673706 C12.32676843 24.17552754 9.8510095 24.15042203 7.375 24.125 C5.69792188 24.11497118 4.02083811 24.10584516 2.34375 24.09765625 C-1.77097223 24.07558574 -5.88542511 24.04105102 -10 24 C-10 23.34 -10 22.68 -10 22 C1.55 22 13.1 22 25 22 C25 20.35 25 18.7 25 17 C16.75 17 8.5 17 0 17 C-1.35827701 14.28344597 -1.1323445 12.09210594 -1.125 9.0625 C-1.12757813 8.00160156 -1.13015625 6.94070312 -1.1328125 5.84765625 C-1 3 -1 3 0 0 Z " fill="#ADB1B0" transform="translate(181,74)"/>
<path d="M0 0 C0.33 0 0.66 0 1 0 C1 17.16 1 34.32 1 52 C-8 52 -8 52 -10.41015625 49.8828125 C-10.95542969 48.97273438 -11.50070312 48.06265625 -12.0625 47.125 C-12.63097656 46.22007813 -13.19945312 45.31515625 -13.78515625 44.3828125 C-15 42 -15 42 -15 40 C-15.66 40 -16.32 40 -17 40 C-20.22265625 34.7265625 -20.22265625 34.7265625 -21 33 C-20.67 32.34 -20.34 31.68 -20 31 C-18.49412261 32.95405518 -16.99521356 34.91281284 -15.5 36.875 C-15.07074219 37.43058594 -14.64148438 37.98617187 -14.19921875 38.55859375 C-11 42.7734375 -11 42.7734375 -11 45 C-10.34 45 -9.68 45 -9 45 C-9 45.66 -9 46.32 -9 47 C-8.34 47 -7.68 47 -7 47 C-7 47.66 -7 48.32 -7 49 C-5.02 49 -3.04 49 -1 49 C-1.00785522 47.03994019 -1.00785522 47.03994019 -1.01586914 45.0402832 C-1.03398927 40.18547248 -1.04545768 35.33066474 -1.05493164 30.47583008 C-1.05995581 28.37589007 -1.06677625 26.27595354 -1.07543945 24.17602539 C-1.0875889 21.15510191 -1.09324753 18.13422474 -1.09765625 15.11328125 C-1.10281754 14.17664139 -1.10797882 13.24000153 -1.11329651 12.27497864 C-1.11365846 8.05539962 -1.08716646 4.11167108 0 0 Z " fill="#DEDFDE" transform="translate(361,46)"/>
<path d="M0 0 C-3 2 -3 2 -6 2 C-9.24375046 9.81975558 -10.00847267 17.04931599 -8.3125 25.375 C-6.47871171 29.04257658 -5.50645646 30.70731693 -2 33 C2.69537427 33.4210381 7.29911158 33.28625166 12 33 C12.28875 32.401875 12.5775 31.80375 12.875 31.1875 C14 29 14 29 16 26 C18.3828125 25.70703125 18.3828125 25.70703125 21.125 25.8125 C22.49011719 25.85310547 22.49011719 25.85310547 23.8828125 25.89453125 C24.58148438 25.92933594 25.28015625 25.96414062 26 26 C25.67 27.32 25.34 28.64 25 30 C25 29.34 25 28.68 25 28 C22.36 28 19.72 28 17 28 C16.95875 28.7425 16.9175 29.485 16.875 30.25 C16 33 16 33 13.625 35.3125 C8.64333382 37.6315515 4.4076628 37.78173367 -1 37 C-6.11785769 34.67370105 -8.98265243 31.19935559 -11 26 C-11.48213879 22.5423961 -11.42650688 19.17104361 -11.3125 15.6875 C-11.30283203 14.78193359 -11.29316406 13.87636719 -11.28320312 12.94335938 C-11.1699445 6.339889 -11.1699445 6.339889 -10 4 C-9.34 4 -8.68 4 -8 4 C-8.33 3.01 -8.66 2.02 -9 1 C-5.57367167 -0.61798838 -3.61944899 -1.34053666 0 0 Z " fill="#CBCCCC" transform="translate(234,54)"/>
<path d="M0 0 C1.6286551 0.42369072 3.25287378 0.8644623 4.875 1.3125 C5.77992188 1.55613281 6.68484375 1.79976562 7.6171875 2.05078125 C10 3 10 3 12 6 C12 7.32 12 8.64 12 10 C12.66 10 13.32 10 14 10 C14 11.32 14 12.64 14 14 C10.37 14 6.74 14 3 14 C2.855625 13.071875 2.71125 12.14375 2.5625 11.1875 C1.35419015 7.90682422 1.35419015 7.90682422 -1.13671875 6.93359375 C-3.41114288 6.19449517 -5.67209519 5.54605174 -8 5 C-8 4.67 -8 4.34 -8 4 C-7.05125 3.896875 -6.1025 3.79375 -5.125 3.6875 C-1.70892499 3.31460705 -1.70892499 3.31460705 0 0 Z " fill="#F7F7F7" transform="translate(246,48)"/>
<path d="M0 0 C0.33 0 0.66 0 1 0 C1.02526739 7.24486551 1.0428318 14.48971974 1.05493164 21.73461914 C1.05997356 24.20142033 1.06680691 26.66821852 1.07543945 29.13500977 C1.08751125 32.67204529 1.09322956 36.20904145 1.09765625 39.74609375 C1.10281754 40.85649521 1.10797882 41.96689667 1.11329651 43.11094666 C1.11337204 44.13192947 1.11344757 45.15291229 1.11352539 46.20483398 C1.115746 47.10862289 1.11796661 48.0124118 1.12025452 48.94358826 C1 51 1 51 0 52 C-5.73611111 52.27314815 -5.73611111 52.27314815 -8 52 C-10 50 -10 50 -10.22705078 48.12060547 C-10.21657715 47.37697754 -10.20610352 46.63334961 -10.1953125 45.8671875 C-10.18886719 45.06152344 -10.18242187 44.25585938 -10.17578125 43.42578125 C-10.15064453 42.16314453 -10.15064453 42.16314453 -10.125 40.875 C-10.11597656 40.02550781 -10.10695313 39.17601562 -10.09765625 38.30078125 C-10.07405647 36.20040116 -10.03818483 34.10016556 -10 32 C-9.34 32 -8.68 32 -8 32 C-8 37.94 -8 43.88 -8 50 C-5.69 50 -3.38 50 -1 50 C-1.00222061 49.38834488 -1.00444122 48.77668976 -1.00672913 48.14649963 C-1.02878122 41.80429669 -1.04390627 35.46210456 -1.05493164 29.11987305 C-1.05997341 26.75007688 -1.06680665 24.38028385 -1.07543945 22.01049805 C-1.0875119 18.61245961 -1.09322971 15.21446215 -1.09765625 11.81640625 C-1.10281754 10.74975235 -1.10797882 9.68309845 -1.11329651 8.5841217 C-1.11337204 7.60318039 -1.11344757 6.62223907 -1.11352539 5.61157227 C-1.115746 4.74331314 -1.11796661 3.87505402 -1.12025452 2.98048401 C-1 1 -1 1 0 0 Z " fill="#D1D2D2" transform="translate(309,46)"/>
<path d="M0 0 C3.3128652 0.13820269 6.62517989 0.28683778 9.9375 0.4375 C11.35579102 0.49647461 11.35579102 0.49647461 12.80273438 0.55664062 C14.15141602 0.61948242 14.15141602 0.61948242 15.52734375 0.68359375 C16.77632446 0.73858032 16.77632446 0.73858032 18.05053711 0.79467773 C20 1 20 1 21 2 C21.1245486 3.64230364 21.17568524 5.29052276 21.1875 6.9375 C21.20167969 7.83339844 21.21585937 8.72929688 21.23046875 9.65234375 C21 12 21 12 19 14 C16.50256138 14.18721852 14.11811317 14.25579767 11.62109375 14.23046875 C10.89382584 14.23001053 10.16655792 14.22955231 9.41725159 14.2290802 C7.87979501 14.22605836 6.34234148 14.21817405 4.80493164 14.20581055 C2.44341265 14.18754573 0.08228539 14.1853009 -2.27929688 14.18554688 C-3.77083674 14.18063203 -5.26237394 14.17480386 -6.75390625 14.16796875 C-7.46430557 14.16685593 -8.1747049 14.1657431 -8.90663147 14.16459656 C-13.88394635 14.11605365 -13.88394635 14.11605365 -15 13 C-15.07179964 11.48071962 -15.08392007 9.95832518 -15.0625 8.4375 C-15.05347656 7.61121094 -15.04445313 6.78492187 -15.03515625 5.93359375 C-15.02355469 5.29550781 -15.01195312 4.65742187 -15 4 C-14.67 4 -14.34 4 -14 4 C-14 6.64 -14 9.28 -14 12 C-3.11 12 7.78 12 19 12 C19 9.36 19 6.72 19 4 C17.96359375 4.01160156 16.9271875 4.02320312 15.859375 4.03515625 C14.48958514 4.04453837 13.11979332 4.05363812 11.75 4.0625 C10.72712891 4.07506836 10.72712891 4.07506836 9.68359375 4.08789062 C6.30657446 4.10428392 3.22708361 4.05628768 0 3 C0 2.01 0 1.02 0 0 Z " fill="#C4C6C5" transform="translate(489,84)"/>
<path d="M0 0 C1.32 0 2.64 0 4 0 C5.76462683 3.08809695 6 4.23312136 6 8 C6.66 8.33 7.32 8.66 8 9 C7.67 9.99 7.34 10.98 7 12 C6.01 11.67 5.02 11.34 4 11 C3.67 9.02 3.34 7.04 3 5 C1.18757677 9.0188515 -0.33501617 12.61110675 -1 17 C0.98 17 2.96 17 5 17 C5.66 15.68 6.32 14.36 7 13 C8.09658936 16.28976808 7.79953138 17.71303767 7 21 C4.00468461 21.99843846 2.82744268 22.00732761 -0.1875 21.5625 C-1.445625 21.376875 -2.70375 21.19125 -4 21 C-5.3234266 17.02972019 -4.33478849 15.03811528 -3.125 11.0625 C-2.75632812 9.83660156 -2.38765625 8.61070313 -2.0078125 7.34765625 C-1.67523437 6.24292969 -1.34265625 5.13820313 -1 4 C-0.65515938 2.66959636 -0.31515819 1.33774594 0 0 Z " fill="#E9EAEB" transform="translate(535,57)"/>
<path d="M0 0 C4.66154042 1.49835228 5.86610751 4.88463591 8 9 C7.01 9.495 7.01 9.495 6 10 C4.68 8.68 3.36 7.36 2 6 C1.97494385 6.93384521 1.9498877 7.86769043 1.92407227 8.82983398 C1.82913072 12.28325189 1.72988742 15.7364896 1.62768555 19.18969727 C1.58428187 20.68639269 1.54261087 22.18313939 1.50268555 23.67993164 C1.44511384 25.82714312 1.38138284 27.97409521 1.31640625 30.12109375 C1.26141968 32.06133423 1.26141968 32.06133423 1.20532227 34.04077148 C1 37 1 37 0 38 C-2.67058851 38.14115161 -5.32432238 38.04247107 -8 38 C-8.33 37.34 -8.66 36.68 -9 36 C-6.36 36 -3.72 36 -1 36 C-1.00523682 34.9805127 -1.01047363 33.96102539 -1.01586914 32.91064453 C-1.03394376 29.13493729 -1.04544105 25.35923388 -1.05493164 21.58349609 C-1.05996621 19.94807289 -1.06679427 18.3126542 -1.07543945 16.67724609 C-1.08754335 14.32909025 -1.093237 11.98099381 -1.09765625 9.6328125 C-1.10281754 8.89942657 -1.10797882 8.16604065 -1.11329651 7.41043091 C-1.11387171 2.22774341 -1.11387171 2.22774341 0 0 Z " fill="#D5D6D7" transform="translate(328,60)"/>
<path d="M0 0 C2.43816585 -0.0809723 4.87364384 -0.14046972 7.3125 -0.1875 C8.34793945 -0.22520508 8.34793945 -0.22520508 9.40429688 -0.26367188 C12.27659699 -0.30529941 14.45234598 -0.32684342 16.95703125 1.16796875 C18.39501235 3.69386064 18.39834217 5.6055708 18.375 8.5 C18.38273437 9.4590625 18.39046875 10.418125 18.3984375 11.40625 C18 14 18 14 16.92578125 15.83203125 C13.93134301 17.64813071 11.26568749 17.28254186 7.8125 17.1875 C5.90404297 17.14689453 5.90404297 17.14689453 3.95703125 17.10546875 C2.98121094 17.07066406 2.00539063 17.03585938 1 17 C1 15.35 1 13.7 1 12 C1.33 12.66 1.66 13.32 2 14 C3.95917659 13.9131252 5.91741871 13.80495488 7.875 13.6875 C8.96554687 13.62949219 10.05609375 13.57148437 11.1796875 13.51171875 C12.11039062 13.34285156 13.04109375 13.17398438 14 13 C16.30745935 10.24689917 16.30745935 10.24689917 15.6875 7.5 C15.17901328 5.65095738 14.60642538 3.81927613 14 2 C10.04 2 6.08 2 2 2 C1.67 3.65 1.34 5.3 1 7 C0.67 7 0.34 7 0 7 C0 4.69 0 2.38 0 0 Z " fill="#EDEDED" transform="translate(439,54)"/>
<path d="M0 0 C0.99 0 1.98 0 3 0 C3 11.55 3 23.1 3 35 C1.02 35.495 1.02 35.495 -1 36 C-1.33 34.68 -1.66 33.36 -2 32 C-1.34 32 -0.68 32 0 32 C0 21.44 0 10.88 0 0 Z " fill="#D4D5D5" transform="translate(352,45)"/>
<path d="M0 0 C3.00654574 1.34068928 4.57408742 2.68435618 7 5 C7 5.66 7 6.32 7 7 C7.66 7 8.32 7 9 7 C10.14077657 10.42232972 10.09815117 13.08673217 10.0625 16.6875 C10.05347656 17.86699219 10.04445313 19.04648438 10.03515625 20.26171875 C10.02355469 21.16535156 10.01195312 22.06898437 10 23 C9.67 23 9.34 23 9 23 C8.9175 21.845 8.835 20.69 8.75 19.5 C8.25706699 15.41880464 6.910833 12.33838482 4.9375 8.76171875 C4 7 4 7 3 4 C0.98491642 3.26676204 0.98491642 3.26676204 -1 3 C-1 2.34 -1 1.68 -1 1 C-2.62580966 1.11398665 -4.25067157 1.24155659 -5.875 1.375 C-6.77992188 1.44460937 -7.68484375 1.51421875 -8.6171875 1.5859375 C-11.17941903 1.79568132 -11.17941903 1.79568132 -13 4 C-13.99 4 -14.98 4 -16 4 C-16.99 6.97 -17.98 9.94 -19 13 C-19.99 13 -20.98 13 -22 13 C-22 16.96 -22 20.92 -22 25 C-22.33 25 -22.66 25 -23 25 C-23 20.71 -23 16.42 -23 12 C-22.34 12 -21.68 12 -21 12 C-20.95875 11.113125 -20.9175 10.22625 -20.875 9.3125 C-19.66858075 4.74534142 -17.79981002 3.71415001 -14 1 C-9.7931567 -1.10342165 -4.56770261 -0.53532311 0 0 Z " fill="#E5E5E5" transform="translate(401,52)"/>
<path d="M0 0 C0.66 0 1.32 0 2 0 C1.38678313 4.16987469 -0.08323915 7.26500339 -2 11 C-2.55558594 12.134375 -3.11117187 13.26875 -3.68359375 14.4375 C-4.55177734 16.2009375 -4.55177734 16.2009375 -5.4375 18 C-6.30181641 19.7634375 -6.30181641 19.7634375 -7.18359375 21.5625 C-9 25 -9 25 -11.18359375 28.109375 C-13.07833866 31.12466798 -13.50684814 32.74840837 -13.625 36.25 C-13.8044164 40.8044164 -13.8044164 40.8044164 -16 43 C-16.02692484 40.70839681 -16.04636124 38.41670454 -16.0625 36.125 C-16.07410156 34.84882812 -16.08570313 33.57265625 -16.09765625 32.2578125 C-16 29 -16 29 -15 27 C-14.34 27 -13.68 27 -13 27 C-12.9175 26.13375 -12.835 25.2675 -12.75 24.375 C-11.88642716 20.48892222 -10.44749984 18.11499979 -8 15 C-7.34 15 -6.68 15 -6 15 C-5.7525 14.175 -5.505 13.35 -5.25 12.5 C-4.01125418 9.0315117 -2.50478098 5.89419713 -0.8046875 2.63671875 C0.07353443 1.15440473 0.07353443 1.15440473 0 0 Z " fill="#E4E5E4" transform="translate(599,45)"/>
<path d="M0 0 C4.29 0 8.58 0 13 0 C13.02505615 1.16571533 13.0501123 2.33143066 13.07592773 3.5324707 C13.17004691 7.85436131 13.27025669 12.1760929 13.37231445 16.49780273 C13.41564622 18.36885866 13.45732257 20.23995369 13.49731445 22.11108398 C13.55505949 24.79943631 13.61874181 27.48759215 13.68359375 30.17578125 C13.70030624 31.01337479 13.71701874 31.85096832 13.73423767 32.71394348 C13.81914061 36.03673288 13.94250673 38.82752018 15 42 C17.01508358 42.73323796 17.01508358 42.73323796 19 43 C17.02 43 15.04 43 13 43 C10.58251519 39.27286959 10.72615861 35.60125517 10.76953125 31.3125 C10.76998947 30.57298096 10.77044769 29.83346191 10.7709198 29.0715332 C10.77393419 27.51153962 10.78179615 25.95154883 10.79418945 24.39160156 C10.81243604 22.00835462 10.81469903 19.625497 10.81445312 17.2421875 C10.81936932 15.72395499 10.82519808 14.2057251 10.83203125 12.6875 C10.83314407 11.97698486 10.8342569 11.26646973 10.83540344 10.53442383 C10.86807674 7.11597705 11.16295811 4.34816754 12 1 C8.7 1.33 5.4 1.66 2 2 C1.67 3.32 1.34 4.64 1 6 C0.67 4.02 0.34 2.04 0 0 Z " fill="#EAEAEA" transform="translate(474,45)"/>
<path d="M0 0 C1.32 0 2.64 0 4 0 C4 0.66 4 1.32 4 2 C3.01 2 2.02 2 1 2 C1 5.96 1 9.92 1 14 C1.99 13.97679688 2.98 13.95359375 4 13.9296875 C10.93859261 13.81730741 17.33170085 13.8225962 24 16 C24 16.33 24 16.66 24 17 C16.08 17 8.16 17 0 17 C-1.35827701 14.28344597 -1.1323445 12.09210594 -1.125 9.0625 C-1.12757813 8.00160156 -1.13015625 6.94070312 -1.1328125 5.84765625 C-1 3 -1 3 0 0 Z " fill="#C8C8C8" transform="translate(181,74)"/>
<path d="M0 0 C1.32 0.66 2.64 1.32 4 2 C3.01 2 2.02 2 1 2 C1 2.99 1 3.98 1 5 C0.01 5 -0.98 5 -2 5 C-2.185625 6.670625 -2.185625 6.670625 -2.375 8.375 C-3 12 -3 12 -5 14 C-5.30599063 16.56916657 -5.51087087 19.04758384 -5.625 21.625 C-5.66367187 22.33140625 -5.70234375 23.0378125 -5.7421875 23.765625 C-5.83647724 25.50998524 -5.91932891 27.25495691 -6 29 C-6.66 29 -7.32 29 -8 29 C-11.083366 22.833268 -8.70091751 14.98887213 -6.65625 8.8359375 C-6.4396875 8.23007812 -6.223125 7.62421875 -6 7 C-5.34 7 -4.68 7 -4 7 C-3.67 5.68 -3.34 4.36 -3 3 C-2.34 3 -1.68 3 -1 3 C-0.67 2.01 -0.34 1.02 0 0 Z " fill="#E6E7E7" transform="translate(378,48)"/>
<path d="M0 0 C-3 2 -3 2 -6 2 C-9.24375046 9.81975558 -10.00847267 17.04931599 -8.3125 25.375 C-6.71704378 28.56591244 -4.57447813 30.56102072 -2 33 C-2 33.66 -2 34.32 -2 35 C-5.12981912 34.66466224 -6.00061159 33.99933599 -8.1875 31.625 C-10.61324179 28.11185672 -11.12700728 25.56841752 -11.1328125 21.40234375 C-11.13410156 20.51869141 -11.13539063 19.63503906 -11.13671875 18.72460938 C-11.13285156 17.80486328 -11.12898437 16.88511719 -11.125 15.9375 C-11.12886719 15.01388672 -11.13273438 14.09027344 -11.13671875 13.13867188 C-11.13542969 12.25630859 -11.13414062 11.37394531 -11.1328125 10.46484375 C-11.13168457 9.656521 -11.13055664 8.84819824 -11.12939453 8.01538086 C-11 6 -11 6 -10 4 C-9.34 4 -8.68 4 -8 4 C-8.33 3.01 -8.66 2.02 -9 1 C-5.57367167 -0.61798838 -3.61944899 -1.34053666 0 0 Z " fill="#E2E2E2" transform="translate(234,54)"/>
<path d="M0 0 C0.66 0 1.32 0 2 0 C5.12722943 4.75338873 5.27216829 8.16003321 4.51171875 13.59765625 C3.59979435 17.87882807 2.14049838 20.89514219 -1 23.9375 C-1.66 24.288125 -2.32 24.63875 -3 25 C-3.99 24.67 -4.98 24.34 -6 24 C-5.01 23.67 -4.02 23.34 -3 23 C-1.84164327 20.02496878 -1.84164327 20.02496878 -1 17 C-0.67 16.67 -0.34 16.34 0 16 C0.07319621 13.30345146 0.09242537 10.63308542 0.0625 7.9375 C0.05798828 7.17888672 0.05347656 6.42027344 0.04882812 5.63867188 C0.0370068 3.75908129 0.01907078 1.87953101 0 0 Z " fill="#F3F4F4" transform="translate(465,53)"/>
<path d="M0 0 C4.8333472 -0.08333357 9.23692563 0.04738513 14 1 C14 1.66 14 2.32 14 3 C12.58456585 3.19658808 11.16755969 3.38187546 9.75 3.5625 C8.96109375 3.66691406 8.1721875 3.77132812 7.359375 3.87890625 C4.99467126 4.00027349 3.2488963 3.69633257 1 3 C0.93941406 4.14339844 0.87882812 5.28679687 0.81640625 6.46484375 C0.73201572 7.95574305 0.64736698 9.44662775 0.5625 10.9375 C0.50352539 12.06961914 0.50352539 12.06961914 0.44335938 13.22460938 C0.11328125 18.88671875 0.11328125 18.88671875 -1 20 C-2.68608966 20.07205511 -4.37500659 20.08386068 -6.0625 20.0625 C-6.98160156 20.05347656 -7.90070313 20.04445313 -8.84765625 20.03515625 C-9.55792969 20.02355469 -10.26820313 20.01195313 -11 20 C-11.33 19.34 -11.66 18.68 -12 18 C-8.37 18 -4.74 18 -1 18 C-1.01160156 16.86820313 -1.02320313 15.73640625 -1.03515625 14.5703125 C-1.04453454 13.08854331 -1.0536347 11.60677235 -1.0625 10.125 C-1.07087891 9.37863281 -1.07925781 8.63226563 -1.08789062 7.86328125 C-1.11328125 2.2265625 -1.11328125 2.2265625 0 0 Z " fill="#E6E8E9" transform="translate(440,78)"/>
<path d="M0 0 C0.66 0 1.32 0 2 0 C2 0.66 2 1.32 2 2 C1.34 2 0.68 2 0 2 C0.061875 3.3303125 0.061875 3.3303125 0.125 4.6875 C-0.00308019 8.08162502 -0.6781613 9.91570971 -2 13 C-2.35320313 13.88300781 -2.70640625 14.76601562 -3.0703125 15.67578125 C-4.046875 18.1171875 -5.0234375 20.55859375 -6 23 C-2.37 23 1.26 23 5 23 C5 23.66 5 24.32 5 25 C1.04 25 -2.92 25 -7 25 C-8.06641889 19.66790556 -7.73804012 18.43514304 -5.75 13.625 C-5.28722656 12.48933594 -4.82445312 11.35367188 -4.34765625 10.18359375 C-3.90292969 9.13300781 -3.45820312 8.08242187 -3 7 C-2.66871094 6.20722656 -2.33742188 5.41445312 -1.99609375 4.59765625 C-1.34479245 3.05907491 -0.67525921 1.52821822 0 0 Z " fill="#E2E3E4" transform="translate(520,73)"/>
<path d="M0 0 C0.66 0 1.32 0 2 0 C2.06316406 1.15757813 2.12632812 2.31515625 2.19140625 3.5078125 C2.51904511 11.89293047 2.51904511 11.89293047 5.69140625 19.39453125 C7.7884675 21.13368488 7.7884675 21.13368488 11 23 C11 23.66 11 24.32 11 25 C13.97 25 16.94 25 20 25 C20 25.33 20 25.66 20 26 C11.24237271 26.45913774 11.24237271 26.45913774 7.125 24.9375 C3.3195187 21.46779646 0.92703107 17.09408162 0 12 C-0.06743348 9.91765408 -0.08514472 7.83331443 -0.0625 5.75 C-0.04896484 4.13351563 -0.04896484 4.13351563 -0.03515625 2.484375 C-0.02355469 1.66453125 -0.01195312 0.8446875 0 0 Z " fill="#D7D7D7" transform="translate(379,65)"/>
<path d="M0 0 C0.99 0.495 0.99 0.495 2 1 C2 1.99 2 2.98 2 4 C2.66 4 3.32 4 4 4 C4.37125 5.918125 4.37125 5.918125 4.75 7.875 C5.74183491 12.48411517 7.41225915 16.56754543 9.390625 20.8359375 C9.59171875 21.55007812 9.7928125 22.26421875 10 23 C9.34 23.99 8.68 24.98 8 26 C7.01 23.36 6.02 20.72 5 18 C4.67 18 4.34 18 4 18 C3.87882813 17.39671875 3.75765625 16.7934375 3.6328125 16.171875 C3.46523438 15.37265625 3.29765625 14.5734375 3.125 13.75 C2.96257813 12.96109375 2.80015625 12.1721875 2.6328125 11.359375 C2.07949455 8.98169307 2.07949455 8.98169307 0.9375 6.875 C-0.25409043 4.49181915 -0.14598495 2.62772904 0 0 Z " fill="#EEF0EE" transform="translate(544,45)"/>
<path d="M0 0 C0.99 0.33 1.98 0.66 3 1 C2.69835937 1.54398438 2.39671875 2.08796875 2.0859375 2.6484375 C0.86773298 5.28641994 0.26065353 7.79073308 -0.375 10.625 C-1.74297262 16.3354088 -3.65680794 21.62374208 -6 27 C-6.66 27 -7.32 27 -8 27 C-7.54138501 21.72592758 -6.10357876 17.51251741 -4.0546875 12.64453125 C-2.40882511 8.51768369 -1.20037572 4.27406508 0 0 Z " fill="#E2E4E3" transform="translate(529,45)"/>
<path d="M0 0 C2.99358859 2.58005983 4.45566888 5.54324813 6.1875 9.0625 C6.71730469 10.12597656 7.24710938 11.18945312 7.79296875 12.28515625 C9 15 9 15 9 17 C9.99 17.33 10.98 17.66 12 18 C11.67 18.99 11.34 19.98 11 21 C10.34 21 9.68 21 9 21 C8.66226563 20.38511719 8.32453125 19.77023438 7.9765625 19.13671875 C7.53054688 18.32847656 7.08453125 17.52023438 6.625 16.6875 C6.18414063 15.88699219 5.74328125 15.08648437 5.2890625 14.26171875 C4.26486665 12.46472057 3.14732862 10.72099292 2 9 C2 7.68 2 6.36 2 5 C1.34 5 0.68 5 0 5 C-0.5625 3.0625 -0.5625 3.0625 -1 1 C-0.67 0.67 -0.34 0.34 0 0 Z " fill="#EFF0F0" transform="translate(568,45)"/>
<path d="M0 0 C0.99 0.33 1.98 0.66 3 1 C4.0625 3.25 4.0625 3.25 5 6 C5.37125 6.928125 5.7425 7.85625 6.125 8.8125 C6.41375 9.534375 6.7025 10.25625 7 11 C7.66 11 8.32 11 9 11 C9.33 12.65 9.66 14.3 10 16 C10.66 16 11.32 16 12 16 C12.12375 16.639375 12.2475 17.27875 12.375 17.9375 C12.58125 18.618125 12.7875 19.29875 13 20 C13.66 20.33 14.32 20.66 15 21 C14.67 22.65 14.34 24.3 14 26 C9.46352497 20.22874479 0 7.46599448 0 0 Z " fill="#EAEBEA" transform="translate(556,49)"/>
<path d="M0 0 C0.66 0 1.32 0 2 0 C1.52695318 4.25742137 -0.8863822 6.25705098 -4 9 C-6.94131891 9.98043964 -8.82501665 10.11621202 -11.88671875 10.09765625 C-12.82451172 10.09443359 -13.76230469 10.09121094 -14.72851562 10.08789062 C-15.70498047 10.07951172 -16.68144531 10.07113281 -17.6875 10.0625 C-19.16959961 10.05573242 -19.16959961 10.05573242 -20.68164062 10.04882812 C-23.12115474 10.03704303 -25.56054689 10.02059011 -28 10 C-28.33 9.34 -28.66 8.68 -29 8 C-28.42556152 8.01571045 -27.85112305 8.0314209 -27.25927734 8.04760742 C-24.63128691 8.11035513 -22.00345463 8.14911506 -19.375 8.1875 C-18.47136719 8.21263672 -17.56773437 8.23777344 -16.63671875 8.26367188 C-11.36257391 8.32141799 -7.49086399 8.11744442 -3 5 C-2.67 4.01 -2.34 3.02 -2 2 C-1.34 2 -0.68 2 0 2 C0 1.34 0 0.68 0 0 Z " fill="#E7E9E8" transform="translate(256,86)"/>
<path d="M0 0 C4.66154042 1.49835228 5.86610751 4.88463591 8 9 C7.01 9.495 7.01 9.495 6 10 C4.68 8.68 3.36 7.36 2 6 C1.34 9.3 0.68 12.6 0 16 C-0.33 16 -0.66 16 -1 16 C-1.02692484 13.70839681 -1.04636124 11.41670454 -1.0625 9.125 C-1.07410156 7.84882812 -1.08570313 6.57265625 -1.09765625 5.2578125 C-1 2 -1 2 0 0 Z " fill="#E4E5E5" transform="translate(328,60)"/>
<path d="M0 0 C0.95261719 -0.00515625 1.90523438 -0.0103125 2.88671875 -0.015625 C5.3125 0.25 5.3125 0.25 7.3125 2.25 C3.73160272 4.04044864 -0.47409877 3.65931601 -4.42578125 3.87109375 C-7.66691591 4.10246707 -7.66691591 4.10246707 -10.41796875 5.34765625 C-12.6875 6.25 -12.6875 6.25 -15.6875 5.25 C-10.43729744 1.94987267 -6.27629957 -0.03424993 0 0 Z " fill="#D2D4D3" transform="translate(394.6875,42.75)"/>
<path d="M0 0 C0.91845703 0.47566406 0.91845703 0.47566406 1.85546875 0.9609375 C6.31343206 2.43400364 10.644727 2.46665858 15.3125 2.625 C16.24384766 2.66367188 17.17519531 2.70234375 18.13476562 2.7421875 C20.42298407 2.83606313 22.71120295 2.92174509 25 3 C20.13980183 6.24013211 14.74634752 6.1922077 9 6 C5.73585737 5.04888867 2.90836795 3.7510329 0 2 C0 1.34 0 0.68 0 0 Z " fill="#CBCECD" transform="translate(223,93)"/>
<path d="M0 0 C4.89590828 0.41964928 6.66393219 2.57839199 10 6 C12.17346568 6.86119134 12.17346568 6.86119134 14 7 C14.33 6.34 14.66 5.68 15 5 C15.99 5 16.98 5 18 5 C18 6.32 18 7.64 18 9 C14.37 9 10.74 9 7 9 C6.773125 8.05125 6.54625 7.1025 6.3125 6.125 C5.30916286 2.80676612 5.30916286 2.80676612 2.375 1.625 C1.59125 1.41875 0.8075 1.2125 0 1 C0 0.67 0 0.34 0 0 Z " fill="#DDDEDE" transform="translate(242,53)"/>
<path d="M0 0 C0.33 0 0.66 0 1 0 C1.02687279 1.81242052 1.04633715 3.62495233 1.0625 5.4375 C1.07410156 6.44683594 1.08570313 7.45617187 1.09765625 8.49609375 C1 11 1 11 0 12 C-1.85287502 12.07226502 -3.70833878 12.0838122 -5.5625 12.0625 C-6.57441406 12.05347656 -7.58632813 12.04445313 -8.62890625 12.03515625 C-9.41136719 12.02355469 -10.19382812 12.01195313 -11 12 C-11 11.34 -11 10.68 -11 10 C-7.7 10 -4.4 10 -1 10 C-1.020625 8.72125 -1.04125 7.4425 -1.0625 6.125 C-1.125 2.25 -1.125 2.25 0 0 Z " fill="#B1B4B3" transform="translate(584,86)"/>
<path d="M0 0 C0.33 0 0.66 0 1 0 C1.32649086 5.98566585 0.97573219 11.64812345 -2 17 C-4.109375 18.2578125 -4.109375 18.2578125 -6 19 C-5.67 17.68 -5.34 16.36 -5 15 C-4.34 15 -3.68 15 -3 15 C-2.95101563 14.33613281 -2.90203125 13.67226562 -2.8515625 12.98828125 C-2.10896309 4.21792619 -2.10896309 4.21792619 0 0 Z " fill="#EBEDED" transform="translate(419,70)"/>
<path d="M0 0 C0.66 0 1.32 0 2 0 C2.40992188 0.75925781 2.81984375 1.51851563 3.2421875 2.30078125 C3.78101563 3.29464844 4.31984375 4.28851563 4.875 5.3125 C5.40867188 6.29863281 5.94234375 7.28476563 6.4921875 8.30078125 C8.00722126 11.09586458 8.00722126 11.09586458 10 14 C7 14 7 14 5 12.375 C1.6228718 8.36466026 0 5.27755893 0 0 Z " fill="#DEE0DF" transform="translate(214,79)"/>
<path d="M0 0 C1.58473048 0.08015255 3.16906283 0.1767325 4.75 0.3125 C4.42 1.6325 4.09 2.9525 3.75 4.3125 C3.75 3.6525 3.75 2.9925 3.75 2.3125 C1.11 2.3125 -1.53 2.3125 -4.25 2.3125 C-4.435625 3.5190625 -4.435625 3.5190625 -4.625 4.75 C-4.83125 5.595625 -5.0375 6.44125 -5.25 7.3125 C-6.24 7.8075 -6.24 7.8075 -7.25 8.3125 C-7.25 7.6525 -7.25 6.9925 -7.25 6.3125 C-7.91 5.9825 -8.57 5.6525 -9.25 5.3125 C-6.77450837 0.81160612 -4.94506959 -0.03502174 0 0 Z " fill="#DADBDA" transform="translate(255.25,79.6875)"/>
<path d="M0 0 C1.17426264 2.34852528 1.11508173 3.73774065 1.09765625 6.3515625 C1.09443359 7.20234375 1.09121094 8.053125 1.08789062 8.9296875 C1.07951172 9.81914063 1.07113281 10.70859375 1.0625 11.625 C1.05798828 12.5221875 1.05347656 13.419375 1.04882812 14.34375 C1.03702591 16.56256648 1.02056155 18.78125018 1 21 C2.98 21 4.96 21 7 21 C7 21.33 7 21.66 7 22 C4.69 22 2.38 22 0 22 C0 16.06 0 10.12 0 4 C-0.66 4 -1.32 4 -2 4 C-2 3.34 -2 2.68 -2 2 C-2.99 1.67 -3.98 1.34 -5 1 C-3 0 -3 0 0 0 Z " fill="#E8E8E8" transform="translate(301,74)"/>
<path d="M0 0 C5.61 0.33 11.22 0.66 17 1 C16.67 1.66 16.34 2.32 16 3 C13.41796875 3.44921875 13.41796875 3.44921875 10.1875 3.6875 C9.12917969 3.77386719 8.07085937 3.86023438 6.98046875 3.94921875 C4.37422205 3.993624 2.45910887 3.79191642 0 3 C0 2.01 0 1.02 0 0 Z " fill="#CCCCCC" transform="translate(489,84)"/>
<path d="M0 0 C5.62917348 0.40208382 8.00386479 2.28930302 12 6 C9 7 9 7 6.0625 5.6875 C5.051875 5.130625 4.04125 4.57375 3 4 C2.21625 3.608125 1.4325 3.21625 0.625 2.8125 C0.08875 2.544375 -0.4475 2.27625 -1 2 C-0.67 1.34 -0.34 0.68 0 0 Z " fill="#E9E9E9" transform="translate(454,45)"/>
<path d="M0 0 C0.66 0 1.32 0 2 0 C3.2890625 1.4609375 3.2890625 1.4609375 4.625 3.375 C5.29402344 4.31472656 5.29402344 4.31472656 5.9765625 5.2734375 C7 7 7 7 7 9 C7.66 9 8.32 9 9 9 C9.33 10.65 9.66 12.3 10 14 C9.01 13.67 8.02 13.34 7 13 C7 12.01 7 11.02 7 10 C6.01 9.67 5.02 9.34 4 9 C3.67 7.35 3.34 5.7 3 4 C2.34 4 1.68 4 1 4 C0.67 2.68 0.34 1.36 0 0 Z " fill="#E9EBEA" transform="translate(328,46)"/>
<path d="M0 0 C0.66 0 1.32 0 2 0 C2 1.98 2 3.96 2 6 C-1.96 6 -5.92 6 -10 6 C-10 5.34 -10 4.68 -10 4 C-6.7 4 -3.4 4 0 4 C0 2.68 0 1.36 0 0 Z " fill="#CCCECD" transform="translate(560,92)"/>
<path d="M0 0 C1.45823212 -0.0270043 2.91660675 -0.04639787 4.375 -0.0625 C5.18710938 -0.07410156 5.99921875 -0.08570312 6.8359375 -0.09765625 C9 0 9 0 11 1 C11 3.31 11 5.62 11 8 C10.01 8.495 10.01 8.495 9 9 C8.67 7.02 8.34 5.04 8 3 C5.36 2.34 2.72 1.68 0 1 C0 0.67 0 0.34 0 0 Z " fill="#A2A5A3" transform="translate(197,88)"/>
<path d="M0 0 C0.99 3.63 1.98 7.26 3 11 C2.01 11 1.02 11 0 11 C-0.25523437 10.16855469 -0.25523437 10.16855469 -0.515625 9.3203125 C-1.90825986 4.74877023 -1.90825986 4.74877023 -5.1875 1.5 C-5.785625 1.335 -6.38375 1.17 -7 1 C-4.50935112 0.31292445 -2.62113708 0 0 0 Z " fill="#E1E3E2" transform="translate(548,85)"/>
<path d="M0 0 C0.66 0 1.32 0 2 0 C2 0.99 2 1.98 2 3 C5.63 3 9.26 3 13 3 C13 3.66 13 4.32 13 5 C9.04 5 5.08 5 1 5 C0.67 3.35 0.34 1.7 0 0 Z " fill="#BBBDC2" transform="translate(512,93)"/>
<path d="M0 0 C1.93166016 0.01740234 1.93166016 0.01740234 3.90234375 0.03515625 C5.19269531 0.04417969 6.48304688 0.05320312 7.8125 0.0625 C8.81152344 0.07410156 9.81054688 0.08570312 10.83984375 0.09765625 C11.16984375 0.75765625 11.49984375 1.41765625 11.83984375 2.09765625 C9.54939007 2.31892723 7.25739611 2.52430665 4.96484375 2.72265625 C3.05058594 2.89667969 3.05058594 2.89667969 1.09765625 3.07421875 C0.02257812 3.08195312 -1.0525 3.0896875 -2.16015625 3.09765625 C-2.82015625 2.43765625 -3.48015625 1.77765625 -4.16015625 1.09765625 C-3.16015625 0.09765625 -3.16015625 0.09765625 0 0 Z " fill="#CBCECD" transform="translate(391.16015625,95.90234375)"/>
<path d="M0 0 C2.39073445 3.82517513 2.55966552 7.59665524 3 12 C0.59927045 9.11912454 -1.47291037 6.43595166 -3 3 C-2.01 2.67 -1.02 2.34 0 2 C0 1.34 0 0.68 0 0 Z " fill="#F2F2F2" transform="translate(337,67)"/>
<path d="M0 0 C-0.99 0.33 -1.98 0.66 -3 1 C-3.33 1.99 -3.66 2.98 -4 4 C-5.32 4 -6.64 4 -8 4 C-8 4.66 -8 5.32 -8 6 C-8.99 6.33 -9.98 6.66 -11 7 C-11.33 6.34 -11.66 5.68 -12 5 C-11.195625 4.731875 -10.39125 4.46375 -9.5625 4.1875 C-8.716875 3.795625 -7.87125 3.40375 -7 3 C-6.67 2.01 -6.34 1.02 -6 0 C-3 -1 -3 -1 0 0 Z " fill="#E6E7E7" transform="translate(414,91)"/>
<path d="M0 0 C1.485 0.99 1.485 0.99 3 2 C3 2.66 3 3.32 3 4 C4.32 4 5.64 4 7 4 C6.34 6.31 5.68 8.62 5 11 C4.7525 10.443125 4.505 9.88625 4.25 9.3125 C2.78393985 6.60028873 0.97010529 4.36412635 -1 2 C-0.67 1.34 -0.34 0.68 0 0 Z " fill="#EFEFF2" transform="translate(345,70)"/>
<path d="M0 0 C2.9375 1.3125 2.9375 1.3125 6 3 C6.33 3.99 6.66 4.98 7 6 C6.29875 5.855625 5.5975 5.71125 4.875 5.5625 C1.92443859 4.98521625 -1.03270151 4.48304859 -4 4 C-4.33 3.01 -4.66 2.02 -5 1 C-2.525 1.495 -2.525 1.495 0 2 C0 1.34 0 0.68 0 0 Z " fill="#E4E4E4" transform="translate(248,45)"/>
<path d="M0 0 C6.4 -0.49230769 6.4 -0.49230769 9.4375 2 C10.2109375 2.99 10.2109375 2.99 11 4 C9 5 9 5 5.875 4.0625 C4.92625 3.711875 3.9775 3.36125 3 3 C3 2.34 3 1.68 3 1 C2.01 0.67 1.02 0.34 0 0 Z " fill="#DFDFDF" transform="translate(400,45)"/>
<path d="M0 0 C2.475 0.495 2.475 0.495 5 1 C5.33 1.99 5.66 2.98 6 4 C8.97 4 11.94 4 15 4 C15 4.33 15 4.66 15 5 C4.11971831 5.57042254 4.11971831 5.57042254 0 2 C0 1.34 0 0.68 0 0 Z " fill="#E2E2E2" transform="translate(384,86)"/>
<path d="M0 0 C0.66 0 1.32 0 2 0 C4.4294516 3.6441774 4.16179575 5.71241272 4 10 C1.16625119 6.79663178 0.4794463 4.21912747 0 0 Z " fill="#E5E5E5" transform="translate(465,53)"/>
<path d="M0 0 C0.99 0.495 0.99 0.495 2 1 C2 1.99 2 2.98 2 4 C2.66 4 3.32 4 4 4 C4 5.65 4 7.3 4 9 C3.01 8.67 2.02 8.34 1 8 C0.67 5.36 0.34 2.72 0 0 Z " fill="#E5E7E6" transform="translate(544,45)"/>
<path d="M0 0 C1.5 1.3125 1.5 1.3125 3 3 C3 3.99 3 4.98 3 6 C4.32 6.33 5.64 6.66 7 7 C5.02 7 3.04 7 1 7 C-0.0625 5.1875 -0.0625 5.1875 -1 3 C-0.67 2.01 -0.34 1.02 0 0 Z " fill="#DEDEDE" transform="translate(486,81)"/>
<path d="M0 0 C1.0326802 2.78823655 1.04509293 3.8677274 0.0625 6.75 C-0.288125 7.4925 -0.63875 8.235 -1 9 C-1.66 8.67 -2.32 8.34 -3 8 C-1.125 1.125 -1.125 1.125 0 0 Z " fill="#DDDDE6" transform="translate(534,65)"/>
<path d="M0 0 C0.99 0 1.98 0 3 0 C3 3.96 3 7.92 3 12 C2.67 12 2.34 12 2 12 C1.855625 10.7625 1.71125 9.525 1.5625 8.25 C1.21311498 5.43495501 0.79620634 2.7298503 0 0 Z " fill="#DEDFDE" transform="translate(408,63)"/>
<path d="M0 0 C0.12375 0.639375 0.2475 1.27875 0.375 1.9375 C0.58125 2.618125 0.7875 3.29875 1 4 C1.66 4.33 2.32 4.66 3 5 C2.67 5.99 2.34 6.98 2 8 C1.01 7.67 0.02 7.34 -1 7 C-0.67 4.69 -0.34 2.38 0 0 Z " fill="#EFF0F1" transform="translate(540,61)"/>
</svg>
